<svg width="502" height="232" viewBox="0 0 502 232" fill="none" xmlns="http://www.w3.org/2000/svg">
<g filter="url(#filter0_d_134_2)">
<rect x="132" width="293" height="224" rx="10" fill="#714C99"/>
</g>
<path d="M132 10C132 4.47715 136.477 0 142 0H237V224H142C136.477 224 132 219.523 132 214V10Z" fill="#4C306A"/>
<g filter="url(#filter1_d_134_2)">
<rect y="39" width="209" height="53" rx="10" fill="#FF0000"/>
</g>
<path d="M26.3724 76.3814L25.342 69.3133M25.342 69.3133L28.0245 68.592L35.5035 72.0898L32.9276 54.4194L26.9942 61.5238L22.9704 62.6058C21.4889 63.0042 20.5186 64.9093 20.8031 66.8612C21.0877 68.8131 22.5193 70.0723 24.0008 69.674L25.342 69.3133ZM38.2926 52.9767L40.4599 48.7213M40.8685 70.6471L44.0662 73.4599M42.263 61.0906L44.9455 60.3693" stroke="white" stroke-width="2" stroke-linecap="round" stroke-linejoin="round"/>
<path d="M58.912 70V59.696H64.128C65.1627 59.696 65.9307 59.9413 66.432 60.432C66.944 60.912 67.2 61.5947 67.2 62.48C67.2 63.0347 67.0933 63.4987 66.88 63.872C66.6667 64.2347 66.3787 64.5173 66.016 64.72C66.496 64.8693 66.8747 65.12 67.152 65.472C67.44 65.8133 67.584 66.32 67.584 66.992C67.584 67.984 67.3013 68.736 66.736 69.248C66.1813 69.7493 65.376 70 64.32 70H58.912ZM61.072 63.968H63.728C64.2507 63.968 64.624 63.856 64.848 63.632C65.072 63.3973 65.184 63.072 65.184 62.656C65.184 62.1973 65.0667 61.856 64.832 61.632C64.608 61.408 64.1867 61.296 63.568 61.296H61.072V63.968ZM61.072 68.416H63.808C64.352 68.416 64.752 68.304 65.008 68.08C65.264 67.856 65.392 67.4613 65.392 66.896C65.392 66.4373 65.264 66.096 65.008 65.872C64.7627 65.648 64.3147 65.536 63.664 65.536H61.072V68.416ZM73.0359 70.16C71.7239 70.16 70.6839 69.8347 69.9159 69.184C69.1479 68.5227 68.7639 67.5253 68.7639 66.192C68.7639 64.9867 69.0839 64.032 69.7239 63.328C70.3745 62.6133 71.3399 62.256 72.6199 62.256C73.7932 62.256 74.6892 62.5653 75.3079 63.184C75.9372 63.792 76.2519 64.592 76.2519 65.584V66.96H70.7639C70.8812 67.568 71.1585 67.984 71.5959 68.208C72.0439 68.432 72.6732 68.544 73.4839 68.544C73.8892 68.544 74.2999 68.5067 74.7159 68.432C75.1425 68.3573 75.5052 68.2613 75.8039 68.144V69.68C75.4519 69.84 75.0412 69.9573 74.5719 70.032C74.1025 70.1173 73.5905 70.16 73.0359 70.16ZM70.7639 65.632H74.3639V65.216C74.3639 64.7787 74.2359 64.4373 73.9799 64.192C73.7239 63.936 73.2919 63.808 72.6839 63.808C71.9692 63.808 71.4679 63.952 71.1799 64.24C70.9025 64.528 70.7639 64.992 70.7639 65.632ZM78.717 70L76.717 62.416H78.877L80.029 67.344L81.293 63.392V62.416H82.941L84.381 67.344L85.501 62.416H87.645L85.661 70H83.677L82.221 65.568L80.733 70H78.717ZM90.8116 70.16C90.3316 70.16 89.8836 70.0747 89.4676 69.904C89.0623 69.7227 88.7316 69.4613 88.4756 69.12C88.2303 68.768 88.1076 68.3307 88.1076 67.808C88.1076 67.0613 88.369 66.464 88.8916 66.016C89.425 65.568 90.209 65.344 91.2436 65.344H93.4836V65.136C93.4836 64.6667 93.3503 64.336 93.0836 64.144C92.8276 63.952 92.305 63.856 91.5156 63.856C90.6516 63.856 89.8196 63.9893 89.0196 64.256V62.736C89.3716 62.5973 89.7983 62.4853 90.2996 62.4C90.8116 62.304 91.3663 62.256 91.9636 62.256C93.105 62.256 93.985 62.4907 94.6036 62.96C95.233 63.4187 95.5476 64.16 95.5476 65.184V70H93.6756L93.5636 69.312C93.265 69.5787 92.897 69.7867 92.4596 69.936C92.0223 70.0853 91.473 70.16 90.8116 70.16ZM91.4036 68.736C91.8836 68.736 92.2996 68.656 92.6516 68.496C93.0036 68.336 93.281 68.1333 93.4836 67.888V66.688H91.2916C90.449 66.688 90.0276 67.0347 90.0276 67.728C90.0276 68.4 90.4863 68.736 91.4036 68.736ZM97.287 70V62.416H99.287L99.383 63.2C99.7243 62.9867 100.146 62.7947 100.647 62.624C101.159 62.4427 101.66 62.32 102.151 62.256V63.888C101.863 63.9307 101.548 63.9947 101.207 64.08C100.866 64.1653 100.54 64.2613 100.231 64.368C99.9217 64.4747 99.6603 64.5867 99.447 64.704V70H97.287ZM106.895 70.16C105.583 70.16 104.543 69.8347 103.775 69.184C103.007 68.5227 102.623 67.5253 102.623 66.192C102.623 64.9867 102.943 64.032 103.583 63.328C104.234 62.6133 105.199 62.256 106.479 62.256C107.653 62.256 108.549 62.5653 109.167 63.184C109.797 63.792 110.111 64.592 110.111 65.584V66.96H104.623C104.741 67.568 105.018 67.984 105.455 68.208C105.903 68.432 106.533 68.544 107.343 68.544C107.749 68.544 108.159 68.5067 108.575 68.432C109.002 68.3573 109.365 68.2613 109.663 68.144V69.68C109.311 69.84 108.901 69.9573 108.431 70.032C107.962 70.1173 107.45 70.16 106.895 70.16ZM104.623 65.632H108.223V65.216C108.223 64.7787 108.095 64.4373 107.839 64.192C107.583 63.936 107.151 63.808 106.543 63.808C105.829 63.808 105.327 63.952 105.039 64.24C104.762 64.528 104.623 64.992 104.623 65.632ZM115.131 70V59.696H117.003L121.883 66.56V59.696H124.043V70H122.171L117.291 63.136V70H115.131ZM129.817 70.16C128.505 70.16 127.465 69.8347 126.697 69.184C125.929 68.5227 125.545 67.5253 125.545 66.192C125.545 64.9867 125.865 64.032 126.505 63.328C127.156 62.6133 128.121 62.256 129.401 62.256C130.574 62.256 131.47 62.5653 132.089 63.184C132.718 63.792 133.033 64.592 133.033 65.584V66.96H127.545C127.662 67.568 127.94 67.984 128.377 68.208C128.825 68.432 129.454 68.544 130.265 68.544C130.67 68.544 131.081 68.5067 131.497 68.432C131.924 68.3573 132.286 68.2613 132.585 68.144V69.68C132.233 69.84 131.822 69.9573 131.353 70.032C130.884 70.1173 130.372 70.16 129.817 70.16ZM127.545 65.632H131.145V65.216C131.145 64.7787 131.017 64.4373 130.761 64.192C130.505 63.936 130.073 63.808 129.465 63.808C128.75 63.808 128.249 63.952 127.961 64.24C127.684 64.528 127.545 64.992 127.545 65.632ZM134.753 61.024V59.328H137.105V61.024H134.753ZM134.929 70V64.016H133.793L133.985 62.416H137.089V70H134.929ZM142.128 72.816C141.562 72.816 140.981 72.7787 140.384 72.704C139.797 72.6293 139.301 72.5227 138.896 72.384V70.768C139.322 70.9067 139.824 71.0133 140.4 71.088C140.976 71.1733 141.514 71.216 142.016 71.216C142.752 71.216 143.285 71.1733 143.616 71.088C143.946 71.0133 144.112 70.8747 144.112 70.672C144.112 70.5013 144.037 70.384 143.888 70.32C143.749 70.256 143.45 70.224 142.992 70.224H140.928C139.573 70.224 138.896 69.7227 138.896 68.72C138.896 68.4107 138.981 68.128 139.152 67.872C139.322 67.616 139.594 67.4133 139.968 67.264C139.104 66.8267 138.672 66.0907 138.672 65.056C138.672 64.0747 138.976 63.3653 139.584 62.928C140.192 62.48 141.093 62.256 142.288 62.256C142.533 62.256 142.8 62.2773 143.088 62.32C143.386 62.352 143.61 62.384 143.76 62.416H146.608L146.56 63.776H145.36C145.69 64.0853 145.856 64.5173 145.856 65.072C145.856 65.8507 145.61 66.4747 145.12 66.944C144.629 67.4027 143.904 67.632 142.944 67.632C142.773 67.632 142.608 67.6267 142.448 67.616C142.298 67.5947 142.144 67.5733 141.984 67.552C141.664 67.5947 141.392 67.6693 141.168 67.776C140.954 67.8827 140.848 68.0267 140.848 68.208C140.848 68.4533 141.066 68.576 141.504 68.576H143.648C144.416 68.576 145.008 68.752 145.424 69.104C145.84 69.4453 146.048 69.9467 146.048 70.608C146.048 71.3547 145.712 71.9093 145.04 72.272C144.368 72.6347 143.397 72.816 142.128 72.816ZM142.304 66.416C142.944 66.416 143.386 66.3093 143.632 66.096C143.888 65.872 144.016 65.4987 144.016 64.976C144.016 64.4533 143.888 64.0747 143.632 63.84C143.386 63.6053 142.944 63.488 142.304 63.488C141.696 63.488 141.258 63.6053 140.992 63.84C140.725 64.064 140.592 64.4427 140.592 64.976C140.592 65.4667 140.714 65.8293 140.96 66.064C141.216 66.2987 141.664 66.416 142.304 66.416ZM147.912 70V59.216H150.072V63.056C150.381 62.8213 150.76 62.6293 151.208 62.48C151.656 62.3307 152.141 62.256 152.664 62.256C153.667 62.256 154.397 62.4907 154.856 62.96C155.315 63.4293 155.544 64.1547 155.544 65.136V70H153.384V65.248C153.384 64.736 153.277 64.3733 153.064 64.16C152.861 63.9467 152.477 63.84 151.912 63.84C151.581 63.84 151.245 63.9147 150.904 64.064C150.573 64.2133 150.296 64.4 150.072 64.624V70H147.912ZM161.767 70.16C161.233 70.16 160.769 70.0907 160.375 69.952C159.98 69.8027 159.617 69.584 159.287 69.296L159.175 70H157.303V59.216H159.463V62.832C159.772 62.64 160.119 62.496 160.503 62.4C160.887 62.304 161.287 62.256 161.703 62.256C162.791 62.256 163.649 62.5653 164.279 63.184C164.919 63.792 165.239 64.7787 165.239 66.144C165.239 67.5093 164.924 68.5227 164.295 69.184C163.676 69.8347 162.833 70.16 161.767 70.16ZM161.159 68.576C161.852 68.576 162.337 68.3733 162.615 67.968C162.903 67.5627 163.047 66.9547 163.047 66.144C163.047 65.3013 162.892 64.7093 162.583 64.368C162.284 64.016 161.804 63.84 161.143 63.84C160.812 63.84 160.497 63.888 160.199 63.984C159.911 64.08 159.665 64.2187 159.463 64.4V67.888C159.676 68.112 159.927 68.2827 160.215 68.4C160.513 68.5173 160.828 68.576 161.159 68.576ZM170.532 70.16C169.113 70.16 168.073 69.8187 167.412 69.136C166.751 68.4427 166.42 67.4667 166.42 66.208C166.42 64.9493 166.751 63.9787 167.412 63.296C168.084 62.6027 169.124 62.256 170.532 62.256C171.951 62.256 172.991 62.6027 173.652 63.296C174.324 63.9787 174.66 64.9493 174.66 66.208C174.66 67.4667 174.329 68.4427 173.668 69.136C173.007 69.8187 171.961 70.16 170.532 70.16ZM170.532 68.32C171.225 68.32 171.721 68.1653 172.02 67.856C172.319 67.536 172.468 66.9867 172.468 66.208C172.468 65.4293 172.319 64.8853 172.02 64.576C171.721 64.256 171.225 64.096 170.532 64.096C169.849 64.096 169.359 64.256 169.06 64.576C168.761 64.8853 168.612 65.4293 168.612 66.208C168.612 66.9867 168.761 67.536 169.06 67.856C169.359 68.1653 169.849 68.32 170.532 68.32ZM176.162 70V62.416H178.162L178.258 63.2C178.599 62.9867 179.021 62.7947 179.522 62.624C180.034 62.4427 180.535 62.32 181.026 62.256V63.888C180.738 63.9307 180.423 63.9947 180.082 64.08C179.741 64.1653 179.415 64.2613 179.106 64.368C178.797 64.4747 178.535 64.5867 178.322 64.704V70H176.162ZM184.725 70.16C184.159 70.16 183.621 70.1173 183.109 70.032C182.597 69.9573 182.186 69.8613 181.877 69.744V67.952C182.25 68.1013 182.671 68.2187 183.141 68.304C183.61 68.3787 184.042 68.416 184.437 68.416C184.97 68.416 185.343 68.384 185.557 68.32C185.781 68.256 185.893 68.112 185.893 67.888C185.893 67.632 185.722 67.4453 185.381 67.328C185.05 67.2107 184.554 67.0453 183.893 66.832C183.199 66.5973 182.666 66.3147 182.293 65.984C181.919 65.6533 181.733 65.1627 181.733 64.512C181.733 63.7867 181.994 63.232 182.517 62.848C183.05 62.4533 183.903 62.256 185.077 62.256C185.546 62.256 185.989 62.2933 186.405 62.368C186.821 62.432 187.173 62.512 187.461 62.608V64.384C187.173 64.2453 186.842 64.144 186.469 64.08C186.095 64.0053 185.749 63.968 185.429 63.968C184.97 63.968 184.602 64 184.325 64.064C184.058 64.128 183.925 64.2667 183.925 64.48C183.925 64.7147 184.069 64.88 184.357 64.976C184.655 65.072 185.114 65.216 185.733 65.408C186.341 65.5893 186.815 65.7867 187.157 66C187.498 66.2133 187.738 66.4693 187.877 66.768C188.015 67.056 188.085 67.4187 188.085 67.856C188.085 69.392 186.965 70.16 184.725 70.16Z" fill="white"/>
<g filter="url(#filter2_d_134_2)">
<rect x="248" y="66" width="246" height="120" rx="10" fill="#D72B2B"/>
</g>
<path d="M262.688 88.656L263.744 85.536H264.944L264.096 88.656H262.688ZM265.04 88.656L266.096 85.536H267.28L266.448 88.656H265.04ZM271.664 96V87.056H268.368V85.696H276.688V87.056H273.408V96H271.664ZM278.086 96V85.216H279.83V89.152C280.161 88.8853 280.555 88.672 281.014 88.512C281.473 88.3413 281.99 88.256 282.566 88.256C283.526 88.256 284.235 88.4853 284.694 88.944C285.153 89.4027 285.382 90.1173 285.382 91.088V96H283.654V91.168C283.654 90.5813 283.526 90.1707 283.27 89.936C283.025 89.7013 282.593 89.584 281.974 89.584C281.59 89.584 281.201 89.6693 280.806 89.84C280.411 90 280.086 90.2133 279.83 90.48V96H278.086ZM291.02 96.16C289.697 96.16 288.673 95.8347 287.948 95.184C287.223 94.5333 286.86 93.536 286.86 92.192C286.86 90.976 287.169 90.016 287.788 89.312C288.407 88.608 289.345 88.256 290.604 88.256C291.756 88.256 292.62 88.56 293.196 89.168C293.783 89.7653 294.076 90.5387 294.076 91.488V92.896H288.524C288.609 93.632 288.876 94.1387 289.324 94.416C289.772 94.6933 290.455 94.832 291.372 94.832C291.756 94.832 292.151 94.7947 292.556 94.72C292.961 94.6453 293.313 94.5493 293.612 94.432V95.712C293.271 95.8613 292.876 95.9733 292.428 96.048C291.991 96.1227 291.521 96.16 291.02 96.16ZM288.524 91.76H292.54V91.232C292.54 90.7093 292.396 90.304 292.108 90.016C291.82 89.7173 291.335 89.568 290.652 89.568C289.841 89.568 289.281 89.744 288.972 90.096C288.673 90.448 288.524 91.0027 288.524 91.76ZM296.238 96V89.776H295.134V88.416H296.238V87.488C296.238 86.7307 296.446 86.1227 296.862 85.664C297.288 85.1947 297.918 84.96 298.75 84.96C299.059 84.96 299.342 84.9867 299.598 85.04C299.854 85.0827 300.088 85.1467 300.302 85.232V86.48C299.971 86.3627 299.635 86.304 299.294 86.304C298.792 86.304 298.446 86.3947 298.254 86.576C298.062 86.7573 297.966 87.0667 297.966 87.504V88.416H299.95L299.87 89.776H297.966V96H296.238ZM303.951 96.16C303.14 96.16 302.532 95.9467 302.127 95.52C301.732 95.0827 301.535 94.4907 301.535 93.744V89.776H300.415V88.416H301.535V86.672L303.263 86.144V88.416H305.279L305.167 89.776H303.263V93.648C303.263 94.0853 303.364 94.3947 303.567 94.576C303.77 94.7467 304.1 94.832 304.559 94.832C304.847 94.832 305.151 94.7787 305.471 94.672V95.904C305.055 96.0747 304.548 96.16 303.951 96.16ZM310.492 96V88.416H312.092L312.188 89.296C312.551 89.0613 312.983 88.848 313.484 88.656C313.986 88.464 314.482 88.3307 314.972 88.256V89.584C314.674 89.6373 314.348 89.7173 313.996 89.824C313.655 89.92 313.33 90.032 313.02 90.16C312.711 90.2773 312.45 90.4 312.236 90.528V96H310.492ZM319.77 96.16C318.447 96.16 317.423 95.8347 316.698 95.184C315.973 94.5333 315.61 93.536 315.61 92.192C315.61 90.976 315.919 90.016 316.538 89.312C317.157 88.608 318.095 88.256 319.354 88.256C320.506 88.256 321.37 88.56 321.946 89.168C322.533 89.7653 322.826 90.5387 322.826 91.488V92.896H317.274C317.359 93.632 317.626 94.1387 318.074 94.416C318.522 94.6933 319.205 94.832 320.122 94.832C320.506 94.832 320.901 94.7947 321.306 94.72C321.711 94.6453 322.063 94.5493 322.362 94.432V95.712C322.021 95.8613 321.626 95.9733 321.178 96.048C320.741 96.1227 320.271 96.16 319.77 96.16ZM317.274 91.76H321.29V91.232C321.29 90.7093 321.146 90.304 320.858 90.016C320.57 89.7173 320.085 89.568 319.402 89.568C318.591 89.568 318.031 89.744 317.722 90.096C317.423 90.448 317.274 91.0027 317.274 91.76ZM324.524 99.456V88.416H326.028L326.124 89.168C326.465 88.8587 326.838 88.6293 327.244 88.48C327.649 88.3307 328.129 88.256 328.684 88.256C329.772 88.256 330.62 88.5547 331.228 89.152C331.836 89.7387 332.14 90.7147 332.14 92.08C332.14 93.4453 331.825 94.4693 331.196 95.152C330.566 95.824 329.708 96.16 328.62 96.16C327.702 96.16 326.918 95.9467 326.268 95.52V99.456H324.524ZM328.172 94.848C329.644 94.848 330.38 93.92 330.38 92.064C330.38 91.168 330.214 90.5333 329.884 90.16C329.553 89.776 328.998 89.584 328.22 89.584C327.441 89.584 326.79 89.8507 326.268 90.384V94.176C326.513 94.3787 326.785 94.544 327.084 94.672C327.393 94.7893 327.756 94.848 328.172 94.848ZM337.468 96.16C336.103 96.16 335.1 95.8187 334.46 95.136C333.831 94.4533 333.516 93.4773 333.516 92.208C333.516 90.9387 333.836 89.9627 334.476 89.28C335.116 88.5973 336.113 88.256 337.468 88.256C338.833 88.256 339.836 88.5973 340.476 89.28C341.116 89.9627 341.436 90.9387 341.436 92.208C341.436 93.4773 341.116 94.4533 340.476 95.136C339.847 95.8187 338.844 96.16 337.468 96.16ZM337.468 94.688C338.268 94.688 338.833 94.496 339.164 94.112C339.505 93.7173 339.676 93.0827 339.676 92.208C339.676 91.3333 339.505 90.704 339.164 90.32C338.833 89.936 338.268 89.744 337.468 89.744C336.679 89.744 336.113 89.936 335.772 90.32C335.441 90.704 335.276 91.3333 335.276 92.208C335.276 93.0827 335.441 93.7173 335.772 94.112C336.113 94.496 336.679 94.688 337.468 94.688ZM343.133 96V88.416H344.733L344.829 89.296C345.192 89.0613 345.624 88.848 346.125 88.656C346.626 88.464 347.122 88.3307 347.613 88.256V89.584C347.314 89.6373 346.989 89.7173 346.637 89.824C346.296 89.92 345.97 90.032 345.661 90.16C345.352 90.2773 345.09 90.4 344.877 90.528V96H343.133ZM351.779 96.16C350.968 96.16 350.36 95.9467 349.955 95.52C349.56 95.0827 349.363 94.4907 349.363 93.744V89.776H348.243V88.416H349.363V86.672L351.091 86.144V88.416H353.107L352.995 89.776H351.091V93.648C351.091 94.0853 351.192 94.3947 351.395 94.576C351.598 94.7467 351.928 94.832 352.387 94.832C352.675 94.832 352.979 94.7787 353.299 94.672V95.904C352.883 96.0747 352.376 96.16 351.779 96.16ZM358.473 96.16C357.15 96.16 356.126 95.8347 355.401 95.184C354.676 94.5333 354.313 93.536 354.313 92.192C354.313 90.976 354.622 90.016 355.241 89.312C355.86 88.608 356.798 88.256 358.057 88.256C359.209 88.256 360.073 88.56 360.649 89.168C361.236 89.7653 361.529 90.5387 361.529 91.488V92.896H355.977C356.062 93.632 356.329 94.1387 356.777 94.416C357.225 94.6933 357.908 94.832 358.825 94.832C359.209 94.832 359.604 94.7947 360.009 94.72C360.414 94.6453 360.766 94.5493 361.065 94.432V95.712C360.724 95.8613 360.329 95.9733 359.881 96.048C359.444 96.1227 358.974 96.16 358.473 96.16ZM355.977 91.76H359.993V91.232C359.993 90.7093 359.849 90.304 359.561 90.016C359.273 89.7173 358.788 89.568 358.105 89.568C357.294 89.568 356.734 89.744 356.425 90.096C356.126 90.448 355.977 91.0027 355.977 91.76ZM366.363 96.16C365.68 96.16 365.077 96.0427 364.555 95.808C364.032 95.5733 363.627 95.184 363.339 94.64C363.051 94.096 362.907 93.3653 362.907 92.448C362.907 91.5413 363.061 90.7787 363.371 90.16C363.68 89.5307 364.107 89.056 364.651 88.736C365.205 88.416 365.829 88.256 366.523 88.256C366.981 88.256 367.387 88.3093 367.739 88.416C368.101 88.5227 368.448 88.688 368.779 88.912V85.216H370.523V96H369.035L368.923 95.248C368.581 95.5573 368.208 95.7867 367.803 95.936C367.397 96.0853 366.917 96.16 366.363 96.16ZM366.827 94.848C367.605 94.848 368.256 94.5813 368.779 94.048V90.256C368.277 89.808 367.648 89.584 366.891 89.584C366.155 89.584 365.6 89.8293 365.227 90.32C364.853 90.8107 364.667 91.5253 364.667 92.464C364.667 93.3707 364.837 93.9947 365.179 94.336C365.531 94.6773 366.08 94.848 366.827 94.848ZM379.859 96.16C378.493 96.16 377.491 95.8187 376.851 95.136C376.221 94.4533 375.907 93.4773 375.907 92.208C375.907 90.9387 376.227 89.9627 376.867 89.28C377.507 88.5973 378.504 88.256 379.859 88.256C381.224 88.256 382.227 88.5973 382.867 89.28C383.507 89.9627 383.827 90.9387 383.827 92.208C383.827 93.4773 383.507 94.4533 382.867 95.136C382.237 95.8187 381.235 96.16 379.859 96.16ZM379.859 94.688C380.659 94.688 381.224 94.496 381.555 94.112C381.896 93.7173 382.067 93.0827 382.067 92.208C382.067 91.3333 381.896 90.704 381.555 90.32C381.224 89.936 380.659 89.744 379.859 89.744C379.069 89.744 378.504 89.936 378.163 90.32C377.832 90.704 377.667 91.3333 377.667 92.208C377.667 93.0827 377.832 93.7173 378.163 94.112C378.504 94.496 379.069 94.688 379.859 94.688ZM385.524 96V88.416H387.124L387.204 89.216C387.545 88.9493 387.95 88.7253 388.42 88.544C388.9 88.352 389.428 88.256 390.004 88.256C390.985 88.256 391.7 88.4853 392.148 88.944C392.596 89.4027 392.82 90.1173 392.82 91.088V96H391.092V91.168C391.092 90.5813 390.969 90.1707 390.724 89.936C390.489 89.7013 390.041 89.584 389.38 89.584C388.985 89.584 388.596 89.664 388.212 89.824C387.838 89.984 387.524 90.192 387.268 90.448V96H385.524ZM398.157 96L402.093 85.696H404.045L407.949 96H406.157L405.133 93.344H400.989L399.965 96H398.157ZM401.261 92H404.845L403.053 87.28L401.261 92ZM409.664 99.456V88.416H411.168L411.264 89.168C411.606 88.8587 411.979 88.6293 412.384 88.48C412.79 88.3307 413.27 88.256 413.824 88.256C414.912 88.256 415.76 88.5547 416.368 89.152C416.976 89.7387 417.28 90.7147 417.28 92.08C417.28 93.4453 416.966 94.4693 416.336 95.152C415.707 95.824 414.848 96.16 413.76 96.16C412.843 96.16 412.059 95.9467 411.408 95.52V99.456H409.664ZM413.312 94.848C414.784 94.848 415.52 93.92 415.52 92.064C415.52 91.168 415.355 90.5333 415.024 90.16C414.694 89.776 414.139 89.584 413.36 89.584C412.582 89.584 411.931 89.8507 411.408 90.384V94.176C411.654 94.3787 411.926 94.544 412.224 94.672C412.534 94.7893 412.896 94.848 413.312 94.848ZM421.873 96.16C421.062 96.16 420.454 95.9467 420.049 95.52C419.654 95.0827 419.457 94.4907 419.457 93.744V89.776H418.337V88.416H419.457V86.672L421.185 86.144V88.416H423.201L423.089 89.776H421.185V93.648C421.185 94.0853 421.286 94.3947 421.489 94.576C421.691 94.7467 422.022 94.832 422.481 94.832C422.769 94.832 423.073 94.7787 423.393 94.672V95.904C422.977 96.0747 422.47 96.16 421.873 96.16ZM424.407 96V94.64H425.879V96H424.407ZM431.274 96V85.696H432.81L438.186 93.28V85.696H439.914V96H438.378L433.018 88.432V96H431.274ZM445.578 96.16C444.212 96.16 443.21 95.8187 442.57 95.136C441.94 94.4533 441.626 93.4773 441.626 92.208C441.626 90.9387 441.946 89.9627 442.586 89.28C443.226 88.5973 444.223 88.256 445.578 88.256C446.943 88.256 447.946 88.5973 448.586 89.28C449.226 89.9627 449.546 90.9387 449.546 92.208C449.546 93.4773 449.226 94.4533 448.586 95.136C447.956 95.8187 446.954 96.16 445.578 96.16ZM445.578 94.688C446.378 94.688 446.943 94.496 447.274 94.112C447.615 93.7173 447.786 93.0827 447.786 92.208C447.786 91.3333 447.615 90.704 447.274 90.32C446.943 89.936 446.378 89.744 445.578 89.744C444.788 89.744 444.223 89.936 443.882 90.32C443.551 90.704 443.386 91.3333 443.386 92.208C443.386 93.0827 443.551 93.7173 443.882 94.112C444.223 94.496 444.788 94.688 445.578 94.688ZM450.922 96V94.64H452.394V96H450.922ZM461.373 96.16C460.083 96.16 459.107 95.84 458.445 95.2C457.795 94.56 457.469 93.552 457.469 92.176V89.856C457.469 89.0027 457.645 88.2507 457.997 87.6C458.349 86.9493 458.851 86.4427 459.501 86.08C460.152 85.7173 460.925 85.536 461.821 85.536C462.344 85.536 462.797 85.568 463.181 85.632C463.576 85.696 463.939 85.7867 464.269 85.904V87.392C463.939 87.2747 463.581 87.184 463.197 87.12C462.824 87.056 462.403 87.024 461.933 87.024C460.973 87.024 460.264 87.2533 459.805 87.712C459.347 88.16 459.117 88.7627 459.117 89.52V90.16C459.491 89.8827 459.917 89.68 460.397 89.552C460.888 89.4133 461.331 89.344 461.725 89.344C462.931 89.344 463.821 89.6373 464.397 90.224C464.973 90.8107 465.261 91.6427 465.261 92.72C465.261 93.744 464.947 94.576 464.317 95.216C463.688 95.8453 462.707 96.16 461.373 96.16ZM461.389 94.848C462.157 94.848 462.733 94.6613 463.117 94.288C463.501 93.9147 463.693 93.4133 463.693 92.784C463.693 92.1227 463.533 91.6107 463.213 91.248C462.904 90.8747 462.323 90.688 461.469 90.688C461.043 90.688 460.621 90.7627 460.205 90.912C459.8 91.0507 459.437 91.2373 459.117 91.472V92.576C459.117 94.0907 459.875 94.848 461.389 94.848ZM470.081 96.16C469.558 96.16 469.105 96.128 468.721 96.064C468.337 96 467.974 95.9147 467.633 95.808V94.304C467.964 94.432 468.316 94.528 468.689 94.592C469.073 94.656 469.5 94.688 469.969 94.688C470.929 94.688 471.638 94.4587 472.097 94C472.556 93.5413 472.785 92.9333 472.785 92.176V91.536C472.412 91.8027 471.985 92.0053 471.505 92.144C471.025 92.2827 470.582 92.352 470.177 92.352C468.982 92.352 468.092 92.0587 467.505 91.472C466.929 90.8853 466.641 90.0533 466.641 88.976C466.641 87.9627 466.956 87.136 467.585 86.496C468.214 85.856 469.196 85.536 470.529 85.536C471.82 85.536 472.79 85.8613 473.441 86.512C474.102 87.152 474.433 88.1547 474.433 89.52V91.84C474.433 92.6933 474.257 93.4453 473.905 94.096C473.553 94.7467 473.052 95.2533 472.401 95.616C471.75 95.9787 470.977 96.16 470.081 96.16ZM470.433 91.024C470.87 91.024 471.292 90.9493 471.697 90.8C472.102 90.6507 472.465 90.464 472.785 90.24V89.12C472.785 87.616 472.028 86.864 470.513 86.864C469.745 86.864 469.169 87.0507 468.785 87.424C468.401 87.7973 468.209 88.2987 468.209 88.928C468.209 89.5787 468.364 90.0907 468.673 90.464C468.993 90.8373 469.58 91.024 470.433 91.024ZM475.813 96V94.64H477.285V96H475.813ZM267.84 120.16C266.144 120.16 264.859 119.696 263.984 118.768C263.12 117.84 262.688 116.587 262.688 115.008C262.688 113.877 262.869 112.907 263.232 112.096C263.605 111.275 264.171 110.645 264.928 110.208C265.685 109.76 266.651 109.536 267.824 109.536C268.421 109.536 268.965 109.584 269.456 109.68C269.957 109.765 270.421 109.883 270.848 110.032V111.552C270.421 111.381 269.963 111.253 269.472 111.168C268.992 111.072 268.485 111.024 267.952 111.024C266.672 111.024 265.765 111.365 265.232 112.048C264.709 112.731 264.448 113.717 264.448 115.008C264.448 116.213 264.736 117.131 265.312 117.76C265.888 118.379 266.779 118.688 267.984 118.688C268.475 118.688 268.965 118.651 269.456 118.576C269.957 118.491 270.427 118.363 270.864 118.192V119.728C270.437 119.867 269.973 119.973 269.472 120.048C268.981 120.123 268.437 120.16 267.84 120.16ZM275.291 120.16C274.384 120.16 273.686 119.909 273.195 119.408C272.715 118.907 272.475 118.171 272.475 117.2V112.416H274.219V117.2C274.219 117.765 274.358 118.181 274.635 118.448C274.912 118.715 275.339 118.848 275.915 118.848C276.342 118.848 276.736 118.768 277.099 118.608C277.462 118.448 277.776 118.235 278.043 117.968V112.416H279.771V120H278.187L278.107 119.216C277.766 119.483 277.36 119.707 276.891 119.888C276.422 120.069 275.888 120.16 275.291 120.16ZM283.693 120.16C283.074 120.16 282.605 120.011 282.285 119.712C281.965 119.403 281.805 118.896 281.805 118.192V109.216H283.549V118.032C283.549 118.331 283.602 118.533 283.709 118.64C283.816 118.747 283.976 118.8 284.189 118.8C284.445 118.8 284.69 118.768 284.925 118.704V119.968C284.722 120.043 284.525 120.091 284.333 120.112C284.152 120.144 283.938 120.16 283.693 120.16ZM286.289 123.456V112.416H287.793L287.889 113.168C288.231 112.859 288.604 112.629 289.009 112.48C289.415 112.331 289.895 112.256 290.449 112.256C291.537 112.256 292.385 112.555 292.993 113.152C293.601 113.739 293.905 114.715 293.905 116.08C293.905 117.445 293.591 118.469 292.961 119.152C292.332 119.824 291.473 120.16 290.385 120.16C289.468 120.16 288.684 119.947 288.033 119.52V123.456H286.289ZM289.937 118.848C291.409 118.848 292.145 117.92 292.145 116.064C292.145 115.168 291.98 114.533 291.649 114.16C291.319 113.776 290.764 113.584 289.985 113.584C289.207 113.584 288.556 113.851 288.033 114.384V118.176C288.279 118.379 288.551 118.544 288.849 118.672C289.159 118.789 289.521 118.848 289.937 118.848ZM295.602 120V112.416H297.202L297.298 113.296C297.66 113.061 298.092 112.848 298.594 112.656C299.095 112.464 299.591 112.331 300.082 112.256V113.584C299.783 113.637 299.458 113.717 299.106 113.824C298.764 113.92 298.439 114.032 298.13 114.16C297.82 114.277 297.559 114.4 297.346 114.528V120H295.602ZM301.992 110.832V109.392H303.896V110.832H301.992ZM302.136 120V113.744H300.984L301.144 112.416H303.88V120H302.136ZM308.81 120.16C308 120.16 307.392 119.947 306.986 119.52C306.592 119.083 306.394 118.491 306.394 117.744V113.776H305.274V112.416H306.394V110.672L308.122 110.144V112.416H310.138L310.026 113.776H308.122V117.648C308.122 118.085 308.224 118.395 308.426 118.576C308.629 118.747 308.96 118.832 309.418 118.832C309.706 118.832 310.01 118.779 310.33 118.672V119.904C309.914 120.075 309.408 120.16 308.81 120.16ZM317.88 120.16C317.357 120.16 316.856 120.123 316.376 120.048C315.906 119.973 315.517 119.883 315.208 119.776V118.304C315.57 118.443 315.97 118.549 316.408 118.624C316.845 118.699 317.261 118.736 317.656 118.736C318.253 118.736 318.68 118.683 318.936 118.576C319.192 118.469 319.32 118.261 319.32 117.952C319.32 117.728 319.24 117.552 319.08 117.424C318.93 117.296 318.701 117.179 318.392 117.072C318.093 116.965 317.709 116.837 317.24 116.688C316.792 116.539 316.402 116.379 316.072 116.208C315.741 116.027 315.485 115.797 315.304 115.52C315.122 115.243 315.032 114.88 315.032 114.432C315.032 113.739 315.282 113.205 315.784 112.832C316.285 112.448 317.09 112.256 318.2 112.256C318.637 112.256 319.053 112.288 319.448 112.352C319.842 112.416 320.178 112.496 320.456 112.592V114.048C320.157 113.931 319.826 113.84 319.464 113.776C319.112 113.712 318.781 113.68 318.472 113.68C317.917 113.68 317.496 113.728 317.208 113.824C316.93 113.92 316.792 114.112 316.792 114.4C316.792 114.699 316.936 114.912 317.224 115.04C317.522 115.157 317.997 115.323 318.648 115.536C319.245 115.717 319.72 115.909 320.072 116.112C320.424 116.315 320.674 116.56 320.824 116.848C320.984 117.125 321.064 117.488 321.064 117.936C321.064 118.683 320.792 119.243 320.248 119.616C319.704 119.979 318.914 120.16 317.88 120.16ZM325.435 120.16C324.625 120.16 324.017 119.947 323.611 119.52C323.217 119.083 323.019 118.491 323.019 117.744V113.776H321.899V112.416H323.019V110.672L324.747 110.144V112.416H326.763L326.651 113.776H324.747V117.648C324.747 118.085 324.849 118.395 325.051 118.576C325.254 118.747 325.585 118.832 326.043 118.832C326.331 118.832 326.635 118.779 326.955 118.672V119.904C326.539 120.075 326.033 120.16 325.435 120.16ZM328.929 110.832V109.392H330.833V110.832H328.929ZM329.073 120V113.744H327.921L328.081 112.416H330.817V120H329.073ZM334.74 120.16C334.121 120.16 333.652 120.011 333.332 119.712C333.012 119.403 332.852 118.896 332.852 118.192V109.216H334.596V118.032C334.596 118.331 334.649 118.533 334.756 118.64C334.862 118.747 335.022 118.8 335.236 118.8C335.492 118.8 335.737 118.768 335.972 118.704V119.968C335.769 120.043 335.572 120.091 335.38 120.112C335.198 120.144 334.985 120.16 334.74 120.16ZM338.818 120.16C338.199 120.16 337.73 120.011 337.41 119.712C337.09 119.403 336.93 118.896 336.93 118.192V109.216H338.674V118.032C338.674 118.331 338.727 118.533 338.834 118.64C338.941 118.747 339.101 118.8 339.314 118.8C339.57 118.8 339.815 118.768 340.05 118.704V119.968C339.847 120.043 339.65 120.091 339.458 120.112C339.277 120.144 339.063 120.16 338.818 120.16ZM348.734 120.16C347.368 120.16 346.366 119.819 345.726 119.136C345.096 118.453 344.782 117.477 344.782 116.208C344.782 114.939 345.102 113.963 345.742 113.28C346.382 112.597 347.379 112.256 348.734 112.256C350.099 112.256 351.102 112.597 351.742 113.28C352.382 113.963 352.702 114.939 352.702 116.208C352.702 117.477 352.382 118.453 351.742 119.136C351.112 119.819 350.11 120.16 348.734 120.16ZM348.734 118.688C349.534 118.688 350.099 118.496 350.43 118.112C350.771 117.717 350.942 117.083 350.942 116.208C350.942 115.333 350.771 114.704 350.43 114.32C350.099 113.936 349.534 113.744 348.734 113.744C347.944 113.744 347.379 113.936 347.038 114.32C346.707 114.704 346.542 115.333 346.542 116.208C346.542 117.083 346.707 117.717 347.038 118.112C347.379 118.496 347.944 118.688 348.734 118.688ZM354.399 120V112.416H355.999L356.079 113.216C356.42 112.949 356.825 112.725 357.295 112.544C357.775 112.352 358.303 112.256 358.879 112.256C359.86 112.256 360.575 112.485 361.023 112.944C361.471 113.403 361.695 114.117 361.695 115.088V120H359.967V115.168C359.967 114.581 359.844 114.171 359.599 113.936C359.364 113.701 358.916 113.584 358.255 113.584C357.86 113.584 357.471 113.664 357.087 113.824C356.713 113.984 356.399 114.192 356.143 114.448V120H354.399ZM370.232 120.16C369.421 120.16 368.813 119.947 368.408 119.52C368.013 119.083 367.816 118.491 367.816 117.744V113.776H366.696V112.416H367.816V110.672L369.544 110.144V112.416H371.56L371.448 113.776H369.544V117.648C369.544 118.085 369.645 118.395 369.848 118.576C370.051 118.747 370.381 118.832 370.84 118.832C371.128 118.832 371.432 118.779 371.752 118.672V119.904C371.336 120.075 370.829 120.16 370.232 120.16ZM373.086 120V109.216H374.83V113.152C375.161 112.885 375.555 112.672 376.014 112.512C376.473 112.341 376.99 112.256 377.566 112.256C378.526 112.256 379.235 112.485 379.694 112.944C380.153 113.403 380.382 114.117 380.382 115.088V120H378.654V115.168C378.654 114.581 378.526 114.171 378.27 113.936C378.025 113.701 377.593 113.584 376.974 113.584C376.59 113.584 376.201 113.669 375.806 113.84C375.411 114 375.086 114.213 374.83 114.48V120H373.086ZM386.02 120.16C384.697 120.16 383.673 119.835 382.948 119.184C382.223 118.533 381.86 117.536 381.86 116.192C381.86 114.976 382.169 114.016 382.788 113.312C383.407 112.608 384.345 112.256 385.604 112.256C386.756 112.256 387.62 112.56 388.196 113.168C388.783 113.765 389.076 114.539 389.076 115.488V116.896H383.524C383.609 117.632 383.876 118.139 384.324 118.416C384.772 118.693 385.455 118.832 386.372 118.832C386.756 118.832 387.151 118.795 387.556 118.72C387.961 118.645 388.313 118.549 388.612 118.432V119.712C388.271 119.861 387.876 119.973 387.428 120.048C386.991 120.123 386.521 120.16 386.02 120.16ZM383.524 115.76H387.54V115.232C387.54 114.709 387.396 114.304 387.108 114.016C386.82 113.717 386.335 113.568 385.652 113.568C384.841 113.568 384.281 113.744 383.972 114.096C383.673 114.448 383.524 115.003 383.524 115.76ZM396.349 120.16C395.73 120.16 395.261 120.011 394.941 119.712C394.621 119.403 394.461 118.896 394.461 118.192V109.216H396.205V118.032C396.205 118.331 396.258 118.533 396.365 118.64C396.472 118.747 396.632 118.8 396.845 118.8C397.101 118.8 397.346 118.768 397.581 118.704V119.968C397.378 120.043 397.181 120.091 396.989 120.112C396.808 120.144 396.594 120.16 396.349 120.16ZM402.578 120.16C401.212 120.16 400.21 119.819 399.57 119.136C398.94 118.453 398.626 117.477 398.626 116.208C398.626 114.939 398.946 113.963 399.586 113.28C400.226 112.597 401.223 112.256 402.578 112.256C403.943 112.256 404.946 112.597 405.586 113.28C406.226 113.963 406.546 114.939 406.546 116.208C406.546 117.477 406.226 118.453 405.586 119.136C404.956 119.819 403.954 120.16 402.578 120.16ZM402.578 118.688C403.378 118.688 403.943 118.496 404.274 118.112C404.615 117.717 404.786 117.083 404.786 116.208C404.786 115.333 404.615 114.704 404.274 114.32C403.943 113.936 403.378 113.744 402.578 113.744C401.788 113.744 401.223 113.936 400.882 114.32C400.551 114.704 400.386 115.333 400.386 116.208C400.386 117.083 400.551 117.717 400.882 118.112C401.223 118.496 401.788 118.688 402.578 118.688ZM411.874 120.16C410.509 120.16 409.506 119.819 408.866 119.136C408.237 118.453 407.922 117.477 407.922 116.208C407.922 114.939 408.242 113.963 408.882 113.28C409.522 112.597 410.52 112.256 411.874 112.256C413.24 112.256 414.242 112.597 414.882 113.28C415.522 113.963 415.842 114.939 415.842 116.208C415.842 117.477 415.522 118.453 414.882 119.136C414.253 119.819 413.25 120.16 411.874 120.16ZM411.874 118.688C412.674 118.688 413.24 118.496 413.57 118.112C413.912 117.717 414.082 117.083 414.082 116.208C414.082 115.333 413.912 114.704 413.57 114.32C413.24 113.936 412.674 113.744 411.874 113.744C411.085 113.744 410.52 113.936 410.178 114.32C409.848 114.704 409.682 115.333 409.682 116.208C409.682 117.083 409.848 117.717 410.178 118.112C410.52 118.496 411.085 118.688 411.874 118.688ZM419.989 120.16C419.466 120.16 418.965 120.123 418.485 120.048C418.016 119.973 417.626 119.883 417.317 119.776V118.304C417.68 118.443 418.08 118.549 418.517 118.624C418.954 118.699 419.37 118.736 419.765 118.736C420.362 118.736 420.789 118.683 421.045 118.576C421.301 118.469 421.429 118.261 421.429 117.952C421.429 117.728 421.349 117.552 421.189 117.424C421.04 117.296 420.81 117.179 420.501 117.072C420.202 116.965 419.818 116.837 419.349 116.688C418.901 116.539 418.512 116.379 418.181 116.208C417.85 116.027 417.594 115.797 417.413 115.52C417.232 115.243 417.141 114.88 417.141 114.432C417.141 113.739 417.392 113.205 417.893 112.832C418.394 112.448 419.2 112.256 420.309 112.256C420.746 112.256 421.162 112.288 421.557 112.352C421.952 112.416 422.288 112.496 422.565 112.592V114.048C422.266 113.931 421.936 113.84 421.573 113.776C421.221 113.712 420.89 113.68 420.581 113.68C420.026 113.68 419.605 113.728 419.317 113.824C419.04 113.92 418.901 114.112 418.901 114.4C418.901 114.699 419.045 114.912 419.333 115.04C419.632 115.157 420.106 115.323 420.757 115.536C421.354 115.717 421.829 115.909 422.181 116.112C422.533 116.315 422.784 116.56 422.933 116.848C423.093 117.125 423.173 117.488 423.173 117.936C423.173 118.683 422.901 119.243 422.357 119.616C421.813 119.979 421.024 120.16 419.989 120.16ZM428.489 120.16C427.166 120.16 426.142 119.835 425.417 119.184C424.691 118.533 424.329 117.536 424.329 116.192C424.329 114.976 424.638 114.016 425.257 113.312C425.875 112.608 426.814 112.256 428.073 112.256C429.225 112.256 430.089 112.56 430.665 113.168C431.251 113.765 431.545 114.539 431.545 115.488V116.896H425.993C426.078 117.632 426.345 118.139 426.793 118.416C427.241 118.693 427.923 118.832 428.841 118.832C429.225 118.832 429.619 118.795 430.025 118.72C430.43 118.645 430.782 118.549 431.081 118.432V119.712C430.739 119.861 430.345 119.973 429.897 120.048C429.459 120.123 428.99 120.16 428.489 120.16ZM425.993 115.76H430.009V115.232C430.009 114.709 429.865 114.304 429.577 114.016C429.289 113.717 428.803 113.568 428.121 113.568C427.31 113.568 426.75 113.744 426.441 114.096C426.142 114.448 425.993 115.003 425.993 115.76ZM432.922 120V118.64H434.394V120H432.922ZM439.789 120V109.696H441.533V114.432L445.917 109.696H447.933L444.141 113.856L448.093 120H446.237L443.053 114.96L441.533 116.592V120H439.789ZM452.582 120.16C451.26 120.16 450.236 119.835 449.51 119.184C448.785 118.533 448.422 117.536 448.422 116.192C448.422 114.976 448.732 114.016 449.35 113.312C449.969 112.608 450.908 112.256 452.166 112.256C453.318 112.256 454.182 112.56 454.758 113.168C455.345 113.765 455.638 114.539 455.638 115.488V116.896H450.086C450.172 117.632 450.438 118.139 450.886 118.416C451.334 118.693 452.017 118.832 452.934 118.832C453.318 118.832 453.713 118.795 454.118 118.72C454.524 118.645 454.876 118.549 455.174 118.432V119.712C454.833 119.861 454.438 119.973 453.99 120.048C453.553 120.123 453.084 120.16 452.582 120.16ZM450.086 115.76H454.102V115.232C454.102 114.709 453.958 114.304 453.67 114.016C453.382 113.717 452.897 113.568 452.214 113.568C451.404 113.568 450.844 113.744 450.534 114.096C450.236 114.448 450.086 115.003 450.086 115.76ZM461.176 120.16C459.853 120.16 458.829 119.835 458.104 119.184C457.379 118.533 457.016 117.536 457.016 116.192C457.016 114.976 457.325 114.016 457.944 113.312C458.563 112.608 459.501 112.256 460.76 112.256C461.912 112.256 462.776 112.56 463.352 113.168C463.939 113.765 464.232 114.539 464.232 115.488V116.896H458.68C458.765 117.632 459.032 118.139 459.48 118.416C459.928 118.693 460.611 118.832 461.528 118.832C461.912 118.832 462.307 118.795 462.712 118.72C463.117 118.645 463.469 118.549 463.768 118.432V119.712C463.427 119.861 463.032 119.973 462.584 120.048C462.147 120.123 461.677 120.16 461.176 120.16ZM458.68 115.76H462.696V115.232C462.696 114.709 462.552 114.304 462.264 114.016C461.976 113.717 461.491 113.568 460.808 113.568C459.997 113.568 459.437 113.744 459.128 114.096C458.829 114.448 458.68 115.003 458.68 115.76ZM465.93 123.456V112.416H467.434L467.53 113.168C467.871 112.859 468.245 112.629 468.65 112.48C469.055 112.331 469.535 112.256 470.09 112.256C471.178 112.256 472.026 112.555 472.634 113.152C473.242 113.739 473.546 114.715 473.546 116.08C473.546 117.445 473.231 118.469 472.602 119.152C471.973 119.824 471.114 120.16 470.026 120.16C469.109 120.16 468.325 119.947 467.674 119.52V123.456H465.93ZM469.578 118.848C471.05 118.848 471.786 117.92 471.786 116.064C471.786 115.168 471.621 114.533 471.29 114.16C470.959 113.776 470.405 113.584 469.626 113.584C468.847 113.584 468.197 113.851 467.674 114.384V118.176C467.919 118.379 468.191 118.544 468.49 118.672C468.799 118.789 469.162 118.848 469.578 118.848ZM264.72 146.816C264.144 146.816 263.653 146.741 263.248 146.592V145.296C263.429 145.36 263.595 145.403 263.744 145.424C263.904 145.445 264.064 145.456 264.224 145.456C264.555 145.456 264.821 145.403 265.024 145.296C265.227 145.189 265.403 145.019 265.552 144.784C265.712 144.56 265.883 144.267 266.064 143.904L262.688 136.416H264.496L266.928 142.048L269.392 136.416H271.184L268.096 143.568C267.829 144.208 267.541 144.768 267.232 145.248C266.933 145.739 266.581 146.123 266.176 146.4C265.781 146.677 265.296 146.816 264.72 146.816ZM275.484 144.16C274.118 144.16 273.116 143.819 272.476 143.136C271.846 142.453 271.532 141.477 271.532 140.208C271.532 138.939 271.852 137.963 272.492 137.28C273.132 136.597 274.129 136.256 275.484 136.256C276.849 136.256 277.852 136.597 278.492 137.28C279.132 137.963 279.452 138.939 279.452 140.208C279.452 141.477 279.132 142.453 278.492 143.136C277.862 143.819 276.86 144.16 275.484 144.16ZM275.484 142.688C276.284 142.688 276.849 142.496 277.18 142.112C277.521 141.717 277.692 141.083 277.692 140.208C277.692 139.333 277.521 138.704 277.18 138.32C276.849 137.936 276.284 137.744 275.484 137.744C274.694 137.744 274.129 137.936 273.788 138.32C273.457 138.704 273.292 139.333 273.292 140.208C273.292 141.083 273.457 141.717 273.788 142.112C274.129 142.496 274.694 142.688 275.484 142.688ZM283.885 144.16C282.978 144.16 282.279 143.909 281.789 143.408C281.309 142.907 281.069 142.171 281.069 141.2V136.416H282.813V141.2C282.813 141.765 282.951 142.181 283.229 142.448C283.506 142.715 283.933 142.848 284.509 142.848C284.935 142.848 285.33 142.768 285.693 142.608C286.055 142.448 286.37 142.235 286.637 141.968V136.416H288.365V144H286.781L286.701 143.216C286.359 143.483 285.954 143.707 285.485 143.888C285.015 144.069 284.482 144.16 283.885 144.16ZM290.399 144V136.416H291.999L292.095 137.296C292.457 137.061 292.889 136.848 293.391 136.656C293.892 136.464 294.388 136.331 294.879 136.256V137.584C294.58 137.637 294.255 137.717 293.903 137.824C293.561 137.92 293.236 138.032 292.927 138.16C292.617 138.277 292.356 138.4 292.143 138.528V144H290.399ZM302.972 144.16C302.289 144.16 301.687 144.043 301.164 143.808C300.641 143.573 300.236 143.184 299.948 142.64C299.66 142.096 299.516 141.365 299.516 140.448C299.516 139.541 299.671 138.779 299.98 138.16C300.289 137.531 300.716 137.056 301.26 136.736C301.815 136.416 302.439 136.256 303.132 136.256C303.591 136.256 303.996 136.309 304.348 136.416C304.711 136.523 305.057 136.688 305.388 136.912V133.216H307.132V144H305.644L305.532 143.248C305.191 143.557 304.817 143.787 304.412 143.936C304.007 144.085 303.527 144.16 302.972 144.16ZM303.436 142.848C304.215 142.848 304.865 142.581 305.388 142.048V138.256C304.887 137.808 304.257 137.584 303.5 137.584C302.764 137.584 302.209 137.829 301.836 138.32C301.463 138.811 301.276 139.525 301.276 140.464C301.276 141.371 301.447 141.995 301.788 142.336C302.14 142.677 302.689 142.848 303.436 142.848ZM312.624 144.16C311.259 144.16 310.256 143.819 309.616 143.136C308.987 142.453 308.672 141.477 308.672 140.208C308.672 138.939 308.992 137.963 309.632 137.28C310.272 136.597 311.27 136.256 312.624 136.256C313.99 136.256 314.992 136.597 315.632 137.28C316.272 137.963 316.592 138.939 316.592 140.208C316.592 141.477 316.272 142.453 315.632 143.136C315.003 143.819 314 144.16 312.624 144.16ZM312.624 142.688C313.424 142.688 313.99 142.496 314.32 142.112C314.662 141.717 314.832 141.083 314.832 140.208C314.832 139.333 314.662 138.704 314.32 138.32C313.99 137.936 313.424 137.744 312.624 137.744C311.835 137.744 311.27 137.936 310.928 138.32C310.598 138.704 310.432 139.333 310.432 140.208C310.432 141.083 310.598 141.717 310.928 142.112C311.27 142.496 311.835 142.688 312.624 142.688ZM321.921 144.16C320.556 144.16 319.553 143.819 318.913 143.136C318.284 142.453 317.969 141.477 317.969 140.208C317.969 138.939 318.289 137.963 318.929 137.28C319.569 136.597 320.567 136.256 321.921 136.256C323.287 136.256 324.289 136.597 324.929 137.28C325.569 137.963 325.889 138.939 325.889 140.208C325.889 141.477 325.569 142.453 324.929 143.136C324.3 143.819 323.297 144.16 321.921 144.16ZM321.921 142.688C322.721 142.688 323.287 142.496 323.617 142.112C323.959 141.717 324.129 141.083 324.129 140.208C324.129 139.333 323.959 138.704 323.617 138.32C323.287 137.936 322.721 137.744 321.921 137.744C321.132 137.744 320.567 137.936 320.225 138.32C319.895 138.704 319.729 139.333 319.729 140.208C319.729 141.083 319.895 141.717 320.225 142.112C320.567 142.496 321.132 142.688 321.921 142.688ZM327.586 144V136.416H329.186L329.282 137.296C329.645 137.061 330.077 136.848 330.578 136.656C331.079 136.464 331.575 136.331 332.066 136.256V137.584C331.767 137.637 331.442 137.717 331.09 137.824C330.749 137.92 330.423 138.032 330.114 138.16C329.805 138.277 329.543 138.4 329.33 138.528V144H327.586ZM335.786 144.16C335.263 144.16 334.762 144.123 334.282 144.048C333.813 143.973 333.423 143.883 333.114 143.776V142.304C333.477 142.443 333.877 142.549 334.314 142.624C334.751 142.699 335.167 142.736 335.562 142.736C336.159 142.736 336.586 142.683 336.842 142.576C337.098 142.469 337.226 142.261 337.226 141.952C337.226 141.728 337.146 141.552 336.986 141.424C336.837 141.296 336.607 141.179 336.298 141.072C335.999 140.965 335.615 140.837 335.146 140.688C334.698 140.539 334.309 140.379 333.978 140.208C333.647 140.027 333.391 139.797 333.21 139.52C333.029 139.243 332.938 138.88 332.938 138.432C332.938 137.739 333.189 137.205 333.69 136.832C334.191 136.448 334.997 136.256 336.106 136.256C336.543 136.256 336.959 136.288 337.354 136.352C337.749 136.416 338.085 136.496 338.362 136.592V138.048C338.063 137.931 337.733 137.84 337.37 137.776C337.018 137.712 336.687 137.68 336.378 137.68C335.823 137.68 335.402 137.728 335.114 137.824C334.837 137.92 334.698 138.112 334.698 138.4C334.698 138.699 334.842 138.912 335.13 139.04C335.429 139.157 335.903 139.323 336.554 139.536C337.151 139.717 337.626 139.909 337.978 140.112C338.33 140.315 338.581 140.56 338.73 140.848C338.89 141.125 338.97 141.488 338.97 141.936C338.97 142.683 338.698 143.243 338.154 143.616C337.61 143.979 336.821 144.16 335.786 144.16ZM346.255 144.16C345.637 144.16 345.167 144.011 344.847 143.712C344.527 143.403 344.367 142.896 344.367 142.192V133.216H346.111V142.032C346.111 142.331 346.165 142.533 346.271 142.64C346.378 142.747 346.538 142.8 346.751 142.8C347.007 142.8 347.253 142.768 347.487 142.704V143.968C347.285 144.043 347.087 144.091 346.895 144.112C346.714 144.144 346.501 144.16 346.255 144.16ZM352.484 144.16C351.118 144.16 350.116 143.819 349.476 143.136C348.846 142.453 348.532 141.477 348.532 140.208C348.532 138.939 348.852 137.963 349.492 137.28C350.132 136.597 351.129 136.256 352.484 136.256C353.849 136.256 354.852 136.597 355.492 137.28C356.132 137.963 356.452 138.939 356.452 140.208C356.452 141.477 356.132 142.453 355.492 143.136C354.862 143.819 353.86 144.16 352.484 144.16ZM352.484 142.688C353.284 142.688 353.849 142.496 354.18 142.112C354.521 141.717 354.692 141.083 354.692 140.208C354.692 139.333 354.521 138.704 354.18 138.32C353.849 137.936 353.284 137.744 352.484 137.744C351.694 137.744 351.129 137.936 350.788 138.32C350.457 138.704 350.292 139.333 350.292 140.208C350.292 141.083 350.457 141.717 350.788 142.112C351.129 142.496 351.694 142.688 352.484 142.688ZM361.877 144.16C360.543 144.16 359.535 143.824 358.853 143.152C358.17 142.469 357.829 141.488 357.829 140.208C357.829 138.875 358.202 137.883 358.949 137.232C359.706 136.581 360.714 136.256 361.973 136.256C362.495 136.256 362.933 136.293 363.285 136.368C363.647 136.443 363.994 136.56 364.325 136.72V138.016C363.77 137.739 363.098 137.6 362.309 137.6C361.434 137.6 360.762 137.797 360.293 138.192C359.823 138.576 359.589 139.248 359.589 140.208C359.589 141.115 359.797 141.781 360.213 142.208C360.629 142.624 361.317 142.832 362.277 142.832C363.034 142.832 363.722 142.688 364.341 142.4V143.728C363.989 143.867 363.61 143.973 363.205 144.048C362.81 144.123 362.367 144.16 361.877 144.16ZM365.727 144V133.216H367.471V139.456L370.655 136.416H372.655L369.567 139.472L372.831 144H370.991L368.479 140.4L367.471 141.36V144H365.727ZM377.114 144.16C375.791 144.16 374.767 143.835 374.042 143.184C373.316 142.533 372.954 141.536 372.954 140.192C372.954 138.976 373.263 138.016 373.882 137.312C374.5 136.608 375.439 136.256 376.698 136.256C377.85 136.256 378.714 136.56 379.29 137.168C379.876 137.765 380.17 138.539 380.17 139.488V140.896H374.618C374.703 141.632 374.97 142.139 375.418 142.416C375.866 142.693 376.548 142.832 377.466 142.832C377.85 142.832 378.244 142.795 378.65 142.72C379.055 142.645 379.407 142.549 379.706 142.432V143.712C379.364 143.861 378.97 143.973 378.522 144.048C378.084 144.123 377.615 144.16 377.114 144.16ZM374.618 139.76H378.634V139.232C378.634 138.709 378.49 138.304 378.202 138.016C377.914 137.717 377.428 137.568 376.746 137.568C375.935 137.568 375.375 137.744 375.066 138.096C374.767 138.448 374.618 139.003 374.618 139.76ZM385.003 144.16C384.321 144.16 383.718 144.043 383.195 143.808C382.673 143.573 382.267 143.184 381.979 142.64C381.691 142.096 381.547 141.365 381.547 140.448C381.547 139.541 381.702 138.779 382.011 138.16C382.321 137.531 382.747 137.056 383.291 136.736C383.846 136.416 384.47 136.256 385.163 136.256C385.622 136.256 386.027 136.309 386.379 136.416C386.742 136.523 387.089 136.688 387.419 136.912V133.216H389.163V144H387.675L387.563 143.248C387.222 143.557 386.849 143.787 386.443 143.936C386.038 144.085 385.558 144.16 385.003 144.16ZM385.467 142.848C386.246 142.848 386.897 142.581 387.419 142.048V138.256C386.918 137.808 386.289 137.584 385.531 137.584C384.795 137.584 384.241 137.829 383.867 138.32C383.494 138.811 383.307 139.525 383.307 140.464C383.307 141.371 383.478 141.995 383.819 142.336C384.171 142.677 384.721 142.848 385.467 142.848ZM397.235 144.16C396.755 144.16 396.307 144.075 395.891 143.904C395.486 143.733 395.161 143.477 394.915 143.136C394.67 142.784 394.547 142.352 394.547 141.84C394.547 141.115 394.793 140.533 395.283 140.096C395.785 139.648 396.553 139.424 397.587 139.424H400.019V139.088C400.019 138.725 399.961 138.437 399.843 138.224C399.737 138.011 399.534 137.856 399.235 137.76C398.947 137.664 398.521 137.616 397.955 137.616C397.059 137.616 396.222 137.749 395.443 138.016V136.72C395.785 136.581 396.201 136.469 396.691 136.384C397.182 136.299 397.71 136.256 398.275 136.256C399.385 136.256 400.227 136.48 400.803 136.928C401.39 137.376 401.683 138.107 401.683 139.12V144H400.195L400.083 143.232C399.774 143.531 399.39 143.76 398.931 143.92C398.483 144.08 397.918 144.16 397.235 144.16ZM397.699 142.912C398.222 142.912 398.675 142.827 399.059 142.656C399.454 142.475 399.774 142.235 400.019 141.936V140.608H397.619C397.107 140.608 396.734 140.709 396.499 140.912C396.275 141.104 396.163 141.403 396.163 141.808C396.163 142.203 396.297 142.485 396.563 142.656C396.83 142.827 397.209 142.912 397.699 142.912ZM403.617 144V136.416H405.217L405.297 137.216C405.639 136.949 406.044 136.725 406.513 136.544C406.993 136.352 407.521 136.256 408.097 136.256C409.079 136.256 409.793 136.485 410.241 136.944C410.689 137.403 410.913 138.117 410.913 139.088V144H409.185V139.168C409.185 138.581 409.063 138.171 408.817 137.936C408.583 137.701 408.135 137.584 407.473 137.584C407.079 137.584 406.689 137.664 406.305 137.824C405.932 137.984 405.617 138.192 405.361 138.448V144H403.617ZM415.847 144.16C415.164 144.16 414.562 144.043 414.039 143.808C413.516 143.573 413.111 143.184 412.823 142.64C412.535 142.096 412.391 141.365 412.391 140.448C412.391 139.541 412.546 138.779 412.855 138.16C413.164 137.531 413.591 137.056 414.135 136.736C414.69 136.416 415.314 136.256 416.007 136.256C416.466 136.256 416.871 136.309 417.223 136.416C417.586 136.523 417.932 136.688 418.263 136.912V133.216H420.007V144H418.519L418.407 143.248C418.066 143.557 417.692 143.787 417.287 143.936C416.882 144.085 416.402 144.16 415.847 144.16ZM416.311 142.848C417.09 142.848 417.74 142.581 418.263 142.048V138.256C417.762 137.808 417.132 137.584 416.375 137.584C415.639 137.584 415.084 137.829 414.711 138.32C414.338 138.811 414.151 139.525 414.151 140.464C414.151 141.371 414.322 141.995 414.663 142.336C415.015 142.677 415.564 142.848 416.311 142.848ZM425.711 144V133.216H427.455V139.456L430.639 136.416H432.639L429.551 139.472L432.815 144H430.975L428.463 140.4L427.455 141.36V144H425.711ZM437.098 144.16C435.775 144.16 434.751 143.835 434.026 143.184C433.301 142.533 432.938 141.536 432.938 140.192C432.938 138.976 433.247 138.016 433.866 137.312C434.485 136.608 435.423 136.256 436.682 136.256C437.834 136.256 438.698 136.56 439.274 137.168C439.861 137.765 440.154 138.539 440.154 139.488V140.896H434.602C434.687 141.632 434.954 142.139 435.402 142.416C435.85 142.693 436.533 142.832 437.45 142.832C437.834 142.832 438.229 142.795 438.634 142.72C439.039 142.645 439.391 142.549 439.69 142.432V143.712C439.349 143.861 438.954 143.973 438.506 144.048C438.069 144.123 437.599 144.16 437.098 144.16ZM434.602 139.76H438.618V139.232C438.618 138.709 438.474 138.304 438.186 138.016C437.898 137.717 437.413 137.568 436.73 137.568C435.919 137.568 435.359 137.744 435.05 138.096C434.751 138.448 434.602 139.003 434.602 139.76ZM445.692 144.16C444.369 144.16 443.345 143.835 442.62 143.184C441.894 142.533 441.532 141.536 441.532 140.192C441.532 138.976 441.841 138.016 442.46 137.312C443.078 136.608 444.017 136.256 445.276 136.256C446.428 136.256 447.292 136.56 447.868 137.168C448.454 137.765 448.748 138.539 448.748 139.488V140.896H443.196C443.281 141.632 443.548 142.139 443.996 142.416C444.444 142.693 445.126 142.832 446.044 142.832C446.428 142.832 446.822 142.795 447.228 142.72C447.633 142.645 447.985 142.549 448.284 142.432V143.712C447.942 143.861 447.548 143.973 447.1 144.048C446.662 144.123 446.193 144.16 445.692 144.16ZM443.196 139.76H447.212V139.232C447.212 138.709 447.068 138.304 446.78 138.016C446.492 137.717 446.006 137.568 445.324 137.568C444.513 137.568 443.953 137.744 443.644 138.096C443.345 138.448 443.196 139.003 443.196 139.76ZM450.446 147.456V136.416H451.95L452.046 137.168C452.387 136.859 452.76 136.629 453.166 136.48C453.571 136.331 454.051 136.256 454.606 136.256C455.694 136.256 456.542 136.555 457.15 137.152C457.758 137.739 458.062 138.715 458.062 140.08C458.062 141.445 457.747 142.469 457.118 143.152C456.488 143.824 455.63 144.16 454.542 144.16C453.624 144.16 452.84 143.947 452.19 143.52V147.456H450.446ZM454.094 142.848C455.566 142.848 456.302 141.92 456.302 140.064C456.302 139.168 456.136 138.533 455.806 138.16C455.475 137.776 454.92 137.584 454.141 137.584C453.363 137.584 452.712 137.851 452.19 138.384V142.176C452.435 142.379 452.707 142.544 453.006 142.672C453.315 142.789 453.678 142.848 454.094 142.848ZM264.72 170.816C264.144 170.816 263.653 170.741 263.248 170.592V169.296C263.429 169.36 263.595 169.403 263.744 169.424C263.904 169.445 264.064 169.456 264.224 169.456C264.555 169.456 264.821 169.403 265.024 169.296C265.227 169.189 265.403 169.019 265.552 168.784C265.712 168.56 265.883 168.267 266.064 167.904L262.688 160.416H264.496L266.928 166.048L269.392 160.416H271.184L268.096 167.568C267.829 168.208 267.541 168.768 267.232 169.248C266.933 169.739 266.581 170.123 266.176 170.4C265.781 170.677 265.296 170.816 264.72 170.816ZM275.484 168.16C274.118 168.16 273.116 167.819 272.476 167.136C271.846 166.453 271.532 165.477 271.532 164.208C271.532 162.939 271.852 161.963 272.492 161.28C273.132 160.597 274.129 160.256 275.484 160.256C276.849 160.256 277.852 160.597 278.492 161.28C279.132 161.963 279.452 162.939 279.452 164.208C279.452 165.477 279.132 166.453 278.492 167.136C277.862 167.819 276.86 168.16 275.484 168.16ZM275.484 166.688C276.284 166.688 276.849 166.496 277.18 166.112C277.521 165.717 277.692 165.083 277.692 164.208C277.692 163.333 277.521 162.704 277.18 162.32C276.849 161.936 276.284 161.744 275.484 161.744C274.694 161.744 274.129 161.936 273.788 162.32C273.457 162.704 273.292 163.333 273.292 164.208C273.292 165.083 273.457 165.717 273.788 166.112C274.129 166.496 274.694 166.688 275.484 166.688ZM283.885 168.16C282.978 168.16 282.279 167.909 281.789 167.408C281.309 166.907 281.069 166.171 281.069 165.2V160.416H282.813V165.2C282.813 165.765 282.951 166.181 283.229 166.448C283.506 166.715 283.933 166.848 284.509 166.848C284.935 166.848 285.33 166.768 285.693 166.608C286.055 166.448 286.37 166.235 286.637 165.968V160.416H288.365V168H286.781L286.701 167.216C286.359 167.483 285.954 167.707 285.485 167.888C285.015 168.069 284.482 168.16 283.885 168.16ZM290.399 168V160.416H291.999L292.095 161.296C292.457 161.061 292.889 160.848 293.391 160.656C293.892 160.464 294.388 160.331 294.879 160.256V161.584C294.58 161.637 294.255 161.717 293.903 161.824C293.561 161.92 293.236 162.032 292.927 162.16C292.617 162.277 292.356 162.4 292.143 162.528V168H290.399ZM302.508 168L299.516 160.416H301.324L303.452 166.304L305.58 160.416H307.372L304.396 168H302.508ZM310.735 168.16C310.255 168.16 309.807 168.075 309.391 167.904C308.986 167.733 308.661 167.477 308.415 167.136C308.17 166.784 308.047 166.352 308.047 165.84C308.047 165.115 308.293 164.533 308.783 164.096C309.285 163.648 310.053 163.424 311.087 163.424H313.519V163.088C313.519 162.725 313.461 162.437 313.343 162.224C313.237 162.011 313.034 161.856 312.735 161.76C312.447 161.664 312.021 161.616 311.455 161.616C310.559 161.616 309.722 161.749 308.943 162.016V160.72C309.285 160.581 309.701 160.469 310.191 160.384C310.682 160.299 311.21 160.256 311.775 160.256C312.885 160.256 313.727 160.48 314.303 160.928C314.89 161.376 315.183 162.107 315.183 163.12V168H313.695L313.583 167.232C313.274 167.531 312.89 167.76 312.431 167.92C311.983 168.08 311.418 168.16 310.735 168.16ZM311.199 166.912C311.722 166.912 312.175 166.827 312.559 166.656C312.954 166.475 313.274 166.235 313.519 165.936V164.608H311.119C310.607 164.608 310.234 164.709 309.999 164.912C309.775 165.104 309.663 165.403 309.663 165.808C309.663 166.203 309.797 166.485 310.063 166.656C310.33 166.827 310.709 166.912 311.199 166.912ZM319.005 168.16C318.387 168.16 317.917 168.011 317.597 167.712C317.277 167.403 317.117 166.896 317.117 166.192V157.216H318.861V166.032C318.861 166.331 318.915 166.533 319.021 166.64C319.128 166.747 319.288 166.8 319.501 166.8C319.757 166.8 320.003 166.768 320.237 166.704V167.968C320.035 168.043 319.837 168.091 319.645 168.112C319.464 168.144 319.251 168.16 319.005 168.16ZM323.932 168.16C323.025 168.16 322.326 167.909 321.836 167.408C321.356 166.907 321.116 166.171 321.116 165.2V160.416H322.86V165.2C322.86 165.765 322.998 166.181 323.276 166.448C323.553 166.715 323.98 166.848 324.556 166.848C324.982 166.848 325.377 166.768 325.74 166.608C326.102 166.448 326.417 166.235 326.684 165.968V160.416H328.411V168H326.828L326.748 167.216C326.406 167.483 326.001 167.707 325.532 167.888C325.062 168.069 324.529 168.16 323.932 168.16ZM332.579 168.16C332.099 168.16 331.651 168.075 331.235 167.904C330.83 167.733 330.504 167.477 330.259 167.136C330.014 166.784 329.891 166.352 329.891 165.84C329.891 165.115 330.136 164.533 330.627 164.096C331.128 163.648 331.896 163.424 332.931 163.424H335.363V163.088C335.363 162.725 335.304 162.437 335.187 162.224C335.08 162.011 334.878 161.856 334.579 161.76C334.291 161.664 333.864 161.616 333.299 161.616C332.403 161.616 331.566 161.749 330.787 162.016V160.72C331.128 160.581 331.544 160.469 332.035 160.384C332.526 160.299 333.054 160.256 333.619 160.256C334.728 160.256 335.571 160.48 336.147 160.928C336.734 161.376 337.027 162.107 337.027 163.12V168H335.539L335.427 167.232C335.118 167.531 334.734 167.76 334.275 167.92C333.827 168.08 333.262 168.16 332.579 168.16ZM333.043 166.912C333.566 166.912 334.019 166.827 334.403 166.656C334.798 166.475 335.118 166.235 335.363 165.936V164.608H332.963C332.451 164.608 332.078 164.709 331.843 164.912C331.619 165.104 331.507 165.403 331.507 165.808C331.507 166.203 331.64 166.485 331.907 166.656C332.174 166.827 332.552 166.912 333.043 166.912ZM343.121 168.16C342.566 168.16 342.086 168.085 341.681 167.936C341.276 167.787 340.902 167.557 340.561 167.248L340.465 168H338.961V157.216H340.705V160.912C341.366 160.475 342.161 160.256 343.089 160.256C344.166 160.256 345.014 160.565 345.633 161.184C346.262 161.792 346.577 162.779 346.577 164.144C346.577 165.52 346.268 166.533 345.649 167.184C345.03 167.835 344.188 168.16 343.121 168.16ZM342.657 166.848C343.446 166.848 344.001 166.624 344.321 166.176C344.652 165.728 344.817 165.051 344.817 164.144C344.817 163.205 344.641 162.544 344.289 162.16C343.937 161.776 343.382 161.584 342.625 161.584C341.836 161.584 341.196 161.803 340.705 162.24V166.048C341.206 166.581 341.857 166.848 342.657 166.848ZM350.162 168.16C349.543 168.16 349.074 168.011 348.754 167.712C348.434 167.403 348.274 166.896 348.274 166.192V157.216H350.018V166.032C350.018 166.331 350.071 166.533 350.178 166.64C350.284 166.747 350.444 166.8 350.658 166.8C350.914 166.8 351.159 166.768 351.394 166.704V167.968C351.191 168.043 350.994 168.091 350.802 168.112C350.62 168.144 350.407 168.16 350.162 168.16ZM356.598 168.16C355.275 168.16 354.251 167.835 353.526 167.184C352.801 166.533 352.438 165.536 352.438 164.192C352.438 162.976 352.747 162.016 353.366 161.312C353.985 160.608 354.923 160.256 356.182 160.256C357.334 160.256 358.198 160.56 358.774 161.168C359.361 161.765 359.654 162.539 359.654 163.488V164.896H354.102C354.187 165.632 354.454 166.139 354.902 166.416C355.35 166.693 356.033 166.832 356.95 166.832C357.334 166.832 357.729 166.795 358.134 166.72C358.539 166.645 358.891 166.549 359.19 166.432V167.712C358.849 167.861 358.454 167.973 358.006 168.048C357.569 168.123 357.099 168.16 356.598 168.16ZM354.102 163.76H358.118V163.232C358.118 162.709 357.974 162.304 357.686 162.016C357.398 161.717 356.913 161.568 356.23 161.568C355.419 161.568 354.859 161.744 354.55 162.096C354.251 162.448 354.102 163.003 354.102 163.76ZM363.802 168.16C363.279 168.16 362.778 168.123 362.298 168.048C361.828 167.973 361.439 167.883 361.13 167.776V166.304C361.492 166.443 361.892 166.549 362.33 166.624C362.767 166.699 363.183 166.736 363.578 166.736C364.175 166.736 364.602 166.683 364.858 166.576C365.114 166.469 365.242 166.261 365.242 165.952C365.242 165.728 365.162 165.552 365.002 165.424C364.852 165.296 364.623 165.179 364.314 165.072C364.015 164.965 363.631 164.837 363.162 164.688C362.714 164.539 362.324 164.379 361.994 164.208C361.663 164.027 361.407 163.797 361.226 163.52C361.044 163.243 360.954 162.88 360.954 162.432C360.954 161.739 361.204 161.205 361.706 160.832C362.207 160.448 363.012 160.256 364.122 160.256C364.559 160.256 364.975 160.288 365.37 160.352C365.764 160.416 366.1 160.496 366.378 160.592V162.048C366.079 161.931 365.748 161.84 365.386 161.776C365.034 161.712 364.703 161.68 364.394 161.68C363.839 161.68 363.418 161.728 363.13 161.824C362.852 161.92 362.714 162.112 362.714 162.4C362.714 162.699 362.858 162.912 363.146 163.04C363.444 163.157 363.919 163.323 364.57 163.536C365.167 163.717 365.642 163.909 365.994 164.112C366.346 164.315 366.596 164.56 366.746 164.848C366.906 165.125 366.986 165.488 366.986 165.936C366.986 166.683 366.714 167.243 366.17 167.616C365.626 167.979 364.836 168.16 363.802 168.16ZM374.911 168.16C374.388 168.16 373.887 168.123 373.407 168.048C372.938 167.973 372.548 167.883 372.239 167.776V166.304C372.602 166.443 373.002 166.549 373.439 166.624C373.876 166.699 374.292 166.736 374.687 166.736C375.284 166.736 375.711 166.683 375.967 166.576C376.223 166.469 376.351 166.261 376.351 165.952C376.351 165.728 376.271 165.552 376.111 165.424C375.962 165.296 375.732 165.179 375.423 165.072C375.124 164.965 374.74 164.837 374.271 164.688C373.823 164.539 373.434 164.379 373.103 164.208C372.772 164.027 372.516 163.797 372.335 163.52C372.154 163.243 372.063 162.88 372.063 162.432C372.063 161.739 372.314 161.205 372.815 160.832C373.316 160.448 374.122 160.256 375.231 160.256C375.668 160.256 376.084 160.288 376.479 160.352C376.874 160.416 377.21 160.496 377.487 160.592V162.048C377.188 161.931 376.858 161.84 376.495 161.776C376.143 161.712 375.812 161.68 375.503 161.68C374.948 161.68 374.527 161.728 374.239 161.824C373.962 161.92 373.823 162.112 373.823 162.4C373.823 162.699 373.967 162.912 374.255 163.04C374.554 163.157 375.028 163.323 375.679 163.536C376.276 163.717 376.751 163.909 377.103 164.112C377.455 164.315 377.706 164.56 377.855 164.848C378.015 165.125 378.095 165.488 378.095 165.936C378.095 166.683 377.823 167.243 377.279 167.616C376.735 167.979 375.946 168.16 374.911 168.16ZM381.939 168.16C381.459 168.16 381.011 168.075 380.595 167.904C380.189 167.733 379.864 167.477 379.618 167.136C379.373 166.784 379.251 166.352 379.251 165.84C379.251 165.115 379.496 164.533 379.987 164.096C380.488 163.648 381.256 163.424 382.291 163.424H384.723V163.088C384.723 162.725 384.664 162.437 384.547 162.224C384.44 162.011 384.237 161.856 383.939 161.76C383.651 161.664 383.224 161.616 382.659 161.616C381.763 161.616 380.925 161.749 380.147 162.016V160.72C380.488 160.581 380.904 160.469 381.395 160.384C381.885 160.299 382.413 160.256 382.979 160.256C384.088 160.256 384.931 160.48 385.507 160.928C386.093 161.376 386.387 162.107 386.387 163.12V168H384.899L384.787 167.232C384.477 167.531 384.093 167.76 383.635 167.92C383.187 168.08 382.621 168.16 381.939 168.16ZM382.403 166.912C382.925 166.912 383.379 166.827 383.763 166.656C384.157 166.475 384.477 166.235 384.723 165.936V164.608H382.323C381.811 164.608 381.437 164.709 381.203 164.912C380.979 165.104 380.867 165.403 380.867 165.808C380.867 166.203 381 166.485 381.267 166.656C381.533 166.827 381.912 166.912 382.403 166.912ZM388.785 168V161.776H387.681V160.416H388.785V159.488C388.785 158.731 388.993 158.123 389.409 157.664C389.835 157.195 390.465 156.96 391.297 156.96C391.606 156.96 391.889 156.987 392.145 157.04C392.401 157.083 392.635 157.147 392.849 157.232V158.48C392.518 158.363 392.182 158.304 391.841 158.304C391.339 158.304 390.993 158.395 390.801 158.576C390.609 158.757 390.513 159.067 390.513 159.504V160.416H392.497L392.417 161.776H390.513V168H388.785ZM397.364 168.16C396.041 168.16 395.017 167.835 394.292 167.184C393.566 166.533 393.204 165.536 393.204 164.192C393.204 162.976 393.513 162.016 394.132 161.312C394.75 160.608 395.689 160.256 396.948 160.256C398.1 160.256 398.964 160.56 399.54 161.168C400.126 161.765 400.42 162.539 400.42 163.488V164.896H394.868C394.953 165.632 395.22 166.139 395.668 166.416C396.116 166.693 396.798 166.832 397.716 166.832C398.1 166.832 398.494 166.795 398.9 166.72C399.305 166.645 399.657 166.549 399.956 166.432V167.712C399.614 167.861 399.22 167.973 398.772 168.048C398.334 168.123 397.865 168.16 397.364 168.16ZM394.868 163.76H398.884V163.232C398.884 162.709 398.74 162.304 398.452 162.016C398.164 161.717 397.678 161.568 396.996 161.568C396.185 161.568 395.625 161.744 395.316 162.096C395.017 162.448 394.868 163.003 394.868 163.76ZM401.797 160.656L402.645 157.536H404.053L402.997 160.656H401.797ZM404.149 160.656L404.981 157.536H406.389L405.333 160.656H404.149Z" fill="white"/>
<defs>
<filter id="filter0_d_134_2" x="132" y="0" width="301" height="232" filterUnits="userSpaceOnUse" color-interpolation-filters="sRGB">
<feFlood flood-opacity="0" result="BackgroundImageFix"/>
<feColorMatrix in="SourceAlpha" type="matrix" values="0 0 0 0 0 0 0 0 0 0 0 0 0 0 0 0 0 0 127 0" result="hardAlpha"/>
<feOffset dx="4" dy="4"/>
<feGaussianBlur stdDeviation="2"/>
<feComposite in2="hardAlpha" operator="out"/>
<feColorMatrix type="matrix" values="0 0 0 0 0 0 0 0 0 0 0 0 0 0 0 0 0 0 0.25 0"/>
<feBlend mode="normal" in2="BackgroundImageFix" result="effect1_dropShadow_134_2"/>
<feBlend mode="normal" in="SourceGraphic" in2="effect1_dropShadow_134_2" result="shape"/>
</filter>
<filter id="filter1_d_134_2" x="0" y="39" width="217" height="61" filterUnits="userSpaceOnUse" color-interpolation-filters="sRGB">
<feFlood flood-opacity="0" result="BackgroundImageFix"/>
<feColorMatrix in="SourceAlpha" type="matrix" values="0 0 0 0 0 0 0 0 0 0 0 0 0 0 0 0 0 0 127 0" result="hardAlpha"/>
<feOffset dx="4" dy="4"/>
<feGaussianBlur stdDeviation="2"/>
<feComposite in2="hardAlpha" operator="out"/>
<feColorMatrix type="matrix" values="0 0 0 0 0 0 0 0 0 0 0 0 0 0 0 0 0 0 0.25 0"/>
<feBlend mode="normal" in2="BackgroundImageFix" result="effect1_dropShadow_134_2"/>
<feBlend mode="normal" in="SourceGraphic" in2="effect1_dropShadow_134_2" result="shape"/>
</filter>
<filter id="filter2_d_134_2" x="248" y="66" width="254" height="128" filterUnits="userSpaceOnUse" color-interpolation-filters="sRGB">
<feFlood flood-opacity="0" result="BackgroundImageFix"/>
<feColorMatrix in="SourceAlpha" type="matrix" values="0 0 0 0 0 0 0 0 0 0 0 0 0 0 0 0 0 0 127 0" result="hardAlpha"/>
<feOffset dx="4" dy="4"/>
<feGaussianBlur stdDeviation="2"/>
<feComposite in2="hardAlpha" operator="out"/>
<feColorMatrix type="matrix" values="0 0 0 0 0 0 0 0 0 0 0 0 0 0 0 0 0 0 0.25 0"/>
<feBlend mode="normal" in2="BackgroundImageFix" result="effect1_dropShadow_134_2"/>
<feBlend mode="normal" in="SourceGraphic" in2="effect1_dropShadow_134_2" result="shape"/>
</filter>
</defs>
</svg>
