<svg width="518" height="232" viewBox="0 0 518 232" fill="none" xmlns="http://www.w3.org/2000/svg">
<g filter="url(#filter0_d_158_2)">
<rect x="86" width="293" height="224" rx="10" fill="#714C99"/>
</g>
<path d="M274 0H369C374.523 0 379 4.47715 379 10V214C379 219.523 374.523 224 369 224H274V0Z" fill="#4C306A"/>
<g filter="url(#filter1_d_158_2)">
<rect y="24" width="246" height="152" rx="10" fill="#2B5BD7"/>
</g>
<path d="M14.688 46.656L15.744 43.536H16.944L16.096 46.656H14.688ZM17.04 46.656L18.096 43.536H19.28L18.448 46.656H17.04ZM24.1124 54.16C22.779 54.16 21.707 53.9893 20.8964 53.648V52.112C21.355 52.2827 21.8457 52.4213 22.3684 52.528C22.9017 52.6347 23.4297 52.688 23.9524 52.688C24.7737 52.688 25.387 52.592 25.7924 52.4C26.2084 52.208 26.4164 51.824 26.4164 51.248C26.4164 50.896 26.331 50.6133 26.1604 50.4C25.9897 50.1867 25.707 50.0053 25.3124 49.856C24.9177 49.696 24.3737 49.5307 23.6804 49.36C22.571 49.072 21.7924 48.7093 21.3444 48.272C20.8964 47.824 20.6724 47.2107 20.6724 46.432C20.6724 45.5253 21.003 44.816 21.6644 44.304C22.3257 43.792 23.3124 43.536 24.6244 43.536C25.2217 43.536 25.7817 43.5787 26.3044 43.664C26.8377 43.7493 27.2537 43.8453 27.5524 43.952V45.488C26.7417 45.1787 25.8457 45.024 24.8644 45.024C24.0964 45.024 23.499 45.1253 23.0724 45.328C22.6457 45.5307 22.4324 45.8987 22.4324 46.432C22.4324 46.7413 22.507 46.992 22.6564 47.184C22.8057 47.376 23.0617 47.5413 23.4244 47.68C23.7977 47.8187 24.3097 47.9733 24.9604 48.144C25.803 48.3573 26.4537 48.6133 26.9124 48.912C27.3817 49.2 27.707 49.5413 27.8884 49.936C28.0804 50.32 28.1764 50.7573 28.1764 51.248C28.1764 52.1547 27.8404 52.8693 27.1684 53.392C26.4964 53.904 25.4777 54.16 24.1124 54.16ZM33.4994 54.16C32.134 54.16 31.1314 53.8187 30.4914 53.136C29.862 52.4533 29.5474 51.4773 29.5474 50.208C29.5474 48.9387 29.8674 47.9627 30.5074 47.28C31.1474 46.5973 32.1447 46.256 33.4994 46.256C34.8647 46.256 35.8674 46.5973 36.5074 47.28C37.1474 47.9627 37.4674 48.9387 37.4674 50.208C37.4674 51.4773 37.1474 52.4533 36.5074 53.136C35.878 53.8187 34.8754 54.16 33.4994 54.16ZM33.4994 52.688C34.2994 52.688 34.8647 52.496 35.1954 52.112C35.5367 51.7173 35.7074 51.0827 35.7074 50.208C35.7074 49.3333 35.5367 48.704 35.1954 48.32C34.8647 47.936 34.2994 47.744 33.4994 47.744C32.71 47.744 32.1447 47.936 31.8034 48.32C31.4727 48.704 31.3074 49.3333 31.3074 50.208C31.3074 51.0827 31.4727 51.7173 31.8034 52.112C32.1447 52.496 32.71 52.688 33.4994 52.688ZM42.8923 54.16C41.5589 54.16 40.5509 53.824 39.8683 53.152C39.1856 52.4693 38.8443 51.488 38.8443 50.208C38.8443 48.8747 39.2176 47.8827 39.9643 47.232C40.7216 46.5813 41.7296 46.256 42.9883 46.256C43.5109 46.256 43.9483 46.2933 44.3003 46.368C44.6629 46.4427 45.0096 46.56 45.3403 46.72V48.016C44.7856 47.7387 44.1136 47.6 43.3243 47.6C42.4496 47.6 41.7776 47.7973 41.3083 48.192C40.8389 48.576 40.6043 49.248 40.6043 50.208C40.6043 51.1147 40.8123 51.7813 41.2283 52.208C41.6443 52.624 42.3323 52.832 43.2923 52.832C44.0496 52.832 44.7376 52.688 45.3563 52.4V53.728C45.0043 53.8667 44.6256 53.9733 44.2203 54.048C43.8256 54.1227 43.3829 54.16 42.8923 54.16ZM47.3824 44.832V43.392H49.2864V44.832H47.3824ZM47.5264 54V47.744H46.3744L46.5344 46.416H49.2704V54H47.5264ZM55.1449 54.16C53.8222 54.16 52.7982 53.8347 52.0729 53.184C51.3475 52.5333 50.9849 51.536 50.9849 50.192C50.9849 48.976 51.2942 48.016 51.9129 47.312C52.5315 46.608 53.4702 46.256 54.7289 46.256C55.8809 46.256 56.7449 46.56 57.3209 47.168C57.9075 47.7653 58.2009 48.5387 58.2009 49.488V50.896H52.6489C52.7342 51.632 53.0009 52.1387 53.4489 52.416C53.8969 52.6933 54.5795 52.832 55.4969 52.832C55.8809 52.832 56.2755 52.7947 56.6809 52.72C57.0862 52.6453 57.4382 52.5493 57.7369 52.432V53.712C57.3955 53.8613 57.0009 53.9733 56.5529 54.048C56.1155 54.1227 55.6462 54.16 55.1449 54.16ZM52.6489 49.76H56.6649V49.232C56.6649 48.7093 56.5209 48.304 56.2329 48.016C55.9449 47.7173 55.4595 47.568 54.7769 47.568C53.9662 47.568 53.4062 47.744 53.0969 48.096C52.7982 48.448 52.6489 49.0027 52.6489 49.76ZM62.7946 54.16C61.984 54.16 61.376 53.9467 60.9706 53.52C60.576 53.0827 60.3786 52.4907 60.3786 51.744V47.776H59.2586V46.416H60.3786V44.672L62.1066 44.144V46.416H64.1226L64.0106 47.776H62.1066V51.648C62.1066 52.0853 62.208 52.3947 62.4106 52.576C62.6133 52.7467 62.944 52.832 63.4026 52.832C63.6906 52.832 63.9946 52.7787 64.3146 52.672V53.904C63.8986 54.0747 63.392 54.16 62.7946 54.16ZM66.6419 56.816C66.0659 56.816 65.5752 56.7413 65.1699 56.592V55.296C65.3512 55.36 65.5165 55.4027 65.6659 55.424C65.8259 55.4453 65.9859 55.456 66.1459 55.456C66.4765 55.456 66.7432 55.4027 66.9459 55.296C67.1485 55.1893 67.3245 55.0187 67.4739 54.784C67.6339 54.56 67.8045 54.2667 67.9859 53.904L64.6099 46.416H66.4179L68.8499 52.048L71.3139 46.416H73.1059L70.0179 53.568C69.7512 54.208 69.4632 54.768 69.1539 55.248C68.8552 55.7387 68.5032 56.1227 68.0979 56.4C67.7032 56.6773 67.2179 56.816 66.6419 56.816ZM78.1799 54V46.416H79.7799L79.8759 47.296C80.2385 47.0613 80.6705 46.848 81.1719 46.656C81.6732 46.464 82.1692 46.3307 82.6599 46.256V47.584C82.3612 47.6373 82.0359 47.7173 81.6839 47.824C81.3425 47.92 81.0172 48.032 80.7079 48.16C80.3985 48.2773 80.1372 48.4 79.9239 48.528V54H78.1799ZM85.8135 54.16C85.3335 54.16 84.8855 54.0747 84.4695 53.904C84.0642 53.7333 83.7388 53.4773 83.4935 53.136C83.2482 52.784 83.1255 52.352 83.1255 51.84C83.1255 51.1147 83.3708 50.5333 83.8615 50.096C84.3628 49.648 85.1308 49.424 86.1655 49.424H88.5975V49.088C88.5975 48.7253 88.5388 48.4373 88.4215 48.224C88.3148 48.0107 88.1122 47.856 87.8135 47.76C87.5255 47.664 87.0988 47.616 86.5335 47.616C85.6375 47.616 84.8002 47.7493 84.0215 48.016V46.72C84.3628 46.5813 84.7788 46.4693 85.2695 46.384C85.7602 46.2987 86.2882 46.256 86.8535 46.256C87.9628 46.256 88.8055 46.48 89.3815 46.928C89.9682 47.376 90.2615 48.1067 90.2615 49.12V54H88.7735L88.6615 53.232C88.3522 53.5307 87.9682 53.76 87.5095 53.92C87.0615 54.08 86.4962 54.16 85.8135 54.16ZM86.2775 52.912C86.8002 52.912 87.2535 52.8267 87.6375 52.656C88.0322 52.4747 88.3522 52.2347 88.5975 51.936V50.608H86.1975C85.6855 50.608 85.3122 50.7093 85.0775 50.912C84.8535 51.104 84.7415 51.4027 84.7415 51.808C84.7415 52.2027 84.8748 52.4853 85.1415 52.656C85.4082 52.8267 85.7868 52.912 86.2775 52.912ZM92.8355 44.832V43.392H94.7395V44.832H92.8355ZM92.9795 54V47.744H91.8275L91.9875 46.416H94.7235V54H92.9795ZM99.286 54.16C98.7633 54.16 98.262 54.1227 97.782 54.048C97.3127 53.9733 96.9233 53.8827 96.614 53.776V52.304C96.9767 52.4427 97.3767 52.5493 97.814 52.624C98.2513 52.6987 98.6673 52.736 99.062 52.736C99.6593 52.736 100.086 52.6827 100.342 52.576C100.598 52.4693 100.726 52.2613 100.726 51.952C100.726 51.728 100.646 51.552 100.486 51.424C100.337 51.296 100.107 51.1787 99.798 51.072C99.4993 50.9653 99.1153 50.8373 98.646 50.688C98.198 50.5387 97.8087 50.3787 97.478 50.208C97.1473 50.0267 96.8913 49.7973 96.71 49.52C96.5287 49.2427 96.438 48.88 96.438 48.432C96.438 47.7387 96.6887 47.2053 97.19 46.832C97.6913 46.448 98.4967 46.256 99.606 46.256C100.043 46.256 100.459 46.288 100.854 46.352C101.249 46.416 101.585 46.496 101.862 46.592V48.048C101.563 47.9307 101.233 47.84 100.87 47.776C100.518 47.712 100.187 47.68 99.878 47.68C99.3233 47.68 98.902 47.728 98.614 47.824C98.3367 47.92 98.198 48.112 98.198 48.4C98.198 48.6987 98.342 48.912 98.63 49.04C98.9287 49.1573 99.4033 49.3227 100.054 49.536C100.651 49.7173 101.126 49.9093 101.478 50.112C101.83 50.3147 102.081 50.56 102.23 50.848C102.39 51.1253 102.47 51.488 102.47 51.936C102.47 52.6827 102.198 53.2427 101.654 53.616C101.11 53.9787 100.321 54.16 99.286 54.16ZM104.82 44.832V43.392H106.724V44.832H104.82ZM104.964 54V47.744H103.812L103.972 46.416H106.708V54H104.964ZM108.742 54V46.416H110.342L110.422 47.216C110.764 46.9493 111.169 46.7253 111.638 46.544C112.118 46.352 112.646 46.256 113.222 46.256C114.204 46.256 114.918 46.4853 115.366 46.944C115.814 47.4027 116.038 48.1173 116.038 49.088V54H114.31V49.168C114.31 48.5813 114.188 48.1707 113.942 47.936C113.708 47.7013 113.26 47.584 112.598 47.584C112.204 47.584 111.814 47.664 111.43 47.824C111.057 47.984 110.742 48.192 110.486 48.448V54H108.742ZM121.064 56.816C120.499 56.816 119.934 56.7787 119.368 56.704C118.803 56.64 118.323 56.5387 117.928 56.4V55.056C118.355 55.1947 118.846 55.3013 119.4 55.376C119.955 55.4507 120.483 55.488 120.984 55.488C121.752 55.488 122.312 55.4453 122.664 55.36C123.016 55.2747 123.192 55.0827 123.192 54.784C123.192 54.56 123.107 54.4 122.936 54.304C122.766 54.2187 122.44 54.176 121.96 54.176H119.912C118.536 54.176 117.848 53.6907 117.848 52.72C117.848 52.4107 117.939 52.1227 118.12 51.856C118.302 51.5893 118.59 51.3867 118.984 51.248C118.547 51.0347 118.222 50.7413 118.008 50.368C117.806 49.9947 117.704 49.5467 117.704 49.024C117.704 48.0533 117.992 47.3493 118.568 46.912C119.155 46.4747 120.03 46.256 121.192 46.256C121.438 46.256 121.694 46.2773 121.96 46.32C122.227 46.352 122.435 46.384 122.584 46.416H125.368L125.32 47.552H124.04C124.243 47.7227 124.392 47.936 124.488 48.192C124.584 48.448 124.632 48.7253 124.632 49.024C124.632 49.8347 124.387 50.4747 123.896 50.944C123.406 51.4027 122.664 51.632 121.672 51.632C121.502 51.632 121.342 51.6267 121.192 51.616C121.054 51.5947 120.899 51.5733 120.728 51.552C120.408 51.584 120.12 51.6693 119.864 51.808C119.608 51.9467 119.48 52.1333 119.48 52.368C119.48 52.528 119.544 52.6453 119.672 52.72C119.8 52.784 120.014 52.816 120.312 52.816H122.44C123.198 52.816 123.779 52.9813 124.184 53.312C124.6 53.632 124.808 54.1013 124.808 54.72C124.808 55.4667 124.483 56 123.832 56.32C123.192 56.6507 122.27 56.816 121.064 56.816ZM121.192 50.528C121.886 50.528 122.366 50.4107 122.632 50.176C122.91 49.9413 123.048 49.5413 123.048 48.976C123.048 48.4107 122.91 48 122.632 47.744C122.366 47.488 121.886 47.36 121.192 47.36C120.542 47.36 120.067 47.4827 119.768 47.728C119.47 47.9733 119.32 48.3893 119.32 48.976C119.32 49.52 119.459 49.9147 119.736 50.16C120.024 50.4053 120.51 50.528 121.192 50.528ZM133.675 54.16C132.993 54.16 132.39 54.0427 131.867 53.808C131.345 53.5733 130.939 53.184 130.651 52.64C130.363 52.096 130.219 51.3653 130.219 50.448C130.219 49.5413 130.374 48.7787 130.683 48.16C130.993 47.5307 131.419 47.056 131.963 46.736C132.518 46.416 133.142 46.256 133.835 46.256C134.294 46.256 134.699 46.3093 135.051 46.416C135.414 46.5227 135.761 46.688 136.091 46.912V43.216H137.835V54H136.347L136.235 53.248C135.894 53.5573 135.521 53.7867 135.115 53.936C134.71 54.0853 134.23 54.16 133.675 54.16ZM134.139 52.848C134.918 52.848 135.569 52.5813 136.091 52.048V48.256C135.59 47.808 134.961 47.584 134.203 47.584C133.467 47.584 132.913 47.8293 132.539 48.32C132.166 48.8107 131.979 49.5253 131.979 50.464C131.979 51.3707 132.15 51.9947 132.491 52.336C132.843 52.6773 133.393 52.848 134.139 52.848ZM142.142 54.16C141.662 54.16 141.214 54.0747 140.798 53.904C140.392 53.7333 140.067 53.4773 139.822 53.136C139.576 52.784 139.454 52.352 139.454 51.84C139.454 51.1147 139.699 50.5333 140.19 50.096C140.691 49.648 141.459 49.424 142.494 49.424H144.926V49.088C144.926 48.7253 144.867 48.4373 144.75 48.224C144.643 48.0107 144.44 47.856 144.142 47.76C143.854 47.664 143.427 47.616 142.862 47.616C141.966 47.616 141.128 47.7493 140.35 48.016V46.72C140.691 46.5813 141.107 46.4693 141.598 46.384C142.088 46.2987 142.616 46.256 143.182 46.256C144.291 46.256 145.134 46.48 145.71 46.928C146.296 47.376 146.59 48.1067 146.59 49.12V54H145.102L144.99 53.232C144.68 53.5307 144.296 53.76 143.838 53.92C143.39 54.08 142.824 54.16 142.142 54.16ZM142.606 52.912C143.128 52.912 143.582 52.8267 143.966 52.656C144.36 52.4747 144.68 52.2347 144.926 51.936V50.608H142.526C142.014 50.608 141.64 50.7093 141.406 50.912C141.182 51.104 141.07 51.4027 141.07 51.808C141.07 52.2027 141.203 52.4853 141.47 52.656C141.736 52.8267 142.115 52.912 142.606 52.912ZM149.517 56.816C148.941 56.816 148.45 56.7413 148.045 56.592V55.296C148.226 55.36 148.392 55.4027 148.541 55.424C148.701 55.4453 148.861 55.456 149.021 55.456C149.352 55.456 149.618 55.4027 149.821 55.296C150.024 55.1893 150.2 55.0187 150.349 54.784C150.509 54.56 150.68 54.2667 150.861 53.904L147.485 46.416H149.293L151.725 52.048L154.189 46.416H155.981L152.893 53.568C152.626 54.208 152.338 54.768 152.029 55.248C151.73 55.7387 151.378 56.1227 150.973 56.4C150.578 56.6773 150.093 56.816 149.517 56.816ZM163.951 54.16C163.14 54.16 162.532 53.9467 162.127 53.52C161.732 53.0827 161.535 52.4907 161.535 51.744V47.776H160.415V46.416H161.535V44.672L163.263 44.144V46.416H165.279L165.167 47.776H163.263V51.648C163.263 52.0853 163.364 52.3947 163.567 52.576C163.77 52.7467 164.1 52.832 164.559 52.832C164.847 52.832 165.151 52.7787 165.471 52.672V53.904C165.055 54.0747 164.548 54.16 163.951 54.16ZM170.437 54.16C169.072 54.16 168.069 53.8187 167.429 53.136C166.8 52.4533 166.485 51.4773 166.485 50.208C166.485 48.9387 166.805 47.9627 167.445 47.28C168.085 46.5973 169.082 46.256 170.437 46.256C171.802 46.256 172.805 46.5973 173.445 47.28C174.085 47.9627 174.405 48.9387 174.405 50.208C174.405 51.4773 174.085 52.4533 173.445 53.136C172.816 53.8187 171.813 54.16 170.437 54.16ZM170.437 52.688C171.237 52.688 171.802 52.496 172.133 52.112C172.474 51.7173 172.645 51.0827 172.645 50.208C172.645 49.3333 172.474 48.704 172.133 48.32C171.802 47.936 171.237 47.744 170.437 47.744C169.648 47.744 169.082 47.936 168.741 48.32C168.41 48.704 168.245 49.3333 168.245 50.208C168.245 51.0827 168.41 51.7173 168.741 52.112C169.082 52.496 169.648 52.688 170.437 52.688ZM183.949 54.16C183.395 54.16 182.915 54.0853 182.509 53.936C182.104 53.7867 181.731 53.5573 181.389 53.248L181.293 54H179.789V43.216H181.533V46.912C182.195 46.4747 182.989 46.256 183.917 46.256C184.995 46.256 185.843 46.5653 186.461 47.184C187.091 47.792 187.405 48.7787 187.405 50.144C187.405 51.52 187.096 52.5333 186.477 53.184C185.859 53.8347 185.016 54.16 183.949 54.16ZM183.485 52.848C184.275 52.848 184.829 52.624 185.149 52.176C185.48 51.728 185.645 51.0507 185.645 50.144C185.645 49.2053 185.469 48.544 185.117 48.16C184.765 47.776 184.211 47.584 183.453 47.584C182.664 47.584 182.024 47.8027 181.533 48.24V52.048C182.035 52.5813 182.685 52.848 183.485 52.848ZM192.942 54.16C191.619 54.16 190.595 53.8347 189.87 53.184C189.144 52.5333 188.782 51.536 188.782 50.192C188.782 48.976 189.091 48.016 189.71 47.312C190.328 46.608 191.267 46.256 192.526 46.256C193.678 46.256 194.542 46.56 195.118 47.168C195.704 47.7653 195.998 48.5387 195.998 49.488V50.896H190.446C190.531 51.632 190.798 52.1387 191.246 52.416C191.694 52.6933 192.376 52.832 193.294 52.832C193.678 52.832 194.072 52.7947 194.478 52.72C194.883 52.6453 195.235 52.5493 195.534 52.432V53.712C195.192 53.8613 194.798 53.9733 194.35 54.048C193.912 54.1227 193.443 54.16 192.942 54.16ZM190.446 49.76H194.462V49.232C194.462 48.7093 194.318 48.304 194.03 48.016C193.742 47.7173 193.256 47.568 192.574 47.568C191.763 47.568 191.203 47.744 190.894 48.096C190.595 48.448 190.446 49.0027 190.446 49.76ZM18.64 78.16C17.2747 78.16 16.272 77.8187 15.632 77.136C15.0027 76.4533 14.688 75.4773 14.688 74.208C14.688 72.9387 15.008 71.9627 15.648 71.28C16.288 70.5973 17.2853 70.256 18.64 70.256C20.0053 70.256 21.008 70.5973 21.648 71.28C22.288 71.9627 22.608 72.9387 22.608 74.208C22.608 75.4773 22.288 76.4533 21.648 77.136C21.0187 77.8187 20.016 78.16 18.64 78.16ZM18.64 76.688C19.44 76.688 20.0053 76.496 20.336 76.112C20.6773 75.7173 20.848 75.0827 20.848 74.208C20.848 73.3333 20.6773 72.704 20.336 72.32C20.0053 71.936 19.44 71.744 18.64 71.744C17.8507 71.744 17.2853 71.936 16.944 72.32C16.6133 72.704 16.448 73.3333 16.448 74.208C16.448 75.0827 16.6133 75.7173 16.944 76.112C17.2853 76.496 17.8507 76.688 18.64 76.688ZM24.3049 78V70.416H25.9049L26.0009 71.296C26.3635 71.0613 26.7955 70.848 27.2969 70.656C27.7982 70.464 28.2942 70.3307 28.7849 70.256V71.584C28.4862 71.6373 28.1609 71.7173 27.8089 71.824C27.4675 71.92 27.1422 72.032 26.8329 72.16C26.5235 72.2773 26.2622 72.4 26.0489 72.528V78H24.3049ZM33.1269 80.816C32.5615 80.816 31.9962 80.7787 31.4309 80.704C30.8655 80.64 30.3855 80.5387 29.9909 80.4V79.056C30.4175 79.1947 30.9082 79.3013 31.4629 79.376C32.0175 79.4507 32.5455 79.488 33.0469 79.488C33.8149 79.488 34.3749 79.4453 34.7269 79.36C35.0789 79.2747 35.2549 79.0827 35.2549 78.784C35.2549 78.56 35.1695 78.4 34.9989 78.304C34.8282 78.2187 34.5029 78.176 34.0229 78.176H31.9749C30.5989 78.176 29.9109 77.6907 29.9109 76.72C29.9109 76.4107 30.0015 76.1227 30.1829 75.856C30.3642 75.5893 30.6522 75.3867 31.0469 75.248C30.6095 75.0347 30.2842 74.7413 30.0709 74.368C29.8682 73.9947 29.7669 73.5467 29.7669 73.024C29.7669 72.0533 30.0549 71.3493 30.6309 70.912C31.2175 70.4747 32.0922 70.256 33.2549 70.256C33.5002 70.256 33.7562 70.2773 34.0229 70.32C34.2895 70.352 34.4975 70.384 34.6469 70.416H37.4309L37.3829 71.552H36.1029C36.3055 71.7227 36.4549 71.936 36.5509 72.192C36.6469 72.448 36.6949 72.7253 36.6949 73.024C36.6949 73.8347 36.4495 74.4747 35.9589 74.944C35.4682 75.4027 34.7269 75.632 33.7349 75.632C33.5642 75.632 33.4042 75.6267 33.2549 75.616C33.1162 75.5947 32.9615 75.5733 32.7909 75.552C32.4709 75.584 32.1829 75.6693 31.9269 75.808C31.6709 75.9467 31.5429 76.1333 31.5429 76.368C31.5429 76.528 31.6069 76.6453 31.7349 76.72C31.8629 76.784 32.0762 76.816 32.3749 76.816H34.5029C35.2602 76.816 35.8415 76.9813 36.2469 77.312C36.6629 77.632 36.8709 78.1013 36.8709 78.72C36.8709 79.4667 36.5455 80 35.8949 80.32C35.2549 80.6507 34.3322 80.816 33.1269 80.816ZM33.2549 74.528C33.9482 74.528 34.4282 74.4107 34.6949 74.176C34.9722 73.9413 35.1109 73.5413 35.1109 72.976C35.1109 72.4107 34.9722 72 34.6949 71.744C34.4282 71.488 33.9482 71.36 33.2549 71.36C32.6042 71.36 32.1295 71.4827 31.8309 71.728C31.5322 71.9733 31.3829 72.3893 31.3829 72.976C31.3829 73.52 31.5215 73.9147 31.7989 74.16C32.0869 74.4053 32.5722 74.528 33.2549 74.528ZM40.6416 78.16C40.1616 78.16 39.7136 78.0747 39.2976 77.904C38.8923 77.7333 38.567 77.4773 38.3216 77.136C38.0763 76.784 37.9536 76.352 37.9536 75.84C37.9536 75.1147 38.199 74.5333 38.6896 74.096C39.191 73.648 39.959 73.424 40.9936 73.424H43.4256V73.088C43.4256 72.7253 43.367 72.4373 43.2496 72.224C43.143 72.0107 42.9403 71.856 42.6416 71.76C42.3536 71.664 41.927 71.616 41.3616 71.616C40.4656 71.616 39.6283 71.7493 38.8496 72.016V70.72C39.191 70.5813 39.607 70.4693 40.0976 70.384C40.5883 70.2987 41.1163 70.256 41.6816 70.256C42.791 70.256 43.6336 70.48 44.2096 70.928C44.7963 71.376 45.0896 72.1067 45.0896 73.12V78H43.6016L43.4896 77.232C43.1803 77.5307 42.7963 77.76 42.3376 77.92C41.8896 78.08 41.3243 78.16 40.6416 78.16ZM41.1056 76.912C41.6283 76.912 42.0816 76.8267 42.4656 76.656C42.8603 76.4747 43.1803 76.2347 43.4256 75.936V74.608H41.0256C40.5136 74.608 40.1403 74.7093 39.9056 74.912C39.6816 75.104 39.5696 75.4027 39.5696 75.808C39.5696 76.2027 39.703 76.4853 39.9696 76.656C40.2363 76.8267 40.615 76.912 41.1056 76.912ZM47.0236 78V70.416H48.6236L48.7036 71.216C49.045 70.9493 49.4503 70.7253 49.9196 70.544C50.3996 70.352 50.9276 70.256 51.5036 70.256C52.485 70.256 53.1996 70.4853 53.6476 70.944C54.0956 71.4027 54.3196 72.1173 54.3196 73.088V78H52.5916V73.168C52.5916 72.5813 52.469 72.1707 52.2236 71.936C51.989 71.7013 51.541 71.584 50.8796 71.584C50.485 71.584 50.0956 71.664 49.7116 71.824C49.3383 71.984 49.0236 72.192 48.7676 72.448V78H47.0236ZM56.9136 68.832V67.392H58.8176V68.832H56.9136ZM57.0576 78V71.744H55.9056L56.0656 70.416H58.8016V78H57.0576ZM60.5161 78V77.088L64.6601 71.84H60.7081V70.416H66.8041V71.488L62.7401 76.656H66.9161V78H60.5161ZM72.1605 78.16C70.8378 78.16 69.8138 77.8347 69.0885 77.184C68.3632 76.5333 68.0005 75.536 68.0005 74.192C68.0005 72.976 68.3098 72.016 68.9285 71.312C69.5472 70.608 70.4858 70.256 71.7445 70.256C72.8965 70.256 73.7605 70.56 74.3365 71.168C74.9232 71.7653 75.2165 72.5387 75.2165 73.488V74.896H69.6645C69.7498 75.632 70.0165 76.1387 70.4645 76.416C70.9125 76.6933 71.5952 76.832 72.5125 76.832C72.8965 76.832 73.2912 76.7947 73.6965 76.72C74.1018 76.6453 74.4538 76.5493 74.7525 76.432V77.712C74.4112 77.8613 74.0165 77.9733 73.5685 78.048C73.1312 78.1227 72.6618 78.16 72.1605 78.16ZM69.6645 73.76H73.6805V73.232C73.6805 72.7093 73.5365 72.304 73.2485 72.016C72.9605 71.7173 72.4752 71.568 71.7925 71.568C70.9818 71.568 70.4218 71.744 70.1125 72.096C69.8138 72.448 69.6645 73.0027 69.6645 73.76ZM80.0503 78.16C79.3676 78.16 78.7649 78.0427 78.2423 77.808C77.7196 77.5733 77.3143 77.184 77.0263 76.64C76.7383 76.096 76.5943 75.3653 76.5943 74.448C76.5943 73.5413 76.7489 72.7787 77.0583 72.16C77.3676 71.5307 77.7943 71.056 78.3383 70.736C78.8929 70.416 79.5169 70.256 80.2103 70.256C80.6689 70.256 81.0743 70.3093 81.4263 70.416C81.7889 70.5227 82.1356 70.688 82.4663 70.912V67.216H84.2103V78H82.7223L82.6103 77.248C82.2689 77.5573 81.8956 77.7867 81.4903 77.936C81.0849 78.0853 80.6049 78.16 80.0503 78.16ZM80.5143 76.848C81.2929 76.848 81.9436 76.5813 82.4663 76.048V72.256C81.9649 71.808 81.3356 71.584 80.5783 71.584C79.8423 71.584 79.2876 71.8293 78.9143 72.32C78.5409 72.8107 78.3543 73.5253 78.3543 74.464C78.3543 75.3707 78.5249 75.9947 78.8663 76.336C79.2183 76.6773 79.7676 76.848 80.5143 76.848ZM93.5463 78.16C92.1809 78.16 91.1783 77.8187 90.5383 77.136C89.9089 76.4533 89.5943 75.4773 89.5943 74.208C89.5943 72.9387 89.9143 71.9627 90.5543 71.28C91.1943 70.5973 92.1916 70.256 93.5463 70.256C94.9116 70.256 95.9143 70.5973 96.5543 71.28C97.1943 71.9627 97.5143 72.9387 97.5143 74.208C97.5143 75.4773 97.1943 76.4533 96.5543 77.136C95.9249 77.8187 94.9223 78.16 93.5463 78.16ZM93.5463 76.688C94.3463 76.688 94.9116 76.496 95.2423 76.112C95.5836 75.7173 95.7543 75.0827 95.7543 74.208C95.7543 73.3333 95.5836 72.704 95.2423 72.32C94.9116 71.936 94.3463 71.744 93.5463 71.744C92.7569 71.744 92.1916 71.936 91.8503 72.32C91.5196 72.704 91.3543 73.3333 91.3543 74.208C91.3543 75.0827 91.5196 75.7173 91.8503 76.112C92.1916 76.496 92.7569 76.688 93.5463 76.688ZM99.2111 78V70.416H100.811L100.891 71.216C101.232 70.9493 101.638 70.7253 102.107 70.544C102.587 70.352 103.115 70.256 103.691 70.256C104.672 70.256 105.387 70.4853 105.835 70.944C106.283 71.4027 106.507 72.1173 106.507 73.088V78H104.779V73.168C104.779 72.5813 104.656 72.1707 104.411 71.936C104.176 71.7013 103.728 71.584 103.067 71.584C102.672 71.584 102.283 71.664 101.899 71.824C101.526 71.984 101.211 72.192 100.955 72.448V78H99.2111ZM111.829 78V77.136C112.106 76.4853 112.49 75.8987 112.981 75.376C113.482 74.8533 114.015 74.3467 114.581 73.856C115.007 73.4827 115.359 73.168 115.637 72.912C115.925 72.6453 116.149 72.4053 116.309 72.192C116.469 71.9787 116.581 71.76 116.645 71.536C116.709 71.3013 116.741 71.0293 116.741 70.72C116.741 70.1653 116.581 69.744 116.261 69.456C115.941 69.168 115.407 69.024 114.661 69.024C114.255 69.024 113.839 69.0667 113.413 69.152C112.997 69.2373 112.597 69.3547 112.213 69.504V67.968C112.586 67.84 113.029 67.7387 113.541 67.664C114.053 67.5787 114.538 67.536 114.997 67.536C116.149 67.536 117.018 67.8187 117.605 68.384C118.191 68.9493 118.485 69.7227 118.485 70.704C118.485 71.1947 118.399 71.632 118.229 72.016C118.058 72.3893 117.823 72.7467 117.525 73.088C117.226 73.4187 116.879 73.76 116.485 74.112C115.994 74.5387 115.53 74.9547 115.093 75.36C114.666 75.7547 114.319 76.1867 114.053 76.656H118.597V78H111.829ZM124.001 78.16C121.313 78.16 119.969 77.1787 119.969 75.216C119.969 74.6293 120.124 74.1067 120.433 73.648C120.753 73.1893 121.207 72.864 121.793 72.672C121.26 72.4693 120.871 72.1707 120.625 71.776C120.38 71.3707 120.257 70.9387 120.257 70.48C120.257 69.5947 120.561 68.8853 121.169 68.352C121.788 67.808 122.732 67.536 124.001 67.536C125.303 67.536 126.252 67.808 126.849 68.352C127.447 68.8853 127.745 69.5947 127.745 70.48C127.745 70.9707 127.623 71.4293 127.377 71.856C127.143 72.272 126.727 72.592 126.129 72.816C126.791 73.008 127.271 73.3067 127.569 73.712C127.868 74.1067 128.017 74.608 128.017 75.216C128.017 77.1787 126.679 78.16 124.001 78.16ZM124.433 72.272C125.02 72.1227 125.447 71.92 125.713 71.664C125.991 71.408 126.129 71.024 126.129 70.512C126.129 69.4453 125.42 68.912 124.001 68.912C123.308 68.912 122.78 69.04 122.417 69.296C122.055 69.552 121.873 69.9573 121.873 70.512C121.873 71.3547 122.348 71.8667 123.297 72.048L124.433 72.272ZM124.001 76.8C124.801 76.8 125.399 76.672 125.793 76.416C126.199 76.1493 126.401 75.7387 126.401 75.184C126.401 74.6827 126.257 74.32 125.969 74.096C125.692 73.8613 125.26 73.6853 124.673 73.568L123.361 73.296C122.817 73.4133 122.385 73.6107 122.065 73.888C121.745 74.1547 121.585 74.576 121.585 75.152C121.585 75.728 121.788 76.1493 122.193 76.416C122.609 76.672 123.212 76.8 124.001 76.8ZM132.623 78.16C131.812 78.16 131.204 77.9467 130.799 77.52C130.404 77.0827 130.207 76.4907 130.207 75.744V71.776H129.087V70.416H130.207V68.672L131.935 68.144V70.416H133.951L133.839 71.776H131.935V75.648C131.935 76.0853 132.036 76.3947 132.239 76.576C132.441 76.7467 132.772 76.832 133.231 76.832C133.519 76.832 133.823 76.7787 134.143 76.672V77.904C133.727 78.0747 133.22 78.16 132.623 78.16ZM135.477 78V67.216H137.221V71.152C137.551 70.8853 137.946 70.672 138.405 70.512C138.863 70.3413 139.381 70.256 139.957 70.256C140.917 70.256 141.626 70.4853 142.085 70.944C142.543 71.4027 142.773 72.1173 142.773 73.088V78H141.045V73.168C141.045 72.5813 140.917 72.1707 140.661 71.936C140.415 71.7013 139.983 71.584 139.365 71.584C138.981 71.584 138.591 71.6693 138.197 71.84C137.802 72 137.477 72.2133 137.221 72.48V78H135.477ZM152.046 78.16C150.681 78.16 149.678 77.8187 149.038 77.136C148.409 76.4533 148.094 75.4773 148.094 74.208C148.094 72.9387 148.414 71.9627 149.054 71.28C149.694 70.5973 150.692 70.256 152.046 70.256C153.412 70.256 154.414 70.5973 155.054 71.28C155.694 71.9627 156.014 72.9387 156.014 74.208C156.014 75.4773 155.694 76.4533 155.054 77.136C154.425 77.8187 153.422 78.16 152.046 78.16ZM152.046 76.688C152.846 76.688 153.412 76.496 153.742 76.112C154.084 75.7173 154.254 75.0827 154.254 74.208C154.254 73.3333 154.084 72.704 153.742 72.32C153.412 71.936 152.846 71.744 152.046 71.744C151.257 71.744 150.692 71.936 150.35 72.32C150.02 72.704 149.854 73.3333 149.854 74.208C149.854 75.0827 150.02 75.7173 150.35 76.112C150.692 76.496 151.257 76.688 152.046 76.688ZM158.175 78V71.776H157.071V70.416H158.175V69.488C158.175 68.7307 158.383 68.1227 158.799 67.664C159.226 67.1947 159.855 66.96 160.687 66.96C160.996 66.96 161.279 66.9867 161.535 67.04C161.791 67.0827 162.026 67.1467 162.239 67.232V68.48C161.908 68.3627 161.572 68.304 161.231 68.304C160.73 68.304 160.383 68.3947 160.191 68.576C159.999 68.7573 159.903 69.0667 159.903 69.504V70.416H161.887L161.807 71.776H159.903V78H158.175ZM166.86 78L170.796 67.696H172.748L176.652 78H174.86L173.836 75.344H169.692L168.668 78H166.86ZM169.964 74H173.548L171.756 69.28L169.964 74ZM180.541 78.16C179.634 78.16 178.936 77.9093 178.445 77.408C177.965 76.9067 177.725 76.1707 177.725 75.2V70.416H179.469V75.2C179.469 75.7653 179.608 76.1813 179.885 76.448C180.162 76.7147 180.589 76.848 181.165 76.848C181.592 76.848 181.986 76.768 182.349 76.608C182.712 76.448 183.026 76.2347 183.293 75.968V70.416H185.021V78H183.437L183.357 77.216C183.016 77.4827 182.61 77.7067 182.141 77.888C181.672 78.0693 181.138 78.16 180.541 78.16ZM190.127 80.816C189.562 80.816 188.996 80.7787 188.431 80.704C187.866 80.64 187.386 80.5387 186.991 80.4V79.056C187.418 79.1947 187.908 79.3013 188.463 79.376C189.018 79.4507 189.546 79.488 190.047 79.488C190.815 79.488 191.375 79.4453 191.727 79.36C192.079 79.2747 192.255 79.0827 192.255 78.784C192.255 78.56 192.17 78.4 191.999 78.304C191.828 78.2187 191.503 78.176 191.023 78.176H188.975C187.599 78.176 186.911 77.6907 186.911 76.72C186.911 76.4107 187.002 76.1227 187.183 75.856C187.364 75.5893 187.652 75.3867 188.047 75.248C187.61 75.0347 187.284 74.7413 187.071 74.368C186.868 73.9947 186.767 73.5467 186.767 73.024C186.767 72.0533 187.055 71.3493 187.631 70.912C188.218 70.4747 189.092 70.256 190.255 70.256C190.5 70.256 190.756 70.2773 191.023 70.32C191.29 70.352 191.498 70.384 191.647 70.416H194.431L194.383 71.552H193.103C193.306 71.7227 193.455 71.936 193.551 72.192C193.647 72.448 193.695 72.7253 193.695 73.024C193.695 73.8347 193.45 74.4747 192.959 74.944C192.468 75.4027 191.727 75.632 190.735 75.632C190.564 75.632 190.404 75.6267 190.255 75.616C190.116 75.5947 189.962 75.5733 189.791 75.552C189.471 75.584 189.183 75.6693 188.927 75.808C188.671 75.9467 188.543 76.1333 188.543 76.368C188.543 76.528 188.607 76.6453 188.735 76.72C188.863 76.784 189.076 76.816 189.375 76.816H191.503C192.26 76.816 192.842 76.9813 193.247 77.312C193.663 77.632 193.871 78.1013 193.871 78.72C193.871 79.4667 193.546 80 192.895 80.32C192.255 80.6507 191.332 80.816 190.127 80.816ZM190.255 74.528C190.948 74.528 191.428 74.4107 191.695 74.176C191.972 73.9413 192.111 73.5413 192.111 72.976C192.111 72.4107 191.972 72 191.695 71.744C191.428 71.488 190.948 71.36 190.255 71.36C189.604 71.36 189.13 71.4827 188.831 71.728C188.532 71.9733 188.383 72.3893 188.383 72.976C188.383 73.52 188.522 73.9147 188.799 74.16C189.087 74.4053 189.572 74.528 190.255 74.528ZM198.65 78.16C197.744 78.16 197.045 77.9093 196.554 77.408C196.074 76.9067 195.834 76.1707 195.834 75.2V70.416H197.578V75.2C197.578 75.7653 197.717 76.1813 197.994 76.448C198.272 76.7147 198.698 76.848 199.274 76.848C199.701 76.848 200.096 76.768 200.458 76.608C200.821 76.448 201.136 76.2347 201.402 75.968V70.416H203.13V78H201.546L201.466 77.216C201.125 77.4827 200.72 77.7067 200.25 77.888C199.781 78.0693 199.248 78.16 198.65 78.16ZM207.692 78.16C207.17 78.16 206.668 78.1227 206.188 78.048C205.719 77.9733 205.33 77.8827 205.02 77.776V76.304C205.383 76.4427 205.783 76.5493 206.22 76.624C206.658 76.6987 207.074 76.736 207.468 76.736C208.066 76.736 208.492 76.6827 208.748 76.576C209.004 76.4693 209.132 76.2613 209.132 75.952C209.132 75.728 209.052 75.552 208.892 75.424C208.743 75.296 208.514 75.1787 208.204 75.072C207.906 74.9653 207.522 74.8373 207.052 74.688C206.604 74.5387 206.215 74.3787 205.884 74.208C205.554 74.0267 205.298 73.7973 205.116 73.52C204.935 73.2427 204.844 72.88 204.844 72.432C204.844 71.7387 205.095 71.2053 205.596 70.832C206.098 70.448 206.903 70.256 208.012 70.256C208.45 70.256 208.866 70.288 209.26 70.352C209.655 70.416 209.991 70.496 210.268 70.592V72.048C209.97 71.9307 209.639 71.84 209.276 71.776C208.924 71.712 208.594 71.68 208.284 71.68C207.73 71.68 207.308 71.728 207.02 71.824C206.743 71.92 206.604 72.112 206.604 72.4C206.604 72.6987 206.748 72.912 207.036 73.04C207.335 73.1573 207.81 73.3227 208.46 73.536C209.058 73.7173 209.532 73.9093 209.884 74.112C210.236 74.3147 210.487 74.56 210.636 74.848C210.796 75.1253 210.876 75.488 210.876 75.936C210.876 76.6827 210.604 77.2427 210.06 77.616C209.516 77.9787 208.727 78.16 207.692 78.16ZM215.248 78.16C214.437 78.16 213.829 77.9467 213.424 77.52C213.029 77.0827 212.832 76.4907 212.832 75.744V71.776H211.712V70.416H212.832V68.672L214.56 68.144V70.416H216.576L216.464 71.776H214.56V75.648C214.56 76.0853 214.661 76.3947 214.864 76.576C215.066 76.7467 215.397 76.832 215.856 76.832C216.144 76.832 216.448 76.7787 216.768 76.672V77.904C216.352 78.0747 215.845 78.16 215.248 78.16ZM217.782 70.656L218.838 67.536H220.038L219.19 70.656H217.782ZM220.134 70.656L221.19 67.536H222.374L221.542 70.656H220.134ZM18.64 126L14.704 115.696H16.512L19.6 124.128L22.688 115.696H24.496L20.592 126H18.64ZM28.6136 126.16C27.291 126.16 26.267 125.835 25.5416 125.184C24.8163 124.533 24.4536 123.536 24.4536 122.192C24.4536 120.976 24.763 120.016 25.3816 119.312C26.0003 118.608 26.939 118.256 28.1976 118.256C29.3496 118.256 30.2136 118.56 30.7896 119.168C31.3763 119.765 31.6696 120.539 31.6696 121.488V122.896H26.1176C26.203 123.632 26.4696 124.139 26.9176 124.416C27.3656 124.693 28.0483 124.832 28.9656 124.832C29.3496 124.832 29.7443 124.795 30.1496 124.72C30.555 124.645 30.907 124.549 31.2056 124.432V125.712C30.8643 125.861 30.4696 125.973 30.0216 126.048C29.5843 126.123 29.115 126.16 28.6136 126.16ZM26.1176 121.76H30.1336V121.232C30.1336 120.709 29.9896 120.304 29.7016 120.016C29.4136 119.717 28.9283 119.568 28.2456 119.568C27.435 119.568 26.875 119.744 26.5656 120.096C26.267 120.448 26.1176 121.003 26.1176 121.76ZM33.3674 126V118.416H34.9674L35.0474 119.216C35.3887 118.949 35.794 118.725 36.2634 118.544C36.7434 118.352 37.2714 118.256 37.8474 118.256C38.8287 118.256 39.5434 118.485 39.9914 118.944C40.4394 119.403 40.6634 120.117 40.6634 121.088V126H38.9354V121.168C38.9354 120.581 38.8127 120.171 38.5674 119.936C38.3327 119.701 37.8847 119.584 37.2234 119.584C36.8287 119.584 36.4394 119.664 36.0554 119.824C35.682 119.984 35.3674 120.192 35.1114 120.448V126H33.3674ZM45.3534 126.16C44.4467 126.16 43.748 125.909 43.2574 125.408C42.7774 124.907 42.5374 124.171 42.5374 123.2V118.416H44.2814V123.2C44.2814 123.765 44.42 124.181 44.6974 124.448C44.9747 124.715 45.4014 124.848 45.9774 124.848C46.404 124.848 46.7987 124.768 47.1614 124.608C47.524 124.448 47.8387 124.235 48.1054 123.968V118.416H49.8334V126H48.2494L48.1694 125.216C47.828 125.483 47.4227 125.707 46.9534 125.888C46.484 126.069 45.9507 126.16 45.3534 126.16ZM55.7074 126.16C54.3847 126.16 53.3607 125.835 52.6354 125.184C51.91 124.533 51.5474 123.536 51.5474 122.192C51.5474 120.976 51.8567 120.016 52.4754 119.312C53.094 118.608 54.0327 118.256 55.2914 118.256C56.4434 118.256 57.3074 118.56 57.8834 119.168C58.47 119.765 58.7634 120.539 58.7634 121.488V122.896H53.2114C53.2967 123.632 53.5634 124.139 54.0114 124.416C54.4594 124.693 55.142 124.832 56.0594 124.832C56.4434 124.832 56.838 124.795 57.2434 124.72C57.6487 124.645 58.0007 124.549 58.2994 124.432V125.712C57.958 125.861 57.5634 125.973 57.1154 126.048C56.678 126.123 56.2087 126.16 55.7074 126.16ZM53.2114 121.76H57.2274V121.232C57.2274 120.709 57.0834 120.304 56.7954 120.016C56.5074 119.717 56.022 119.568 55.3394 119.568C54.5287 119.568 53.9687 119.744 53.6594 120.096C53.3607 120.448 53.2114 121.003 53.2114 121.76ZM63.8286 122.368V121.008H69.9406V122.368H63.8286ZM78.4405 126.16C77.1072 126.16 76.0352 125.989 75.2245 125.648V124.112C75.6832 124.283 76.1738 124.421 76.6965 124.528C77.2298 124.635 77.7578 124.688 78.2805 124.688C79.1018 124.688 79.7152 124.592 80.1205 124.4C80.5365 124.208 80.7445 123.824 80.7445 123.248C80.7445 122.896 80.6592 122.613 80.4885 122.4C80.3178 122.187 80.0352 122.005 79.6405 121.856C79.2458 121.696 78.7018 121.531 78.0085 121.36C76.8992 121.072 76.1205 120.709 75.6725 120.272C75.2245 119.824 75.0005 119.211 75.0005 118.432C75.0005 117.525 75.3312 116.816 75.9925 116.304C76.6538 115.792 77.6405 115.536 78.9525 115.536C79.5498 115.536 80.1098 115.579 80.6325 115.664C81.1658 115.749 81.5818 115.845 81.8805 115.952V117.488C81.0698 117.179 80.1738 117.024 79.1925 117.024C78.4245 117.024 77.8272 117.125 77.4005 117.328C76.9738 117.531 76.7605 117.899 76.7605 118.432C76.7605 118.741 76.8352 118.992 76.9845 119.184C77.1338 119.376 77.3898 119.541 77.7525 119.68C78.1258 119.819 78.6378 119.973 79.2885 120.144C80.1312 120.357 80.7818 120.613 81.2405 120.912C81.7098 121.2 82.0352 121.541 82.2165 121.936C82.4085 122.32 82.5045 122.757 82.5045 123.248C82.5045 124.155 82.1685 124.869 81.4965 125.392C80.8245 125.904 79.8058 126.16 78.4405 126.16ZM87.8275 126.16C86.4622 126.16 85.4595 125.819 84.8195 125.136C84.1902 124.453 83.8755 123.477 83.8755 122.208C83.8755 120.939 84.1955 119.963 84.8355 119.28C85.4755 118.597 86.4728 118.256 87.8275 118.256C89.1928 118.256 90.1955 118.597 90.8355 119.28C91.4755 119.963 91.7955 120.939 91.7955 122.208C91.7955 123.477 91.4755 124.453 90.8355 125.136C90.2062 125.819 89.2035 126.16 87.8275 126.16ZM87.8275 124.688C88.6275 124.688 89.1928 124.496 89.5235 124.112C89.8648 123.717 90.0355 123.083 90.0355 122.208C90.0355 121.333 89.8648 120.704 89.5235 120.32C89.1928 119.936 88.6275 119.744 87.8275 119.744C87.0382 119.744 86.4728 119.936 86.1315 120.32C85.8008 120.704 85.6355 121.333 85.6355 122.208C85.6355 123.083 85.8008 123.717 86.1315 124.112C86.4728 124.496 87.0382 124.688 87.8275 124.688ZM97.2204 126.16C95.887 126.16 94.879 125.824 94.1964 125.152C93.5137 124.469 93.1724 123.488 93.1724 122.208C93.1724 120.875 93.5457 119.883 94.2924 119.232C95.0497 118.581 96.0577 118.256 97.3164 118.256C97.839 118.256 98.2764 118.293 98.6284 118.368C98.991 118.443 99.3377 118.56 99.6684 118.72V120.016C99.1137 119.739 98.4417 119.6 97.6524 119.6C96.7777 119.6 96.1057 119.797 95.6364 120.192C95.167 120.576 94.9324 121.248 94.9324 122.208C94.9324 123.115 95.1404 123.781 95.5564 124.208C95.9724 124.624 96.6604 124.832 97.6204 124.832C98.3777 124.832 99.0657 124.688 99.6844 124.4V125.728C99.3324 125.867 98.9537 125.973 98.5484 126.048C98.1537 126.123 97.711 126.16 97.2204 126.16ZM101.711 116.832V115.392H103.615V116.832H101.711ZM101.855 126V119.744H100.703L100.863 118.416H103.599V126H101.855ZM109.473 126.16C108.15 126.16 107.126 125.835 106.401 125.184C105.676 124.533 105.313 123.536 105.313 122.192C105.313 120.976 105.622 120.016 106.241 119.312C106.86 118.608 107.798 118.256 109.057 118.256C110.209 118.256 111.073 118.56 111.649 119.168C112.236 119.765 112.529 120.539 112.529 121.488V122.896H106.977C107.062 123.632 107.329 124.139 107.777 124.416C108.225 124.693 108.908 124.832 109.825 124.832C110.209 124.832 110.604 124.795 111.009 124.72C111.414 124.645 111.766 124.549 112.065 124.432V125.712C111.724 125.861 111.329 125.973 110.881 126.048C110.444 126.123 109.974 126.16 109.473 126.16ZM106.977 121.76H110.993V121.232C110.993 120.709 110.849 120.304 110.561 120.016C110.273 119.717 109.788 119.568 109.105 119.568C108.294 119.568 107.734 119.744 107.425 120.096C107.126 120.448 106.977 121.003 106.977 121.76ZM117.123 126.16C116.312 126.16 115.704 125.947 115.299 125.52C114.904 125.083 114.707 124.491 114.707 123.744V119.776H113.587V118.416H114.707V116.672L116.435 116.144V118.416H118.451L118.339 119.776H116.435V123.648C116.435 124.085 116.536 124.395 116.739 124.576C116.941 124.747 117.272 124.832 117.731 124.832C118.019 124.832 118.323 124.779 118.643 124.672V125.904C118.227 126.075 117.72 126.16 117.123 126.16ZM120.97 128.816C120.394 128.816 119.903 128.741 119.498 128.592V127.296C119.679 127.36 119.845 127.403 119.994 127.424C120.154 127.445 120.314 127.456 120.474 127.456C120.805 127.456 121.071 127.403 121.274 127.296C121.477 127.189 121.653 127.019 121.802 126.784C121.962 126.56 122.133 126.267 122.314 125.904L118.938 118.416H120.746L123.178 124.048L125.642 118.416H127.434L124.346 125.568C124.079 126.208 123.791 126.768 123.482 127.248C123.183 127.739 122.831 128.123 122.426 128.4C122.031 128.677 121.546 128.816 120.97 128.816ZM132.508 126V115.696H137.1C137.889 115.696 138.54 115.845 139.052 116.144C139.564 116.443 139.943 116.853 140.188 117.376C140.433 117.888 140.556 118.475 140.556 119.136C140.556 120.16 140.236 120.981 139.596 121.6C138.967 122.219 138.113 122.528 137.036 122.528H134.252V126H132.508ZM134.252 121.152H136.716C137.409 121.152 137.932 120.971 138.284 120.608C138.636 120.245 138.812 119.755 138.812 119.136C138.812 118.475 138.641 117.963 138.3 117.6C137.969 117.237 137.468 117.056 136.796 117.056H134.252V121.152ZM143.834 126.16C143.215 126.16 142.746 126.011 142.426 125.712C142.106 125.403 141.946 124.896 141.946 124.192V115.216H143.69V124.032C143.69 124.331 143.743 124.533 143.85 124.64C143.956 124.747 144.116 124.8 144.33 124.8C144.586 124.8 144.831 124.768 145.066 124.704V125.968C144.863 126.043 144.666 126.091 144.474 126.112C144.292 126.144 144.079 126.16 143.834 126.16ZM148.798 126.16C148.318 126.16 147.87 126.075 147.454 125.904C147.049 125.733 146.723 125.477 146.478 125.136C146.233 124.784 146.11 124.352 146.11 123.84C146.11 123.115 146.355 122.533 146.846 122.096C147.347 121.648 148.115 121.424 149.15 121.424H151.582V121.088C151.582 120.725 151.523 120.437 151.406 120.224C151.299 120.011 151.097 119.856 150.798 119.76C150.51 119.664 150.083 119.616 149.518 119.616C148.622 119.616 147.785 119.749 147.006 120.016V118.72C147.347 118.581 147.763 118.469 148.254 118.384C148.745 118.299 149.273 118.256 149.838 118.256C150.947 118.256 151.79 118.48 152.366 118.928C152.953 119.376 153.246 120.107 153.246 121.12V126H151.758L151.646 125.232C151.337 125.531 150.953 125.76 150.494 125.92C150.046 126.08 149.481 126.16 148.798 126.16ZM149.262 124.912C149.785 124.912 150.238 124.827 150.622 124.656C151.017 124.475 151.337 124.235 151.582 123.936V122.608H149.182C148.67 122.608 148.297 122.709 148.062 122.912C147.838 123.104 147.726 123.403 147.726 123.808C147.726 124.203 147.859 124.485 148.126 124.656C148.393 124.827 148.771 124.912 149.262 124.912ZM156.173 128.816C155.597 128.816 155.106 128.741 154.701 128.592V127.296C154.882 127.36 155.048 127.403 155.197 127.424C155.357 127.445 155.517 127.456 155.677 127.456C156.008 127.456 156.274 127.403 156.477 127.296C156.68 127.189 156.856 127.019 157.005 126.784C157.165 126.56 157.336 126.267 157.517 125.904L154.141 118.416H155.949L158.381 124.048L160.845 118.416H162.637L159.549 125.568C159.282 126.208 158.994 126.768 158.685 127.248C158.386 127.739 158.034 128.123 157.629 128.4C157.234 128.677 156.749 128.816 156.173 128.816ZM166.377 128.816C165.812 128.816 165.246 128.779 164.681 128.704C164.116 128.64 163.636 128.539 163.241 128.4V127.056C163.668 127.195 164.158 127.301 164.713 127.376C165.268 127.451 165.796 127.488 166.297 127.488C167.065 127.488 167.625 127.445 167.977 127.36C168.329 127.275 168.505 127.083 168.505 126.784C168.505 126.56 168.42 126.4 168.249 126.304C168.078 126.219 167.753 126.176 167.273 126.176H165.225C163.849 126.176 163.161 125.691 163.161 124.72C163.161 124.411 163.252 124.123 163.433 123.856C163.614 123.589 163.902 123.387 164.297 123.248C163.86 123.035 163.534 122.741 163.321 122.368C163.118 121.995 163.017 121.547 163.017 121.024C163.017 120.053 163.305 119.349 163.881 118.912C164.468 118.475 165.342 118.256 166.505 118.256C166.75 118.256 167.006 118.277 167.273 118.32C167.54 118.352 167.748 118.384 167.897 118.416H170.681L170.633 119.552H169.353C169.556 119.723 169.705 119.936 169.801 120.192C169.897 120.448 169.945 120.725 169.945 121.024C169.945 121.835 169.7 122.475 169.209 122.944C168.718 123.403 167.977 123.632 166.985 123.632C166.814 123.632 166.654 123.627 166.505 123.616C166.366 123.595 166.212 123.573 166.041 123.552C165.721 123.584 165.433 123.669 165.177 123.808C164.921 123.947 164.793 124.133 164.793 124.368C164.793 124.528 164.857 124.645 164.985 124.72C165.113 124.784 165.326 124.816 165.625 124.816H167.753C168.51 124.816 169.092 124.981 169.497 125.312C169.913 125.632 170.121 126.101 170.121 126.72C170.121 127.467 169.796 128 169.145 128.32C168.505 128.651 167.582 128.816 166.377 128.816ZM166.505 122.528C167.198 122.528 167.678 122.411 167.945 122.176C168.222 121.941 168.361 121.541 168.361 120.976C168.361 120.411 168.222 120 167.945 119.744C167.678 119.488 167.198 119.36 166.505 119.36C165.854 119.36 165.38 119.483 165.081 119.728C164.782 119.973 164.633 120.389 164.633 120.976C164.633 121.52 164.772 121.915 165.049 122.16C165.337 122.405 165.822 122.528 166.505 122.528ZM171.758 126V118.416H173.358L173.454 119.296C173.817 119.061 174.249 118.848 174.75 118.656C175.251 118.464 175.747 118.331 176.238 118.256V119.584C175.939 119.637 175.614 119.717 175.262 119.824C174.921 119.92 174.595 120.032 174.286 120.16C173.977 120.277 173.715 120.4 173.502 120.528V126H171.758ZM180.828 126.16C179.462 126.16 178.46 125.819 177.82 125.136C177.19 124.453 176.876 123.477 176.876 122.208C176.876 120.939 177.196 119.963 177.836 119.28C178.476 118.597 179.473 118.256 180.828 118.256C182.193 118.256 183.196 118.597 183.836 119.28C184.476 119.963 184.796 120.939 184.796 122.208C184.796 123.477 184.476 124.453 183.836 125.136C183.206 125.819 182.204 126.16 180.828 126.16ZM180.828 124.688C181.628 124.688 182.193 124.496 182.524 124.112C182.865 123.717 183.036 123.083 183.036 122.208C183.036 121.333 182.865 120.704 182.524 120.32C182.193 119.936 181.628 119.744 180.828 119.744C180.038 119.744 179.473 119.936 179.132 120.32C178.801 120.704 178.636 121.333 178.636 122.208C178.636 123.083 178.801 123.717 179.132 124.112C179.473 124.496 180.038 124.688 180.828 124.688ZM189.228 126.16C188.322 126.16 187.623 125.909 187.132 125.408C186.652 124.907 186.412 124.171 186.412 123.2V118.416H188.156V123.2C188.156 123.765 188.295 124.181 188.572 124.448C188.85 124.715 189.276 124.848 189.852 124.848C190.279 124.848 190.674 124.768 191.036 124.608C191.399 124.448 191.714 124.235 191.98 123.968V118.416H193.708V126H192.124L192.044 125.216C191.703 125.483 191.298 125.707 190.828 125.888C190.359 126.069 189.826 126.16 189.228 126.16ZM195.742 126V118.416H197.342L197.422 119.216C197.764 118.949 198.169 118.725 198.638 118.544C199.118 118.352 199.646 118.256 200.222 118.256C201.204 118.256 201.918 118.485 202.366 118.944C202.814 119.403 203.038 120.117 203.038 121.088V126H201.31V121.168C201.31 120.581 201.188 120.171 200.942 119.936C200.708 119.701 200.26 119.584 199.598 119.584C199.204 119.584 198.814 119.664 198.43 119.824C198.057 119.984 197.742 120.192 197.486 120.448V126H195.742ZM207.972 126.16C207.289 126.16 206.687 126.043 206.164 125.808C205.641 125.573 205.236 125.184 204.948 124.64C204.66 124.096 204.516 123.365 204.516 122.448C204.516 121.541 204.671 120.779 204.98 120.16C205.289 119.531 205.716 119.056 206.26 118.736C206.815 118.416 207.439 118.256 208.132 118.256C208.591 118.256 208.996 118.309 209.348 118.416C209.711 118.523 210.057 118.688 210.388 118.912V115.216H212.132V126H210.644L210.532 125.248C210.191 125.557 209.817 125.787 209.412 125.936C209.007 126.085 208.527 126.16 207.972 126.16ZM208.436 124.848C209.215 124.848 209.865 124.581 210.388 124.048V120.256C209.887 119.808 209.257 119.584 208.5 119.584C207.764 119.584 207.209 119.829 206.836 120.32C206.463 120.811 206.276 121.525 206.276 122.464C206.276 123.371 206.447 123.995 206.788 124.336C207.14 124.677 207.689 124.848 208.436 124.848ZM17.68 150V141.056H14.384V139.696H22.704V141.056H19.424V150H17.68ZM23.9449 140.832V139.392H25.8489V140.832H23.9449ZM24.0889 150V143.744H22.9369L23.0969 142.416H25.8329V150H24.0889ZM27.8674 150V142.416H29.4674L29.5474 143.216C29.9207 142.917 30.3314 142.683 30.7794 142.512C31.2274 142.341 31.7074 142.256 32.2194 142.256C32.7634 142.256 33.1847 142.347 33.4834 142.528C33.7927 142.699 34.0274 142.939 34.1874 143.248C34.5394 142.96 34.9447 142.725 35.4034 142.544C35.862 142.352 36.4114 142.256 37.0514 142.256C37.926 142.256 38.5714 142.48 38.9874 142.928C39.4034 143.376 39.6114 144.064 39.6114 144.992V150H37.8994V145.168C37.8994 144.581 37.7767 144.171 37.5314 143.936C37.286 143.701 36.886 143.584 36.3314 143.584C35.9687 143.584 35.622 143.648 35.2914 143.776C34.9714 143.904 34.694 144.096 34.4594 144.352C34.4914 144.469 34.5127 144.592 34.5234 144.72C34.534 144.848 34.5394 144.987 34.5394 145.136V150H32.9234V145.184C32.9234 144.629 32.8274 144.224 32.6354 143.968C32.4434 143.712 32.0807 143.584 31.5474 143.584C31.174 143.584 30.8167 143.675 30.4754 143.856C30.1447 144.027 29.846 144.235 29.5794 144.48V150H27.8674ZM45.2543 150.16C43.9316 150.16 42.9076 149.835 42.1823 149.184C41.4569 148.533 41.0943 147.536 41.0943 146.192C41.0943 144.976 41.4036 144.016 42.0223 143.312C42.6409 142.608 43.5796 142.256 44.8383 142.256C45.9903 142.256 46.8543 142.56 47.4303 143.168C48.0169 143.765 48.3103 144.539 48.3103 145.488V146.896H42.7582C42.8436 147.632 43.1103 148.139 43.5583 148.416C44.0063 148.693 44.6889 148.832 45.6063 148.832C45.9903 148.832 46.3849 148.795 46.7903 148.72C47.1956 148.645 47.5476 148.549 47.8463 148.432V149.712C47.5049 149.861 47.1103 149.973 46.6623 150.048C46.2249 150.123 45.7556 150.16 45.2543 150.16ZM42.7582 145.76H46.7743V145.232C46.7743 144.709 46.6303 144.304 46.3423 144.016C46.0543 143.717 45.5689 143.568 44.8863 143.568C44.0756 143.568 43.5156 143.744 43.2063 144.096C42.9076 144.448 42.7582 145.003 42.7582 145.76ZM53.3755 146.368V145.008H59.4875V146.368H53.3755ZM65.6194 150L69.4114 141.04H64.3874V139.696H71.2834V140.816L67.3954 150H65.6194ZM72.8361 153.456V142.416H74.3401L74.4361 143.168C74.7775 142.859 75.1508 142.629 75.5561 142.48C75.9615 142.331 76.4415 142.256 76.9961 142.256C78.0841 142.256 78.9321 142.555 79.5401 143.152C80.1481 143.739 80.4521 144.715 80.4521 146.08C80.4521 147.445 80.1375 148.469 79.5081 149.152C78.8788 149.824 78.0201 150.16 76.9321 150.16C76.0148 150.16 75.2308 149.947 74.5801 149.52V153.456H72.8361ZM76.4841 148.848C77.9561 148.848 78.6921 147.92 78.6921 146.064C78.6921 145.168 78.5268 144.533 78.1961 144.16C77.8655 143.776 77.3108 143.584 76.5321 143.584C75.7535 143.584 75.1028 143.851 74.5801 144.384V148.176C74.8255 148.379 75.0975 148.544 75.3961 148.672C75.7055 148.789 76.0681 148.848 76.4841 148.848ZM82.1486 150V142.416H83.7486L83.8286 143.216C84.202 142.917 84.6126 142.683 85.0606 142.512C85.5086 142.341 85.9886 142.256 86.5006 142.256C87.0446 142.256 87.466 142.347 87.7646 142.528C88.074 142.699 88.3086 142.939 88.4686 143.248C88.8206 142.96 89.226 142.725 89.6846 142.544C90.1433 142.352 90.6926 142.256 91.3326 142.256C92.2073 142.256 92.8526 142.48 93.2686 142.928C93.6846 143.376 93.8926 144.064 93.8926 144.992V150H92.1806V145.168C92.1806 144.581 92.058 144.171 91.8126 143.936C91.5673 143.701 91.1673 143.584 90.6126 143.584C90.25 143.584 89.9033 143.648 89.5726 143.776C89.2526 143.904 88.9753 144.096 88.7406 144.352C88.7726 144.469 88.794 144.592 88.8046 144.72C88.8153 144.848 88.8206 144.987 88.8206 145.136V150H87.2046V145.184C87.2046 144.629 87.1086 144.224 86.9166 143.968C86.7246 143.712 86.362 143.584 85.8286 143.584C85.4553 143.584 85.098 143.675 84.7566 143.856C84.426 144.027 84.1273 144.235 83.8606 144.48V150H82.1486ZM102.435 150.16C101.625 150.16 101.017 149.947 100.611 149.52C100.217 149.083 100.019 148.491 100.019 147.744V143.776H98.8993V142.416H100.019V140.672L101.747 140.144V142.416H103.763L103.651 143.776H101.747V147.648C101.747 148.085 101.849 148.395 102.051 148.576C102.254 148.747 102.585 148.832 103.043 148.832C103.331 148.832 103.635 148.779 103.955 148.672V149.904C103.539 150.075 103.033 150.16 102.435 150.16ZM108.921 150.16C107.556 150.16 106.553 149.819 105.913 149.136C105.284 148.453 104.969 147.477 104.969 146.208C104.969 144.939 105.289 143.963 105.929 143.28C106.569 142.597 107.567 142.256 108.921 142.256C110.287 142.256 111.289 142.597 111.929 143.28C112.569 143.963 112.889 144.939 112.889 146.208C112.889 147.477 112.569 148.453 111.929 149.136C111.3 149.819 110.297 150.16 108.921 150.16ZM108.921 148.688C109.721 148.688 110.287 148.496 110.617 148.112C110.959 147.717 111.129 147.083 111.129 146.208C111.129 145.333 110.959 144.704 110.617 144.32C110.287 143.936 109.721 143.744 108.921 143.744C108.132 143.744 107.567 143.936 107.225 144.32C106.895 144.704 106.729 145.333 106.729 146.208C106.729 147.083 106.895 147.717 107.225 148.112C107.567 148.496 108.132 148.688 108.921 148.688ZM119.618 150V141.232L117.954 141.52V140.064L121.346 139.536V150H119.618ZM123.063 150V149.136C123.34 148.485 123.724 147.899 124.215 147.376C124.716 146.853 125.25 146.347 125.815 145.856C126.242 145.483 126.594 145.168 126.871 144.912C127.159 144.645 127.383 144.405 127.543 144.192C127.703 143.979 127.815 143.76 127.879 143.536C127.943 143.301 127.975 143.029 127.975 142.72C127.975 142.165 127.815 141.744 127.495 141.456C127.175 141.168 126.642 141.024 125.895 141.024C125.49 141.024 125.074 141.067 124.647 141.152C124.231 141.237 123.831 141.355 123.447 141.504V139.968C123.82 139.84 124.263 139.739 124.775 139.664C125.287 139.579 125.772 139.536 126.231 139.536C127.383 139.536 128.252 139.819 128.839 140.384C129.426 140.949 129.719 141.723 129.719 142.704C129.719 143.195 129.634 143.632 129.463 144.016C129.292 144.389 129.058 144.747 128.759 145.088C128.46 145.419 128.114 145.76 127.719 146.112C127.228 146.539 126.764 146.955 126.327 147.36C125.9 147.755 125.554 148.187 125.287 148.656H129.831V150H123.063ZM133.892 150.16C133.412 150.16 132.964 150.075 132.548 149.904C132.142 149.733 131.817 149.477 131.572 149.136C131.326 148.784 131.204 148.352 131.204 147.84C131.204 147.115 131.449 146.533 131.94 146.096C132.441 145.648 133.209 145.424 134.244 145.424H136.676V145.088C136.676 144.725 136.617 144.437 136.5 144.224C136.393 144.011 136.19 143.856 135.892 143.76C135.604 143.664 135.177 143.616 134.612 143.616C133.716 143.616 132.878 143.749 132.1 144.016V142.72C132.441 142.581 132.857 142.469 133.348 142.384C133.838 142.299 134.366 142.256 134.932 142.256C136.041 142.256 136.884 142.48 137.46 142.928C138.046 143.376 138.34 144.107 138.34 145.12V150H136.852L136.74 149.232C136.43 149.531 136.046 149.76 135.588 149.92C135.14 150.08 134.574 150.16 133.892 150.16ZM134.356 148.912C134.878 148.912 135.332 148.827 135.716 148.656C136.11 148.475 136.43 148.235 136.676 147.936V146.608H134.276C133.764 146.608 133.39 146.709 133.156 146.912C132.932 147.104 132.82 147.403 132.82 147.808C132.82 148.203 132.953 148.485 133.22 148.656C133.486 148.827 133.865 148.912 134.356 148.912ZM140.274 150V142.416H141.874L141.954 143.216C142.327 142.917 142.738 142.683 143.186 142.512C143.634 142.341 144.114 142.256 144.626 142.256C145.17 142.256 145.591 142.347 145.89 142.528C146.199 142.699 146.434 142.939 146.594 143.248C146.946 142.96 147.351 142.725 147.81 142.544C148.268 142.352 148.818 142.256 149.458 142.256C150.332 142.256 150.978 142.48 151.394 142.928C151.81 143.376 152.018 144.064 152.018 144.992V150H150.306V145.168C150.306 144.581 150.183 144.171 149.938 143.936C149.692 143.701 149.292 143.584 148.738 143.584C148.375 143.584 148.028 143.648 147.698 143.776C147.378 143.904 147.1 144.096 146.866 144.352C146.898 144.469 146.919 144.592 146.93 144.72C146.94 144.848 146.946 144.987 146.946 145.136V150H145.33V145.184C145.33 144.629 145.234 144.224 145.042 143.968C144.85 143.712 144.487 143.584 143.954 143.584C143.58 143.584 143.223 143.675 142.882 143.856C142.551 144.027 142.252 144.235 141.986 144.48V150H140.274Z" fill="white"/>
<g filter="url(#filter2_d_158_2)">
<rect x="301" y="80" width="209" height="53" rx="10" fill="#0066FF"/>
</g>
<path d="M356.992 111L354.592 100.696H356.72L358.272 107.656L359.952 102.04V100.696H361.712L363.696 107.672L365.296 100.696H367.408L365.024 111H362.976L361.088 104.408L359.056 111H356.992ZM371.661 111.16C370.349 111.16 369.309 110.835 368.541 110.184C367.773 109.523 367.389 108.525 367.389 107.192C367.389 105.987 367.709 105.032 368.349 104.328C369 103.613 369.965 103.256 371.245 103.256C372.418 103.256 373.314 103.565 373.933 104.184C374.562 104.792 374.877 105.592 374.877 106.584V107.96H369.389C369.506 108.568 369.784 108.984 370.221 109.208C370.669 109.432 371.298 109.544 372.109 109.544C372.514 109.544 372.925 109.507 373.341 109.432C373.768 109.357 374.13 109.261 374.429 109.144V110.68C374.077 110.84 373.666 110.957 373.197 111.032C372.728 111.117 372.216 111.16 371.661 111.16ZM369.389 106.632H372.989V106.216C372.989 105.779 372.861 105.437 372.605 105.192C372.349 104.936 371.917 104.808 371.309 104.808C370.594 104.808 370.093 104.952 369.805 105.24C369.528 105.528 369.389 105.992 369.389 106.632ZM378.493 111.16C377.757 111.16 377.218 110.989 376.877 110.648C376.546 110.307 376.381 109.763 376.381 109.016V100.216H378.541V108.84C378.541 109.107 378.594 109.293 378.701 109.4C378.807 109.496 378.962 109.544 379.165 109.544C379.442 109.544 379.693 109.507 379.917 109.432V110.92C379.511 111.08 379.037 111.16 378.493 111.16ZM385.018 111.16C383.664 111.16 382.624 110.824 381.898 110.152C381.184 109.48 380.826 108.499 380.826 107.208C380.826 105.875 381.21 104.883 381.978 104.232C382.757 103.581 383.792 103.256 385.082 103.256C385.616 103.256 386.074 103.293 386.458 103.368C386.842 103.443 387.216 103.565 387.578 103.736V105.288C387.312 105.16 387.002 105.059 386.65 104.984C386.298 104.909 385.92 104.872 385.514 104.872C384.704 104.872 384.085 105.043 383.658 105.384C383.232 105.715 383.018 106.323 383.018 107.208C383.018 108.019 383.21 108.611 383.594 108.984C383.989 109.357 384.624 109.544 385.498 109.544C385.872 109.544 386.234 109.507 386.586 109.432C386.949 109.357 387.285 109.245 387.594 109.096V110.696C386.88 111.005 386.021 111.16 385.018 111.16ZM392.751 111.16C391.332 111.16 390.292 110.819 389.631 110.136C388.97 109.443 388.639 108.467 388.639 107.208C388.639 105.949 388.97 104.979 389.631 104.296C390.303 103.603 391.343 103.256 392.751 103.256C394.17 103.256 395.21 103.603 395.871 104.296C396.543 104.979 396.879 105.949 396.879 107.208C396.879 108.467 396.548 109.443 395.887 110.136C395.226 110.819 394.18 111.16 392.751 111.16ZM392.751 109.32C393.444 109.32 393.94 109.165 394.239 108.856C394.538 108.536 394.687 107.987 394.687 107.208C394.687 106.429 394.538 105.885 394.239 105.576C393.94 105.256 393.444 105.096 392.751 105.096C392.068 105.096 391.578 105.256 391.279 105.576C390.98 105.885 390.831 106.429 390.831 107.208C390.831 107.987 390.98 108.536 391.279 108.856C391.578 109.165 392.068 109.32 392.751 109.32ZM398.381 111V103.416H400.381L400.461 104.152C400.823 103.875 401.218 103.656 401.645 103.496C402.082 103.336 402.551 103.256 403.053 103.256C403.586 103.256 403.997 103.336 404.285 103.496C404.583 103.656 404.813 103.885 404.973 104.184C405.325 103.907 405.725 103.683 406.173 103.512C406.631 103.341 407.17 103.256 407.789 103.256C408.663 103.256 409.309 103.485 409.725 103.944C410.141 104.392 410.349 105.08 410.349 106.008V111H408.221V106.248C408.221 105.747 408.114 105.389 407.901 105.176C407.687 104.952 407.346 104.84 406.877 104.84C406.237 104.84 405.703 105.069 405.277 105.528C405.33 105.709 405.357 105.928 405.357 106.184V111H403.341V106.248C403.341 105.779 403.261 105.427 403.101 105.192C402.941 104.957 402.631 104.84 402.173 104.84C401.853 104.84 401.549 104.925 401.261 105.096C400.983 105.256 400.733 105.443 400.509 105.656V111H398.381ZM415.817 111.16C414.505 111.16 413.465 110.835 412.697 110.184C411.929 109.523 411.545 108.525 411.545 107.192C411.545 105.987 411.865 105.032 412.505 104.328C413.156 103.613 414.121 103.256 415.401 103.256C416.574 103.256 417.47 103.565 418.089 104.184C418.718 104.792 419.033 105.592 419.033 106.584V107.96H413.545C413.662 108.568 413.94 108.984 414.377 109.208C414.825 109.432 415.454 109.544 416.265 109.544C416.67 109.544 417.081 109.507 417.497 109.432C417.924 109.357 418.286 109.261 418.585 109.144V110.68C418.233 110.84 417.822 110.957 417.353 111.032C416.884 111.117 416.372 111.16 415.817 111.16ZM413.545 106.632H417.145V106.216C417.145 105.779 417.017 105.437 416.761 105.192C416.505 104.936 416.073 104.808 415.465 104.808C414.75 104.808 414.249 104.952 413.961 105.24C413.684 105.528 413.545 105.992 413.545 106.632ZM424.053 111V100.696H425.925L430.805 107.56V100.696H432.965V111H431.093L426.213 104.136V111H424.053ZM438.739 111.16C437.427 111.16 436.387 110.835 435.619 110.184C434.851 109.523 434.467 108.525 434.467 107.192C434.467 105.987 434.787 105.032 435.427 104.328C436.078 103.613 437.043 103.256 438.323 103.256C439.496 103.256 440.392 103.565 441.011 104.184C441.64 104.792 441.955 105.592 441.955 106.584V107.96H436.467C436.584 108.568 436.862 108.984 437.299 109.208C437.747 109.432 438.376 109.544 439.187 109.544C439.592 109.544 440.003 109.507 440.419 109.432C440.846 109.357 441.208 109.261 441.507 109.144V110.68C441.155 110.84 440.744 110.957 440.275 111.032C439.806 111.117 439.294 111.16 438.739 111.16ZM436.467 106.632H440.067V106.216C440.067 105.779 439.939 105.437 439.683 105.192C439.427 104.936 438.995 104.808 438.387 104.808C437.672 104.808 437.171 104.952 436.883 105.24C436.606 105.528 436.467 105.992 436.467 106.632ZM443.674 102.024V100.328H446.026V102.024H443.674ZM443.85 111V105.016H442.714L442.906 103.416H446.01V111H443.85ZM451.049 113.816C450.484 113.816 449.903 113.779 449.306 113.704C448.719 113.629 448.223 113.523 447.818 113.384V111.768C448.244 111.907 448.746 112.013 449.322 112.088C449.898 112.173 450.436 112.216 450.938 112.216C451.674 112.216 452.207 112.173 452.538 112.088C452.868 112.013 453.034 111.875 453.034 111.672C453.034 111.501 452.959 111.384 452.81 111.32C452.671 111.256 452.372 111.224 451.914 111.224H449.85C448.495 111.224 447.818 110.723 447.818 109.72C447.818 109.411 447.903 109.128 448.074 108.872C448.244 108.616 448.516 108.413 448.89 108.264C448.026 107.827 447.594 107.091 447.594 106.056C447.594 105.075 447.898 104.365 448.506 103.928C449.114 103.48 450.015 103.256 451.21 103.256C451.455 103.256 451.722 103.277 452.01 103.32C452.308 103.352 452.532 103.384 452.682 103.416H455.53L455.482 104.776H454.282C454.612 105.085 454.778 105.517 454.778 106.072C454.778 106.851 454.532 107.475 454.042 107.944C453.551 108.403 452.826 108.632 451.866 108.632C451.695 108.632 451.53 108.627 451.37 108.616C451.22 108.595 451.066 108.573 450.906 108.552C450.586 108.595 450.314 108.669 450.09 108.776C449.876 108.883 449.77 109.027 449.77 109.208C449.77 109.453 449.988 109.576 450.426 109.576H452.57C453.338 109.576 453.93 109.752 454.346 110.104C454.762 110.445 454.97 110.947 454.97 111.608C454.97 112.355 454.634 112.909 453.962 113.272C453.29 113.635 452.319 113.816 451.049 113.816ZM451.226 107.416C451.866 107.416 452.308 107.309 452.554 107.096C452.81 106.872 452.938 106.499 452.938 105.976C452.938 105.453 452.81 105.075 452.554 104.84C452.308 104.605 451.866 104.488 451.226 104.488C450.618 104.488 450.18 104.605 449.914 104.84C449.647 105.064 449.514 105.443 449.514 105.976C449.514 106.467 449.636 106.829 449.882 107.064C450.138 107.299 450.586 107.416 451.226 107.416ZM456.834 111V100.216H458.994V104.056C459.303 103.821 459.682 103.629 460.13 103.48C460.578 103.331 461.063 103.256 461.586 103.256C462.589 103.256 463.319 103.491 463.778 103.96C464.237 104.429 464.466 105.155 464.466 106.136V111H462.306V106.248C462.306 105.736 462.199 105.373 461.986 105.16C461.783 104.947 461.399 104.84 460.834 104.84C460.503 104.84 460.167 104.915 459.826 105.064C459.495 105.213 459.218 105.4 458.994 105.624V111H456.834ZM470.689 111.16C470.155 111.16 469.691 111.091 469.297 110.952C468.902 110.803 468.539 110.584 468.209 110.296L468.097 111H466.225V100.216H468.385V103.832C468.694 103.64 469.041 103.496 469.424 103.4C469.809 103.304 470.209 103.256 470.625 103.256C471.713 103.256 472.571 103.565 473.201 104.184C473.841 104.792 474.161 105.779 474.161 107.144C474.161 108.509 473.846 109.523 473.217 110.184C472.598 110.835 471.755 111.16 470.689 111.16ZM470.081 109.576C470.774 109.576 471.259 109.373 471.537 108.968C471.825 108.563 471.969 107.955 471.969 107.144C471.969 106.301 471.814 105.709 471.505 105.368C471.206 105.016 470.726 104.84 470.065 104.84C469.734 104.84 469.419 104.888 469.121 104.984C468.833 105.08 468.587 105.219 468.385 105.4V108.888C468.598 109.112 468.849 109.283 469.137 109.4C469.435 109.517 469.75 109.576 470.081 109.576ZM479.454 111.16C478.035 111.16 476.995 110.819 476.334 110.136C475.673 109.443 475.342 108.467 475.342 107.208C475.342 105.949 475.673 104.979 476.334 104.296C477.006 103.603 478.046 103.256 479.454 103.256C480.873 103.256 481.913 103.603 482.574 104.296C483.246 104.979 483.582 105.949 483.582 107.208C483.582 108.467 483.251 109.443 482.59 110.136C481.929 110.819 480.883 111.16 479.454 111.16ZM479.454 109.32C480.147 109.32 480.643 109.165 480.942 108.856C481.241 108.536 481.39 107.987 481.39 107.208C481.39 106.429 481.241 105.885 480.942 105.576C480.643 105.256 480.147 105.096 479.454 105.096C478.771 105.096 478.281 105.256 477.982 105.576C477.683 105.885 477.534 106.429 477.534 107.208C477.534 107.987 477.683 108.536 477.982 108.856C478.281 109.165 478.771 109.32 479.454 109.32ZM485.084 111V103.416H487.084L487.18 104.2C487.521 103.987 487.943 103.795 488.444 103.624C488.956 103.443 489.457 103.32 489.948 103.256V104.888C489.66 104.931 489.345 104.995 489.004 105.08C488.663 105.165 488.337 105.261 488.028 105.368C487.719 105.475 487.457 105.587 487.244 105.704V111H485.084ZM493.647 111.16C493.081 111.16 492.543 111.117 492.031 111.032C491.519 110.957 491.108 110.861 490.799 110.744V108.952C491.172 109.101 491.593 109.219 492.062 109.304C492.532 109.379 492.964 109.416 493.359 109.416C493.892 109.416 494.265 109.384 494.479 109.32C494.703 109.256 494.815 109.112 494.815 108.888C494.815 108.632 494.644 108.445 494.303 108.328C493.972 108.211 493.476 108.045 492.815 107.832C492.121 107.597 491.588 107.315 491.215 106.984C490.841 106.653 490.655 106.163 490.655 105.512C490.655 104.787 490.916 104.232 491.439 103.848C491.972 103.453 492.825 103.256 493.999 103.256C494.468 103.256 494.911 103.293 495.327 103.368C495.743 103.432 496.095 103.512 496.383 103.608V105.384C496.095 105.245 495.764 105.144 495.391 105.08C495.017 105.005 494.671 104.968 494.351 104.968C493.892 104.968 493.524 105 493.247 105.064C492.98 105.128 492.847 105.267 492.847 105.48C492.847 105.715 492.991 105.88 493.279 105.976C493.577 106.072 494.036 106.216 494.655 106.408C495.263 106.589 495.737 106.787 496.079 107C496.42 107.213 496.66 107.469 496.799 107.768C496.937 108.056 497.007 108.419 497.007 108.856C497.007 110.392 495.887 111.16 493.647 111.16Z" fill="white"/>
<path d="M332.068 103.857L333.891 102.854" stroke="white" stroke-width="2" stroke-linecap="round" stroke-linejoin="round"/>
<path d="M333.891 102.854V110.146" stroke="white" stroke-width="2" stroke-linecap="round" stroke-linejoin="round"/>
<path d="M341.052 96.8646H338.969V97.3855C338.969 98.3922 338.153 99.2084 337.146 99.2084C336.139 99.2084 335.323 98.3922 335.323 97.3855V96.8646H331.156V97.3855C331.156 98.3922 330.34 99.2084 329.333 99.2084C328.326 99.2084 327.51 98.3922 327.51 97.3855V96.8646H325.948C324.797 96.8646 323.865 97.7973 323.865 98.948V114.052C323.865 115.203 324.797 116.135 325.948 116.135H341.052C342.203 116.135 343.135 115.203 343.135 114.052V98.948C343.135 97.7973 342.203 96.8646 341.052 96.8646Z" stroke="white" stroke-width="2" stroke-linecap="round" stroke-linejoin="round"/>
<defs>
<filter id="filter0_d_158_2" x="86" y="0" width="301" height="232" filterUnits="userSpaceOnUse" color-interpolation-filters="sRGB">
<feFlood flood-opacity="0" result="BackgroundImageFix"/>
<feColorMatrix in="SourceAlpha" type="matrix" values="0 0 0 0 0 0 0 0 0 0 0 0 0 0 0 0 0 0 127 0" result="hardAlpha"/>
<feOffset dx="4" dy="4"/>
<feGaussianBlur stdDeviation="2"/>
<feComposite in2="hardAlpha" operator="out"/>
<feColorMatrix type="matrix" values="0 0 0 0 0 0 0 0 0 0 0 0 0 0 0 0 0 0 0.25 0"/>
<feBlend mode="normal" in2="BackgroundImageFix" result="effect1_dropShadow_158_2"/>
<feBlend mode="normal" in="SourceGraphic" in2="effect1_dropShadow_158_2" result="shape"/>
</filter>
<filter id="filter1_d_158_2" x="0" y="24" width="254" height="160" filterUnits="userSpaceOnUse" color-interpolation-filters="sRGB">
<feFlood flood-opacity="0" result="BackgroundImageFix"/>
<feColorMatrix in="SourceAlpha" type="matrix" values="0 0 0 0 0 0 0 0 0 0 0 0 0 0 0 0 0 0 127 0" result="hardAlpha"/>
<feOffset dx="4" dy="4"/>
<feGaussianBlur stdDeviation="2"/>
<feComposite in2="hardAlpha" operator="out"/>
<feColorMatrix type="matrix" values="0 0 0 0 0 0 0 0 0 0 0 0 0 0 0 0 0 0 0.25 0"/>
<feBlend mode="normal" in2="BackgroundImageFix" result="effect1_dropShadow_158_2"/>
<feBlend mode="normal" in="SourceGraphic" in2="effect1_dropShadow_158_2" result="shape"/>
</filter>
<filter id="filter2_d_158_2" x="301" y="80" width="217" height="61" filterUnits="userSpaceOnUse" color-interpolation-filters="sRGB">
<feFlood flood-opacity="0" result="BackgroundImageFix"/>
<feColorMatrix in="SourceAlpha" type="matrix" values="0 0 0 0 0 0 0 0 0 0 0 0 0 0 0 0 0 0 127 0" result="hardAlpha"/>
<feOffset dx="4" dy="4"/>
<feGaussianBlur stdDeviation="2"/>
<feComposite in2="hardAlpha" operator="out"/>
<feColorMatrix type="matrix" values="0 0 0 0 0 0 0 0 0 0 0 0 0 0 0 0 0 0 0.25 0"/>
<feBlend mode="normal" in2="BackgroundImageFix" result="effect1_dropShadow_158_2"/>
<feBlend mode="normal" in="SourceGraphic" in2="effect1_dropShadow_158_2" result="shape"/>
</filter>
</defs>
</svg>
