<svg width="502" height="232" viewBox="0 0 502 232" fill="none" xmlns="http://www.w3.org/2000/svg">
<g filter="url(#filter0_d_163_3)">
<rect x="132" width="293" height="224" rx="10" fill="#714C99"/>
</g>
<path d="M132 10C132 4.47715 136.477 0 142 0H237V224H142C136.477 224 132 219.523 132 214V10Z" fill="#4C306A"/>
<g filter="url(#filter1_d_163_3)">
<rect y="129" width="209" height="53" rx="10" fill="#FF9900"/>
</g>
<path d="M49.745 153.78C49.5952 153.482 46.8669 148.155 41.4217 145.492C41.4137 145.485 41.408 145.476 41.4 145.469L41.3931 145.477C39.5681 144.588 37.439 144 35 144C32.561 144 30.4307 144.589 28.6057 145.476L28.5989 145.469C28.592 145.476 28.5851 145.484 28.5783 145.491C23.1331 148.154 20.4048 153.48 20.255 153.779L20 154.291L20.2561 154.802C20.4551 155.201 25.2577 164.582 35 164.582C44.7423 164.582 49.5449 155.201 49.745 154.802L50 154.291L49.745 153.78ZM40.109 147.436C41.2376 148.695 41.8608 150.297 41.8608 152.004C41.8608 155.788 38.7837 158.865 35 158.865C31.2163 158.865 28.1392 155.788 28.1392 152.004C28.1392 150.297 28.7624 148.695 29.891 147.436C31.3821 146.744 33.0824 146.287 35 146.287C36.9187 146.287 38.6179 146.744 40.109 147.436ZM35 162.295C27.8934 162.295 23.6877 156.132 22.59 154.291C23.0954 153.443 24.2686 151.68 26.073 150.023C25.9312 150.666 25.8523 151.328 25.8523 152.004C25.8523 157.048 29.9562 161.152 35 161.152C40.0438 161.152 44.1477 157.048 44.1477 152.004C44.1477 151.328 44.0688 150.666 43.927 150.023C45.7314 151.68 46.9046 153.443 47.41 154.291C46.3123 156.132 42.1066 162.295 35 162.295ZM30.4261 152.004C30.4261 149.478 32.4741 147.43 35 147.43C37.5259 147.43 39.5739 149.478 39.5739 152.004C39.5739 154.53 37.5259 156.578 35 156.578C32.4741 156.578 30.4261 154.53 30.4261 152.004Z" fill="white"/>
<path d="M60.992 160L58.592 149.696H60.72L62.272 156.656L63.952 151.04V149.696H65.712L67.696 156.672L69.296 149.696H71.408L69.024 160H66.976L65.088 153.408L63.056 160H60.992ZM74.0929 160.16C73.6129 160.16 73.1649 160.075 72.7489 159.904C72.3435 159.723 72.0129 159.461 71.7569 159.12C71.5115 158.768 71.3889 158.331 71.3889 157.808C71.3889 157.061 71.6502 156.464 72.1729 156.016C72.7062 155.568 73.4902 155.344 74.5249 155.344H76.7649V155.136C76.7649 154.667 76.6315 154.336 76.3649 154.144C76.1089 153.952 75.5862 153.856 74.7969 153.856C73.9329 153.856 73.1009 153.989 72.3009 154.256V152.736C72.6529 152.597 73.0795 152.485 73.5809 152.4C74.0929 152.304 74.6475 152.256 75.2449 152.256C76.3862 152.256 77.2662 152.491 77.8849 152.96C78.5142 153.419 78.8289 154.16 78.8289 155.184V160H76.9569L76.8449 159.312C76.5462 159.579 76.1782 159.787 75.7409 159.936C75.3035 160.085 74.7542 160.16 74.0929 160.16ZM74.6849 158.736C75.1649 158.736 75.5809 158.656 75.9329 158.496C76.2849 158.336 76.5622 158.133 76.7649 157.888V156.688H74.5729C73.7302 156.688 73.3089 157.035 73.3089 157.728C73.3089 158.4 73.7675 158.736 74.6849 158.736ZM83.5763 160.16C82.7016 160.16 82.0509 159.931 81.6243 159.472C81.2083 159.013 81.0003 158.389 81.0003 157.6V154.08H79.9283V152.416H81.0003V150.784L83.1603 150.144V152.416H85.0803L84.9523 154.08H83.1603V157.456C83.1603 157.872 83.2563 158.16 83.4483 158.32C83.6403 158.469 83.9389 158.544 84.3443 158.544C84.6429 158.544 84.9523 158.491 85.2723 158.384V159.872C85.0376 159.968 84.7816 160.037 84.5043 160.08C84.2269 160.133 83.9176 160.16 83.5763 160.16ZM90.2528 160.16C88.8981 160.16 87.8581 159.824 87.1328 159.152C86.4181 158.48 86.0608 157.499 86.0608 156.208C86.0608 154.875 86.4448 153.883 87.2128 153.232C87.9914 152.581 89.0261 152.256 90.3168 152.256C90.8501 152.256 91.3088 152.293 91.6928 152.368C92.0768 152.443 92.4501 152.565 92.8128 152.736V154.288C92.5461 154.16 92.2368 154.059 91.8848 153.984C91.5328 153.909 91.1541 153.872 90.7488 153.872C89.9381 153.872 89.3194 154.043 88.8928 154.384C88.4661 154.715 88.2528 155.323 88.2528 156.208C88.2528 157.019 88.4448 157.611 88.8288 157.984C89.2234 158.357 89.8581 158.544 90.7328 158.544C91.1061 158.544 91.4688 158.507 91.8208 158.432C92.1834 158.357 92.5194 158.245 92.8288 158.096V159.696C92.1141 160.005 91.2554 160.16 90.2528 160.16ZM94.1933 160V149.216H96.3533V153.056C96.6626 152.821 97.0413 152.629 97.4893 152.48C97.9373 152.331 98.4226 152.256 98.9453 152.256C99.9479 152.256 100.679 152.491 101.137 152.96C101.596 153.429 101.825 154.155 101.825 155.136V160H99.6653V155.248C99.6653 154.736 99.5586 154.373 99.3453 154.16C99.1426 153.947 98.7586 153.84 98.1933 153.84C97.8626 153.84 97.5266 153.915 97.1853 154.064C96.8546 154.213 96.5773 154.4 96.3533 154.624V160H94.1933ZM107.1 160V149.696H108.972L113.852 156.56V149.696H116.012V160H114.14L109.26 153.136V160H107.1ZM121.786 160.16C120.474 160.16 119.434 159.835 118.666 159.184C117.898 158.523 117.514 157.525 117.514 156.192C117.514 154.987 117.834 154.032 118.474 153.328C119.125 152.613 120.09 152.256 121.37 152.256C122.543 152.256 123.439 152.565 124.058 153.184C124.687 153.792 125.002 154.592 125.002 155.584V156.96H119.514C119.631 157.568 119.909 157.984 120.346 158.208C120.794 158.432 121.423 158.544 122.234 158.544C122.639 158.544 123.05 158.507 123.466 158.432C123.893 158.357 124.255 158.261 124.554 158.144V159.68C124.202 159.84 123.791 159.957 123.322 160.032C122.853 160.117 122.341 160.16 121.786 160.16ZM119.514 155.632H123.114V155.216C123.114 154.779 122.986 154.437 122.73 154.192C122.474 153.936 122.042 153.808 121.434 153.808C120.719 153.808 120.218 153.952 119.93 154.24C119.653 154.528 119.514 154.992 119.514 155.632ZM126.721 151.024V149.328H129.073V151.024H126.721ZM126.897 160V154.016H125.761L125.953 152.416H129.057V160H126.897ZM134.096 162.816C133.531 162.816 132.95 162.779 132.352 162.704C131.766 162.629 131.27 162.523 130.864 162.384V160.768C131.291 160.907 131.792 161.013 132.368 161.088C132.944 161.173 133.483 161.216 133.984 161.216C134.72 161.216 135.254 161.173 135.584 161.088C135.915 161.013 136.08 160.875 136.08 160.672C136.08 160.501 136.006 160.384 135.856 160.32C135.718 160.256 135.419 160.224 134.96 160.224H132.896C131.542 160.224 130.864 159.723 130.864 158.72C130.864 158.411 130.95 158.128 131.12 157.872C131.291 157.616 131.563 157.413 131.936 157.264C131.072 156.827 130.64 156.091 130.64 155.056C130.64 154.075 130.944 153.365 131.552 152.928C132.16 152.48 133.062 152.256 134.256 152.256C134.502 152.256 134.768 152.277 135.056 152.32C135.355 152.352 135.579 152.384 135.728 152.416H138.576L138.528 153.776H137.328C137.659 154.085 137.824 154.517 137.824 155.072C137.824 155.851 137.579 156.475 137.088 156.944C136.598 157.403 135.872 157.632 134.912 157.632C134.742 157.632 134.576 157.627 134.416 157.616C134.267 157.595 134.112 157.573 133.952 157.552C133.632 157.595 133.36 157.669 133.136 157.776C132.923 157.883 132.816 158.027 132.816 158.208C132.816 158.453 133.035 158.576 133.472 158.576H135.616C136.384 158.576 136.976 158.752 137.392 159.104C137.808 159.445 138.016 159.947 138.016 160.608C138.016 161.355 137.68 161.909 137.008 162.272C136.336 162.635 135.366 162.816 134.096 162.816ZM134.272 156.416C134.912 156.416 135.355 156.309 135.6 156.096C135.856 155.872 135.984 155.499 135.984 154.976C135.984 154.453 135.856 154.075 135.6 153.84C135.355 153.605 134.912 153.488 134.272 153.488C133.664 153.488 133.227 153.605 132.96 153.84C132.694 154.064 132.56 154.443 132.56 154.976C132.56 155.467 132.683 155.829 132.928 156.064C133.184 156.299 133.632 156.416 134.272 156.416ZM139.881 160V149.216H142.041V153.056C142.35 152.821 142.729 152.629 143.177 152.48C143.625 152.331 144.11 152.256 144.633 152.256C145.635 152.256 146.366 152.491 146.825 152.96C147.283 153.429 147.513 154.155 147.513 155.136V160H145.353V155.248C145.353 154.736 145.246 154.373 145.033 154.16C144.83 153.947 144.446 153.84 143.881 153.84C143.55 153.84 143.214 153.915 142.873 154.064C142.542 154.213 142.265 154.4 142.041 154.624V160H139.881ZM153.735 160.16C153.202 160.16 152.738 160.091 152.343 159.952C151.949 159.803 151.586 159.584 151.255 159.296L151.143 160H149.271V149.216H151.431V152.832C151.741 152.64 152.087 152.496 152.471 152.4C152.855 152.304 153.255 152.256 153.671 152.256C154.759 152.256 155.618 152.565 156.247 153.184C156.887 153.792 157.207 154.779 157.207 156.144C157.207 157.509 156.893 158.523 156.263 159.184C155.645 159.835 154.802 160.16 153.735 160.16ZM153.127 158.576C153.821 158.576 154.306 158.373 154.583 157.968C154.871 157.563 155.015 156.955 155.015 156.144C155.015 155.301 154.861 154.709 154.551 154.368C154.253 154.016 153.773 153.84 153.111 153.84C152.781 153.84 152.466 153.888 152.167 153.984C151.879 154.08 151.634 154.219 151.431 154.4V157.888C151.645 158.112 151.895 158.283 152.183 158.4C152.482 158.517 152.797 158.576 153.127 158.576ZM162.501 160.16C161.082 160.16 160.042 159.819 159.381 159.136C158.72 158.443 158.389 157.467 158.389 156.208C158.389 154.949 158.72 153.979 159.381 153.296C160.053 152.603 161.093 152.256 162.501 152.256C163.92 152.256 164.96 152.603 165.621 153.296C166.293 153.979 166.629 154.949 166.629 156.208C166.629 157.467 166.298 158.443 165.637 159.136C164.976 159.819 163.93 160.16 162.501 160.16ZM162.501 158.32C163.194 158.32 163.69 158.165 163.989 157.856C164.288 157.536 164.437 156.987 164.437 156.208C164.437 155.429 164.288 154.885 163.989 154.576C163.69 154.256 163.194 154.096 162.501 154.096C161.818 154.096 161.328 154.256 161.029 154.576C160.73 154.885 160.581 155.429 160.581 156.208C160.581 156.987 160.73 157.536 161.029 157.856C161.328 158.165 161.818 158.32 162.501 158.32ZM168.131 160V152.416H170.131L170.227 153.2C170.568 152.987 170.989 152.795 171.491 152.624C172.003 152.443 172.504 152.32 172.995 152.256V153.888C172.707 153.931 172.392 153.995 172.051 154.08C171.709 154.165 171.384 154.261 171.075 154.368C170.765 154.475 170.504 154.587 170.291 154.704V160H168.131ZM176.693 160.16C176.128 160.16 175.589 160.117 175.077 160.032C174.565 159.957 174.155 159.861 173.845 159.744V157.952C174.219 158.101 174.64 158.219 175.109 158.304C175.579 158.379 176.011 158.416 176.405 158.416C176.939 158.416 177.312 158.384 177.525 158.32C177.749 158.256 177.861 158.112 177.861 157.888C177.861 157.632 177.691 157.445 177.349 157.328C177.019 157.211 176.523 157.045 175.861 156.832C175.168 156.597 174.635 156.315 174.261 155.984C173.888 155.653 173.701 155.163 173.701 154.512C173.701 153.787 173.963 153.232 174.485 152.848C175.019 152.453 175.872 152.256 177.045 152.256C177.515 152.256 177.957 152.293 178.373 152.368C178.789 152.432 179.141 152.512 179.429 152.608V154.384C179.141 154.245 178.811 154.144 178.437 154.08C178.064 154.005 177.717 153.968 177.397 153.968C176.939 153.968 176.571 154 176.293 154.064C176.027 154.128 175.893 154.267 175.893 154.48C175.893 154.715 176.037 154.88 176.325 154.976C176.624 155.072 177.083 155.216 177.701 155.408C178.309 155.589 178.784 155.787 179.125 156C179.467 156.213 179.707 156.469 179.845 156.768C179.984 157.056 180.053 157.419 180.053 157.856C180.053 159.392 178.933 160.16 176.693 160.16Z" fill="white"/>
<g filter="url(#filter2_d_163_3)">
<rect x="248" y="66" width="246" height="120" rx="10" fill="#CB8600"/>
</g>
<path d="M262.688 88.656L263.744 85.536H264.944L264.096 88.656H262.688ZM265.04 88.656L266.096 85.536H267.28L266.448 88.656H265.04ZM273.792 96.16C272.096 96.16 270.816 95.7013 269.952 94.784C269.099 93.8667 268.672 92.624 268.672 91.056C268.672 89.9253 268.859 88.9493 269.232 88.128C269.606 87.296 270.171 86.656 270.928 86.208C271.696 85.76 272.667 85.536 273.84 85.536C274.448 85.536 274.998 85.5787 275.488 85.664C275.99 85.7387 276.459 85.8507 276.896 86V87.504C276.022 87.184 275.051 87.024 273.984 87.024C272.672 87.024 271.75 87.3707 271.216 88.064C270.694 88.7573 270.432 89.7547 270.432 91.056C270.432 92.24 270.71 93.1413 271.264 93.76C271.819 94.3787 272.678 94.688 273.84 94.688C274.758 94.688 275.499 94.5813 276.064 94.368V91.488H273.488V90.352H277.552V95.312C277.222 95.5253 276.747 95.7227 276.128 95.904C275.52 96.0747 274.742 96.16 273.792 96.16ZM279.242 96V88.416H280.842L280.938 89.296C281.301 89.0613 281.733 88.848 282.234 88.656C282.736 88.464 283.232 88.3307 283.722 88.256V89.584C283.424 89.6373 283.098 89.7173 282.746 89.824C282.405 89.92 282.08 90.032 281.77 90.16C281.461 90.2773 281.2 90.4 280.986 90.528V96H279.242ZM288.312 96.16C286.947 96.16 285.944 95.8187 285.304 95.136C284.675 94.4533 284.36 93.4773 284.36 92.208C284.36 90.9387 284.68 89.9627 285.32 89.28C285.96 88.5973 286.957 88.256 288.312 88.256C289.677 88.256 290.68 88.5973 291.32 89.28C291.96 89.9627 292.28 90.9387 292.28 92.208C292.28 93.4773 291.96 94.4533 291.32 95.136C290.691 95.8187 289.688 96.16 288.312 96.16ZM288.312 94.688C289.112 94.688 289.677 94.496 290.008 94.112C290.349 93.7173 290.52 93.0827 290.52 92.208C290.52 91.3333 290.349 90.704 290.008 90.32C289.677 89.936 289.112 89.744 288.312 89.744C287.523 89.744 286.957 89.936 286.616 90.32C286.285 90.704 286.12 91.3333 286.12 92.208C286.12 93.0827 286.285 93.7173 286.616 94.112C286.957 94.496 287.523 94.688 288.312 94.688ZM296.713 96.16C295.806 96.16 295.107 95.9093 294.617 95.408C294.137 94.9067 293.897 94.1707 293.897 93.2V88.416H295.641V93.2C295.641 93.7653 295.779 94.1813 296.057 94.448C296.334 94.7147 296.761 94.848 297.337 94.848C297.763 94.848 298.158 94.768 298.521 94.608C298.883 94.448 299.198 94.2347 299.465 93.968V88.416H301.193V96H299.609L299.529 95.216C299.187 95.4827 298.782 95.7067 298.313 95.888C297.843 96.0693 297.31 96.16 296.713 96.16ZM303.227 99.456V88.416H304.731L304.827 89.168C305.168 88.8587 305.541 88.6293 305.947 88.48C306.352 88.3307 306.832 88.256 307.387 88.256C308.475 88.256 309.323 88.5547 309.931 89.152C310.539 89.7387 310.843 90.7147 310.843 92.08C310.843 93.4453 310.528 94.4693 309.899 95.152C309.269 95.824 308.411 96.16 307.323 96.16C306.405 96.16 305.621 95.9467 304.971 95.52V99.456H303.227ZM306.875 94.848C308.347 94.848 309.083 93.92 309.083 92.064C309.083 91.168 308.917 90.5333 308.587 90.16C308.256 89.776 307.701 89.584 306.923 89.584C306.144 89.584 305.493 89.8507 304.971 90.384V94.176C305.216 94.3787 305.488 94.544 305.787 94.672C306.096 94.7893 306.459 94.848 306.875 94.848ZM321.027 96.16C319.331 96.16 318.051 95.7013 317.187 94.784C316.333 93.8667 315.907 92.624 315.907 91.056C315.907 89.9253 316.093 88.9493 316.467 88.128C316.84 87.296 317.405 86.656 318.163 86.208C318.931 85.76 319.901 85.536 321.075 85.536C321.683 85.536 322.232 85.5787 322.723 85.664C323.224 85.7387 323.693 85.8507 324.131 86V87.504C323.256 87.184 322.285 87.024 321.219 87.024C319.907 87.024 318.984 87.3707 318.451 88.064C317.928 88.7573 317.667 89.7547 317.667 91.056C317.667 92.24 317.944 93.1413 318.499 93.76C319.053 94.3787 319.912 94.688 321.075 94.688C321.992 94.688 322.733 94.5813 323.299 94.368V91.488H320.723V90.352H324.787V95.312C324.456 95.5253 323.981 95.7227 323.363 95.904C322.755 96.0747 321.976 96.16 321.027 96.16ZM328.845 96.16C328.365 96.16 327.917 96.0747 327.501 95.904C327.095 95.7333 326.77 95.4773 326.525 95.136C326.279 94.784 326.157 94.352 326.157 93.84C326.157 93.1147 326.402 92.5333 326.893 92.096C327.394 91.648 328.162 91.424 329.197 91.424H331.629V91.088C331.629 90.7253 331.57 90.4373 331.453 90.224C331.346 90.0107 331.143 89.856 330.845 89.76C330.557 89.664 330.13 89.616 329.565 89.616C328.669 89.616 327.831 89.7493 327.053 90.016V88.72C327.394 88.5813 327.81 88.4693 328.301 88.384C328.791 88.2987 329.319 88.256 329.885 88.256C330.994 88.256 331.837 88.48 332.413 88.928C332.999 89.376 333.293 90.1067 333.293 91.12V96H331.805L331.693 95.232C331.383 95.5307 330.999 95.76 330.541 95.92C330.093 96.08 329.527 96.16 328.845 96.16ZM329.309 94.912C329.831 94.912 330.285 94.8267 330.669 94.656C331.063 94.4747 331.383 94.2347 331.629 93.936V92.608H329.229C328.717 92.608 328.343 92.7093 328.109 92.912C327.885 93.104 327.773 93.4027 327.773 93.808C327.773 94.2027 327.906 94.4853 328.173 94.656C328.439 94.8267 328.818 94.912 329.309 94.912ZM338.123 96.16C337.312 96.16 336.704 95.9467 336.299 95.52C335.904 95.0827 335.707 94.4907 335.707 93.744V89.776H334.587V88.416H335.707V86.672L337.435 86.144V88.416H339.451L339.339 89.776H337.435V93.648C337.435 94.0853 337.536 94.3947 337.739 94.576C337.941 94.7467 338.272 94.832 338.731 94.832C339.019 94.832 339.323 94.7787 339.643 94.672V95.904C339.227 96.0747 338.72 96.16 338.123 96.16ZM344.817 96.16C343.494 96.16 342.47 95.8347 341.745 95.184C341.019 94.5333 340.657 93.536 340.657 92.192C340.657 90.976 340.966 90.016 341.585 89.312C342.203 88.608 343.142 88.256 344.401 88.256C345.553 88.256 346.417 88.56 346.993 89.168C347.579 89.7653 347.873 90.5387 347.873 91.488V92.896H342.321C342.406 93.632 342.673 94.1387 343.121 94.416C343.569 94.6933 344.251 94.832 345.169 94.832C345.553 94.832 345.947 94.7947 346.353 94.72C346.758 94.6453 347.11 94.5493 347.409 94.432V95.712C347.067 95.8613 346.673 95.9733 346.225 96.048C345.787 96.1227 345.318 96.16 344.817 96.16ZM342.321 91.76H346.337V91.232C346.337 90.7093 346.193 90.304 345.905 90.016C345.617 89.7173 345.131 89.568 344.449 89.568C343.638 89.568 343.078 89.744 342.769 90.096C342.47 90.448 342.321 91.0027 342.321 91.76ZM349.571 96V85.216H351.315V91.456L354.499 88.416H356.499L353.411 91.472L356.675 96H354.835L352.323 92.4L351.315 93.36V96H349.571ZM360.957 96.16C359.635 96.16 358.611 95.8347 357.885 95.184C357.16 94.5333 356.797 93.536 356.797 92.192C356.797 90.976 357.107 90.016 357.725 89.312C358.344 88.608 359.283 88.256 360.541 88.256C361.693 88.256 362.557 88.56 363.133 89.168C363.72 89.7653 364.013 90.5387 364.013 91.488V92.896H358.461C358.547 93.632 358.813 94.1387 359.261 94.416C359.709 94.6933 360.392 94.832 361.309 94.832C361.693 94.832 362.088 94.7947 362.493 94.72C362.899 94.6453 363.251 94.5493 363.549 94.432V95.712C363.208 95.8613 362.813 95.9733 362.365 96.048C361.928 96.1227 361.459 96.16 360.957 96.16ZM358.461 91.76H362.477V91.232C362.477 90.7093 362.333 90.304 362.045 90.016C361.757 89.7173 361.272 89.568 360.589 89.568C359.779 89.568 359.219 89.744 358.909 90.096C358.611 90.448 358.461 91.0027 358.461 91.76ZM369.551 96.16C368.228 96.16 367.204 95.8347 366.479 95.184C365.754 94.5333 365.391 93.536 365.391 92.192C365.391 90.976 365.7 90.016 366.319 89.312C366.938 88.608 367.876 88.256 369.135 88.256C370.287 88.256 371.151 88.56 371.727 89.168C372.314 89.7653 372.607 90.5387 372.607 91.488V92.896H367.055C367.14 93.632 367.407 94.1387 367.855 94.416C368.303 94.6933 368.986 94.832 369.903 94.832C370.287 94.832 370.682 94.7947 371.087 94.72C371.492 94.6453 371.844 94.5493 372.143 94.432V95.712C371.802 95.8613 371.407 95.9733 370.959 96.048C370.522 96.1227 370.052 96.16 369.551 96.16ZM367.055 91.76H371.071V91.232C371.071 90.7093 370.927 90.304 370.639 90.016C370.351 89.7173 369.866 89.568 369.183 89.568C368.372 89.568 367.812 89.744 367.503 90.096C367.204 90.448 367.055 91.0027 367.055 91.76ZM374.305 99.456V88.416H375.809L375.905 89.168C376.246 88.8587 376.62 88.6293 377.025 88.48C377.43 88.3307 377.91 88.256 378.465 88.256C379.553 88.256 380.401 88.5547 381.009 89.152C381.617 89.7387 381.921 90.7147 381.921 92.08C381.921 93.4453 381.606 94.4693 380.977 95.152C380.348 95.824 379.489 96.16 378.401 96.16C377.484 96.16 376.7 95.9467 376.049 95.52V99.456H374.305ZM377.953 94.848C379.425 94.848 380.161 93.92 380.161 92.064C380.161 91.168 379.996 90.5333 379.665 90.16C379.334 89.776 378.78 89.584 378.001 89.584C377.222 89.584 376.572 89.8507 376.049 90.384V94.176C376.294 94.3787 376.566 94.544 376.865 94.672C377.174 94.7893 377.537 94.848 377.953 94.848ZM387.457 96.16C386.135 96.16 385.111 95.8347 384.385 95.184C383.66 94.5333 383.297 93.536 383.297 92.192C383.297 90.976 383.607 90.016 384.225 89.312C384.844 88.608 385.783 88.256 387.041 88.256C388.193 88.256 389.057 88.56 389.633 89.168C390.22 89.7653 390.513 90.5387 390.513 91.488V92.896H384.961C385.047 93.632 385.313 94.1387 385.761 94.416C386.209 94.6933 386.892 94.832 387.809 94.832C388.193 94.832 388.588 94.7947 388.993 94.72C389.399 94.6453 389.751 94.5493 390.049 94.432V95.712C389.708 95.8613 389.313 95.9733 388.865 96.048C388.428 96.1227 387.959 96.16 387.457 96.16ZM384.961 91.76H388.977V91.232C388.977 90.7093 388.833 90.304 388.545 90.016C388.257 89.7173 387.772 89.568 387.089 89.568C386.279 89.568 385.719 89.744 385.409 90.096C385.111 90.448 384.961 91.0027 384.961 91.76ZM392.211 96V88.416H393.811L393.907 89.296C394.27 89.0613 394.702 88.848 395.203 88.656C395.704 88.464 396.2 88.3307 396.691 88.256V89.584C396.392 89.6373 396.067 89.7173 395.715 89.824C395.374 89.92 395.048 90.032 394.739 90.16C394.43 90.2773 394.168 90.4 393.955 90.528V96H392.211ZM400.411 96.16C399.888 96.16 399.387 96.1227 398.907 96.048C398.438 95.9733 398.048 95.8827 397.739 95.776V94.304C398.102 94.4427 398.502 94.5493 398.939 94.624C399.376 94.6987 399.792 94.736 400.187 94.736C400.784 94.736 401.211 94.6827 401.467 94.576C401.723 94.4693 401.851 94.2613 401.851 93.952C401.851 93.728 401.771 93.552 401.611 93.424C401.462 93.296 401.232 93.1787 400.923 93.072C400.624 92.9653 400.24 92.8373 399.771 92.688C399.323 92.5387 398.934 92.3787 398.603 92.208C398.272 92.0267 398.016 91.7973 397.835 91.52C397.654 91.2427 397.563 90.88 397.563 90.432C397.563 89.7387 397.814 89.2053 398.315 88.832C398.816 88.448 399.622 88.256 400.731 88.256C401.168 88.256 401.584 88.288 401.979 88.352C402.374 88.416 402.71 88.496 402.987 88.592V90.048C402.688 89.9307 402.358 89.84 401.995 89.776C401.643 89.712 401.312 89.68 401.003 89.68C400.448 89.68 400.027 89.728 399.739 89.824C399.462 89.92 399.323 90.112 399.323 90.4C399.323 90.6987 399.467 90.912 399.755 91.04C400.054 91.1573 400.528 91.3227 401.179 91.536C401.776 91.7173 402.251 91.9093 402.603 92.112C402.955 92.3147 403.206 92.56 403.355 92.848C403.515 93.1253 403.595 93.488 403.595 93.936C403.595 94.6827 403.323 95.2427 402.779 95.616C402.235 95.9787 401.446 96.16 400.411 96.16ZM408.992 96V88.416H410.592L410.688 89.296C411.051 89.0613 411.483 88.848 411.984 88.656C412.486 88.464 412.982 88.3307 413.472 88.256V89.584C413.174 89.6373 412.848 89.7173 412.496 89.824C412.155 89.92 411.83 90.032 411.52 90.16C411.211 90.2773 410.95 90.4 410.736 90.528V96H408.992ZM418.27 96.16C416.947 96.16 415.923 95.8347 415.198 95.184C414.473 94.5333 414.11 93.536 414.11 92.192C414.11 90.976 414.419 90.016 415.038 89.312C415.657 88.608 416.595 88.256 417.854 88.256C419.006 88.256 419.87 88.56 420.446 89.168C421.033 89.7653 421.326 90.5387 421.326 91.488V92.896H415.774C415.859 93.632 416.126 94.1387 416.574 94.416C417.022 94.6933 417.705 94.832 418.622 94.832C419.006 94.832 419.401 94.7947 419.806 94.72C420.211 94.6453 420.563 94.5493 420.862 94.432V95.712C420.521 95.8613 420.126 95.9733 419.678 96.048C419.241 96.1227 418.771 96.16 418.27 96.16ZM415.774 91.76H419.79V91.232C419.79 90.7093 419.646 90.304 419.358 90.016C419.07 89.7173 418.585 89.568 417.902 89.568C417.091 89.568 416.531 89.744 416.222 90.096C415.923 90.448 415.774 91.0027 415.774 91.76ZM423.024 99.456V88.416H424.528L424.624 89.168C424.965 88.8587 425.338 88.6293 425.744 88.48C426.149 88.3307 426.629 88.256 427.184 88.256C428.272 88.256 429.12 88.5547 429.728 89.152C430.336 89.7387 430.64 90.7147 430.64 92.08C430.64 93.4453 430.325 94.4693 429.696 95.152C429.066 95.824 428.208 96.16 427.12 96.16C426.202 96.16 425.418 95.9467 424.768 95.52V99.456H423.024ZM426.672 94.848C428.144 94.848 428.88 93.92 428.88 92.064C428.88 91.168 428.714 90.5333 428.384 90.16C428.053 89.776 427.498 89.584 426.72 89.584C425.941 89.584 425.29 89.8507 424.768 90.384V94.176C425.013 94.3787 425.285 94.544 425.584 94.672C425.893 94.7893 426.256 94.848 426.672 94.848ZM435.968 96.16C434.603 96.16 433.6 95.8187 432.96 95.136C432.331 94.4533 432.016 93.4773 432.016 92.208C432.016 90.9387 432.336 89.9627 432.976 89.28C433.616 88.5973 434.613 88.256 435.968 88.256C437.333 88.256 438.336 88.5973 438.976 89.28C439.616 89.9627 439.936 90.9387 439.936 92.208C439.936 93.4773 439.616 94.4533 438.976 95.136C438.347 95.8187 437.344 96.16 435.968 96.16ZM435.968 94.688C436.768 94.688 437.333 94.496 437.664 94.112C438.005 93.7173 438.176 93.0827 438.176 92.208C438.176 91.3333 438.005 90.704 437.664 90.32C437.333 89.936 436.768 89.744 435.968 89.744C435.179 89.744 434.613 89.936 434.272 90.32C433.941 90.704 433.776 91.3333 433.776 92.208C433.776 93.0827 433.941 93.7173 434.272 94.112C434.613 94.496 435.179 94.688 435.968 94.688ZM441.633 96V88.416H443.233L443.329 89.296C443.692 89.0613 444.124 88.848 444.625 88.656C445.126 88.464 445.622 88.3307 446.113 88.256V89.584C445.814 89.6373 445.489 89.7173 445.137 89.824C444.796 89.92 444.47 90.032 444.161 90.16C443.852 90.2773 443.59 90.4 443.377 90.528V96H441.633ZM450.279 96.16C449.468 96.16 448.86 95.9467 448.455 95.52C448.06 95.0827 447.863 94.4907 447.863 93.744V89.776H446.743V88.416H447.863V86.672L449.591 86.144V88.416H451.607L451.495 89.776H449.591V93.648C449.591 94.0853 449.692 94.3947 449.895 94.576C450.098 94.7467 450.428 94.832 450.887 94.832C451.175 94.832 451.479 94.7787 451.799 94.672V95.904C451.383 96.0747 450.876 96.16 450.279 96.16ZM453.773 86.832V85.392H455.677V86.832H453.773ZM453.917 96V89.744H452.765L452.925 88.416H455.661V96H453.917ZM457.696 96V88.416H459.296L459.376 89.216C459.717 88.9493 460.122 88.7253 460.592 88.544C461.072 88.352 461.6 88.256 462.176 88.256C463.157 88.256 463.872 88.4853 464.32 88.944C464.768 89.4027 464.992 90.1173 464.992 91.088V96H463.264V91.168C463.264 90.5813 463.141 90.1707 462.896 89.936C462.661 89.7013 462.213 89.584 461.552 89.584C461.157 89.584 460.768 89.664 460.384 89.824C460.01 89.984 459.696 90.192 459.44 90.448V96H457.696ZM470.018 98.816C469.452 98.816 468.887 98.7787 468.322 98.704C467.756 98.64 467.276 98.5387 466.882 98.4V97.056C467.308 97.1947 467.799 97.3013 468.354 97.376C468.908 97.4507 469.436 97.488 469.938 97.488C470.706 97.488 471.266 97.4453 471.618 97.36C471.97 97.2747 472.146 97.0827 472.146 96.784C472.146 96.56 472.06 96.4 471.89 96.304C471.719 96.2187 471.394 96.176 470.914 96.176H468.866C467.49 96.176 466.802 95.6907 466.802 94.72C466.802 94.4107 466.892 94.1227 467.074 93.856C467.255 93.5893 467.543 93.3867 467.938 93.248C467.5 93.0347 467.175 92.7413 466.962 92.368C466.759 91.9947 466.658 91.5467 466.658 91.024C466.658 90.0533 466.946 89.3493 467.522 88.912C468.108 88.4747 468.983 88.256 470.146 88.256C470.391 88.256 470.647 88.2773 470.914 88.32C471.18 88.352 471.388 88.384 471.538 88.416H474.322L474.274 89.552H472.994C473.196 89.7227 473.346 89.936 473.442 90.192C473.538 90.448 473.586 90.7253 473.586 91.024C473.586 91.8347 473.34 92.4747 472.85 92.944C472.359 93.4027 471.618 93.632 470.626 93.632C470.455 93.632 470.295 93.6267 470.146 93.616C470.007 93.5947 469.852 93.5733 469.682 93.552C469.362 93.584 469.074 93.6693 468.818 93.808C468.562 93.9467 468.434 94.1333 468.434 94.368C468.434 94.528 468.498 94.6453 468.626 94.72C468.754 94.784 468.967 94.816 469.266 94.816H471.394C472.151 94.816 472.732 94.9813 473.138 95.312C473.554 95.632 473.762 96.1013 473.762 96.72C473.762 97.4667 473.436 98 472.786 98.32C472.146 98.6507 471.223 98.816 470.018 98.816ZM470.146 92.528C470.839 92.528 471.319 92.4107 471.586 92.176C471.863 91.9413 472.002 91.5413 472.002 90.976C472.002 90.4107 471.863 90 471.586 89.744C471.319 89.488 470.839 89.36 470.146 89.36C469.495 89.36 469.02 89.4827 468.722 89.728C468.423 89.9733 468.274 90.3893 468.274 90.976C468.274 91.52 468.412 91.9147 468.69 92.16C468.978 92.4053 469.463 92.528 470.146 92.528ZM265.376 120.16C264.896 120.16 264.448 120.075 264.032 119.904C263.627 119.733 263.301 119.477 263.056 119.136C262.811 118.784 262.688 118.352 262.688 117.84C262.688 117.115 262.933 116.533 263.424 116.096C263.925 115.648 264.693 115.424 265.728 115.424H268.16V115.088C268.16 114.725 268.101 114.437 267.984 114.224C267.877 114.011 267.675 113.856 267.376 113.76C267.088 113.664 266.661 113.616 266.096 113.616C265.2 113.616 264.363 113.749 263.584 114.016V112.72C263.925 112.581 264.341 112.469 264.832 112.384C265.323 112.299 265.851 112.256 266.416 112.256C267.525 112.256 268.368 112.48 268.944 112.928C269.531 113.376 269.824 114.107 269.824 115.12V120H268.336L268.224 119.232C267.915 119.531 267.531 119.76 267.072 119.92C266.624 120.08 266.059 120.16 265.376 120.16ZM265.84 118.912C266.363 118.912 266.816 118.827 267.2 118.656C267.595 118.475 267.915 118.235 268.16 117.936V116.608H265.76C265.248 116.608 264.875 116.709 264.64 116.912C264.416 117.104 264.304 117.403 264.304 117.808C264.304 118.203 264.437 118.485 264.704 118.656C264.971 118.827 265.349 118.912 265.84 118.912ZM275.918 120.16C275.363 120.16 274.883 120.085 274.478 119.936C274.073 119.787 273.699 119.557 273.358 119.248L273.262 120H271.758V109.216H273.502V112.912C274.163 112.475 274.958 112.256 275.886 112.256C276.963 112.256 277.811 112.565 278.43 113.184C279.059 113.792 279.374 114.779 279.374 116.144C279.374 117.52 279.065 118.533 278.446 119.184C277.827 119.835 276.985 120.16 275.918 120.16ZM275.454 118.848C276.243 118.848 276.798 118.624 277.118 118.176C277.449 117.728 277.614 117.051 277.614 116.144C277.614 115.205 277.438 114.544 277.086 114.16C276.734 113.776 276.179 113.584 275.422 113.584C274.633 113.584 273.993 113.803 273.502 114.24V118.048C274.003 118.581 274.654 118.848 275.454 118.848ZM284.703 120.16C283.337 120.16 282.335 119.819 281.695 119.136C281.065 118.453 280.751 117.477 280.751 116.208C280.751 114.939 281.071 113.963 281.711 113.28C282.351 112.597 283.348 112.256 284.703 112.256C286.068 112.256 287.071 112.597 287.711 113.28C288.351 113.963 288.671 114.939 288.671 116.208C288.671 117.477 288.351 118.453 287.711 119.136C287.081 119.819 286.079 120.16 284.703 120.16ZM284.703 118.688C285.503 118.688 286.068 118.496 286.399 118.112C286.74 117.717 286.911 117.083 286.911 116.208C286.911 115.333 286.74 114.704 286.399 114.32C286.068 113.936 285.503 113.744 284.703 113.744C283.913 113.744 283.348 113.936 283.007 114.32C282.676 114.704 282.511 115.333 282.511 116.208C282.511 117.083 282.676 117.717 283.007 118.112C283.348 118.496 283.913 118.688 284.703 118.688ZM293.103 120.16C292.197 120.16 291.498 119.909 291.007 119.408C290.527 118.907 290.287 118.171 290.287 117.2V112.416H292.031V117.2C292.031 117.765 292.17 118.181 292.447 118.448C292.725 118.715 293.151 118.848 293.727 118.848C294.154 118.848 294.549 118.768 294.911 118.608C295.274 118.448 295.589 118.235 295.855 117.968V112.416H297.583V120H295.999L295.919 119.216C295.578 119.483 295.173 119.707 294.703 119.888C294.234 120.069 293.701 120.16 293.103 120.16ZM302.513 120.16C301.703 120.16 301.095 119.947 300.689 119.52C300.295 119.083 300.097 118.491 300.097 117.744V113.776H298.977V112.416H300.097V110.672L301.825 110.144V112.416H303.841L303.729 113.776H301.825V117.648C301.825 118.085 301.927 118.395 302.129 118.576C302.332 118.747 302.663 118.832 303.121 118.832C303.409 118.832 303.713 118.779 304.033 118.672V119.904C303.617 120.075 303.111 120.16 302.513 120.16ZM311.951 120.16C311.14 120.16 310.532 119.947 310.127 119.52C309.732 119.083 309.535 118.491 309.535 117.744V113.776H308.415V112.416H309.535V110.672L311.263 110.144V112.416H313.279L313.167 113.776H311.263V117.648C311.263 118.085 311.364 118.395 311.567 118.576C311.77 118.747 312.1 118.832 312.559 118.832C312.847 118.832 313.151 118.779 313.471 118.672V119.904C313.055 120.075 312.548 120.16 311.951 120.16ZM314.805 120V109.216H316.549V113.152C316.88 112.885 317.274 112.672 317.733 112.512C318.192 112.341 318.709 112.256 319.285 112.256C320.245 112.256 320.954 112.485 321.413 112.944C321.872 113.403 322.101 114.117 322.101 115.088V120H320.373V115.168C320.373 114.581 320.245 114.171 319.989 113.936C319.744 113.701 319.312 113.584 318.693 113.584C318.309 113.584 317.92 113.669 317.525 113.84C317.13 114 316.805 114.213 316.549 114.48V120H314.805ZM327.739 120.16C326.416 120.16 325.392 119.835 324.667 119.184C323.941 118.533 323.579 117.536 323.579 116.192C323.579 114.976 323.888 114.016 324.507 113.312C325.125 112.608 326.064 112.256 327.323 112.256C328.475 112.256 329.339 112.56 329.915 113.168C330.501 113.765 330.795 114.539 330.795 115.488V116.896H325.243C325.328 117.632 325.595 118.139 326.043 118.416C326.491 118.693 327.173 118.832 328.091 118.832C328.475 118.832 328.869 118.795 329.275 118.72C329.68 118.645 330.032 118.549 330.331 118.432V119.712C329.989 119.861 329.595 119.973 329.147 120.048C328.709 120.123 328.24 120.16 327.739 120.16ZM325.243 115.76H329.259V115.232C329.259 114.709 329.115 114.304 328.827 114.016C328.539 113.717 328.053 113.568 327.371 113.568C326.56 113.568 326 113.744 325.691 114.096C325.392 114.448 325.243 115.003 325.243 115.76ZM339.076 120.16C338.265 120.16 337.657 119.947 337.252 119.52C336.857 119.083 336.66 118.491 336.66 117.744V113.776H335.54V112.416H336.66V110.672L338.388 110.144V112.416H340.404L340.292 113.776H338.388V117.648C338.388 118.085 338.489 118.395 338.692 118.576C338.895 118.747 339.225 118.832 339.684 118.832C339.972 118.832 340.276 118.779 340.596 118.672V119.904C340.18 120.075 339.673 120.16 339.076 120.16ZM341.93 120V109.216H343.674V113.152C344.005 112.885 344.399 112.672 344.858 112.512C345.317 112.341 345.834 112.256 346.41 112.256C347.37 112.256 348.079 112.485 348.538 112.944C348.997 113.403 349.226 114.117 349.226 115.088V120H347.498V115.168C347.498 114.581 347.37 114.171 347.114 113.936C346.869 113.701 346.437 113.584 345.818 113.584C345.434 113.584 345.045 113.669 344.65 113.84C344.255 114 343.93 114.213 343.674 114.48V120H341.93ZM354.864 120.16C353.541 120.16 352.517 119.835 351.792 119.184C351.066 118.533 350.704 117.536 350.704 116.192C350.704 114.976 351.013 114.016 351.632 113.312C352.25 112.608 353.189 112.256 354.448 112.256C355.6 112.256 356.464 112.56 357.04 113.168C357.626 113.765 357.92 114.539 357.92 115.488V116.896H352.368C352.453 117.632 352.72 118.139 353.168 118.416C353.616 118.693 354.298 118.832 355.216 118.832C355.6 118.832 355.994 118.795 356.4 118.72C356.805 118.645 357.157 118.549 357.456 118.432V119.712C357.114 119.861 356.72 119.973 356.272 120.048C355.834 120.123 355.365 120.16 354.864 120.16ZM352.368 115.76H356.384V115.232C356.384 114.709 356.24 114.304 355.952 114.016C355.664 113.717 355.178 113.568 354.496 113.568C353.685 113.568 353.125 113.744 352.816 114.096C352.517 114.448 352.368 115.003 352.368 115.76ZM360.081 120V113.776H358.977V112.416H360.081V111.488C360.081 110.731 360.289 110.123 360.705 109.664C361.132 109.195 361.761 108.96 362.593 108.96C362.903 108.96 363.185 108.987 363.441 109.04C363.697 109.083 363.932 109.147 364.145 109.232V110.48C363.815 110.363 363.479 110.304 363.137 110.304C362.636 110.304 362.289 110.395 362.097 110.576C361.905 110.757 361.809 111.067 361.809 111.504V112.416H363.793L363.713 113.776H361.809V120H360.081ZM367.795 120.16C366.984 120.16 366.376 119.947 365.971 119.52C365.576 119.083 365.379 118.491 365.379 117.744V113.776H364.259V112.416H365.379V110.672L367.107 110.144V112.416H369.123L369.011 113.776H367.107V117.648C367.107 118.085 367.208 118.395 367.411 118.576C367.613 118.747 367.944 118.832 368.403 118.832C368.691 118.832 368.995 118.779 369.315 118.672V119.904C368.899 120.075 368.392 120.16 367.795 120.16ZM370.329 120V118.64H371.801V120H370.329ZM377.196 120V109.696H378.94V114.176H383.9V109.696H385.644V120H383.9V115.52H378.94V120H377.196ZM391.296 120.16C389.931 120.16 388.928 119.819 388.288 119.136C387.659 118.453 387.344 117.477 387.344 116.208C387.344 114.939 387.664 113.963 388.304 113.28C388.944 112.597 389.942 112.256 391.296 112.256C392.662 112.256 393.664 112.597 394.304 113.28C394.944 113.963 395.264 114.939 395.264 116.208C395.264 117.477 394.944 118.453 394.304 119.136C393.675 119.819 392.672 120.16 391.296 120.16ZM391.296 118.688C392.096 118.688 392.662 118.496 392.992 118.112C393.334 117.717 393.504 117.083 393.504 116.208C393.504 115.333 393.334 114.704 392.992 114.32C392.662 113.936 392.096 113.744 391.296 113.744C390.507 113.744 389.942 113.936 389.6 114.32C389.27 114.704 389.104 115.333 389.104 116.208C389.104 117.083 389.27 117.717 389.6 118.112C389.942 118.496 390.507 118.688 391.296 118.688ZM399.697 120.16C398.79 120.16 398.092 119.909 397.601 119.408C397.121 118.907 396.881 118.171 396.881 117.2V112.416H398.625V117.2C398.625 117.765 398.764 118.181 399.041 118.448C399.318 118.715 399.745 118.848 400.321 118.848C400.748 118.848 401.142 118.768 401.505 118.608C401.868 118.448 402.182 118.235 402.449 117.968V112.416H404.177V120H402.593L402.513 119.216C402.172 119.483 401.766 119.707 401.297 119.888C400.828 120.069 400.294 120.16 399.697 120.16ZM408.739 120.16C408.216 120.16 407.715 120.123 407.235 120.048C406.766 119.973 406.376 119.883 406.067 119.776V118.304C406.43 118.443 406.83 118.549 407.267 118.624C407.704 118.699 408.12 118.736 408.515 118.736C409.112 118.736 409.539 118.683 409.795 118.576C410.051 118.469 410.179 118.261 410.179 117.952C410.179 117.728 410.099 117.552 409.939 117.424C409.79 117.296 409.56 117.179 409.251 117.072C408.952 116.965 408.568 116.837 408.099 116.688C407.651 116.539 407.262 116.379 406.931 116.208C406.6 116.027 406.344 115.797 406.163 115.52C405.982 115.243 405.891 114.88 405.891 114.432C405.891 113.739 406.142 113.205 406.643 112.832C407.144 112.448 407.95 112.256 409.059 112.256C409.496 112.256 409.912 112.288 410.307 112.352C410.702 112.416 411.038 112.496 411.315 112.592V114.048C411.016 113.931 410.686 113.84 410.323 113.776C409.971 113.712 409.64 113.68 409.331 113.68C408.776 113.68 408.355 113.728 408.067 113.824C407.79 113.92 407.651 114.112 407.651 114.4C407.651 114.699 407.795 114.912 408.083 115.04C408.382 115.157 408.856 115.323 409.507 115.536C410.104 115.717 410.579 115.909 410.931 116.112C411.283 116.315 411.534 116.56 411.683 116.848C411.843 117.125 411.923 117.488 411.923 117.936C411.923 118.683 411.651 119.243 411.107 119.616C410.563 119.979 409.774 120.16 408.739 120.16ZM417.239 120.16C415.916 120.16 414.892 119.835 414.167 119.184C413.441 118.533 413.079 117.536 413.079 116.192C413.079 114.976 413.388 114.016 414.007 113.312C414.625 112.608 415.564 112.256 416.823 112.256C417.975 112.256 418.839 112.56 419.415 113.168C420.001 113.765 420.295 114.539 420.295 115.488V116.896H414.743C414.828 117.632 415.095 118.139 415.543 118.416C415.991 118.693 416.673 118.832 417.591 118.832C417.975 118.832 418.369 118.795 418.775 118.72C419.18 118.645 419.532 118.549 419.831 118.432V119.712C419.489 119.861 419.095 119.973 418.647 120.048C418.209 120.123 417.74 120.16 417.239 120.16ZM414.743 115.76H418.759V115.232C418.759 114.709 418.615 114.304 418.327 114.016C418.039 113.717 417.553 113.568 416.871 113.568C416.06 113.568 415.5 113.744 415.191 114.096C414.892 114.448 414.743 115.003 414.743 115.76ZM421.672 116.368V115.008H427.784V116.368H421.672ZM429.477 120V109.216H431.221V113.152C431.551 112.885 431.946 112.672 432.405 112.512C432.863 112.341 433.381 112.256 433.957 112.256C434.917 112.256 435.626 112.485 436.085 112.944C436.543 113.403 436.773 114.117 436.773 115.088V120H435.045V115.168C435.045 114.581 434.917 114.171 434.661 113.936C434.415 113.701 433.983 113.584 433.365 113.584C432.981 113.584 432.591 113.669 432.197 113.84C431.802 114 431.477 114.213 431.221 114.48V120H429.477ZM442.411 120.16C441.088 120.16 440.064 119.835 439.339 119.184C438.613 118.533 438.251 117.536 438.251 116.192C438.251 114.976 438.56 114.016 439.179 113.312C439.797 112.608 440.736 112.256 441.995 112.256C443.147 112.256 444.011 112.56 444.587 113.168C445.173 113.765 445.467 114.539 445.467 115.488V116.896H439.914C440 117.632 440.267 118.139 440.715 118.416C441.163 118.693 441.845 118.832 442.763 118.832C443.147 118.832 443.541 118.795 443.947 118.72C444.352 118.645 444.704 118.549 445.003 118.432V119.712C444.661 119.861 444.267 119.973 443.819 120.048C443.381 120.123 442.912 120.16 442.411 120.16ZM439.914 115.76H443.931V115.232C443.931 114.709 443.787 114.304 443.499 114.016C443.211 113.717 442.725 113.568 442.043 113.568C441.232 113.568 440.672 113.744 440.363 114.096C440.064 114.448 439.914 115.003 439.914 115.76ZM449.052 120.16C448.434 120.16 447.964 120.011 447.644 119.712C447.324 119.403 447.164 118.896 447.164 118.192V109.216H448.908V118.032C448.908 118.331 448.962 118.533 449.068 118.64C449.175 118.747 449.335 118.8 449.548 118.8C449.804 118.8 450.05 118.768 450.284 118.704V119.968C450.082 120.043 449.884 120.091 449.692 120.112C449.511 120.144 449.298 120.16 449.052 120.16ZM451.649 123.456V112.416H453.153L453.249 113.168C453.59 112.859 453.963 112.629 454.369 112.48C454.774 112.331 455.254 112.256 455.809 112.256C456.897 112.256 457.745 112.555 458.353 113.152C458.961 113.739 459.265 114.715 459.265 116.08C459.265 117.445 458.95 118.469 458.321 119.152C457.691 119.824 456.833 120.16 455.745 120.16C454.827 120.16 454.043 119.947 453.393 119.52V123.456H451.649ZM455.297 118.848C456.769 118.848 457.505 117.92 457.505 116.064C457.505 115.168 457.339 114.533 457.009 114.16C456.678 113.776 456.123 113.584 455.345 113.584C454.566 113.584 453.915 113.851 453.393 114.384V118.176C453.638 118.379 453.91 118.544 454.209 118.672C454.518 118.789 454.881 118.848 455.297 118.848ZM264.688 144L262.688 136.416H264.432L265.744 141.936L267.232 137.344V136.416H268.56L270.208 141.936L271.52 136.416H273.248L271.264 144H269.616L268 139.04L266.352 144H264.688ZM276.595 144.16C276.115 144.16 275.667 144.075 275.251 143.904C274.845 143.733 274.52 143.477 274.275 143.136C274.029 142.784 273.907 142.352 273.907 141.84C273.907 141.115 274.152 140.533 274.643 140.096C275.144 139.648 275.912 139.424 276.947 139.424H279.379V139.088C279.379 138.725 279.32 138.437 279.203 138.224C279.096 138.011 278.893 137.856 278.595 137.76C278.307 137.664 277.88 137.616 277.315 137.616C276.419 137.616 275.581 137.749 274.803 138.016V136.72C275.144 136.581 275.56 136.469 276.051 136.384C276.541 136.299 277.069 136.256 277.635 136.256C278.744 136.256 279.587 136.48 280.163 136.928C280.749 137.376 281.043 138.107 281.043 139.12V144H279.555L279.443 143.232C279.133 143.531 278.749 143.76 278.291 143.92C277.843 144.08 277.277 144.16 276.595 144.16ZM277.059 142.912C277.581 142.912 278.035 142.827 278.419 142.656C278.813 142.475 279.133 142.235 279.379 141.936V140.608H276.979C276.467 140.608 276.093 140.709 275.859 140.912C275.635 141.104 275.523 141.403 275.523 141.808C275.523 142.203 275.656 142.485 275.923 142.656C276.189 142.827 276.568 142.912 277.059 142.912ZM285.505 144.16C284.982 144.16 284.481 144.123 284.001 144.048C283.531 143.973 283.142 143.883 282.833 143.776V142.304C283.195 142.443 283.595 142.549 284.033 142.624C284.47 142.699 284.886 142.736 285.281 142.736C285.878 142.736 286.305 142.683 286.561 142.576C286.817 142.469 286.945 142.261 286.945 141.952C286.945 141.728 286.865 141.552 286.705 141.424C286.555 141.296 286.326 141.179 286.017 141.072C285.718 140.965 285.334 140.837 284.865 140.688C284.417 140.539 284.027 140.379 283.697 140.208C283.366 140.027 283.11 139.797 282.929 139.52C282.747 139.243 282.657 138.88 282.657 138.432C282.657 137.739 282.907 137.205 283.409 136.832C283.91 136.448 284.715 136.256 285.825 136.256C286.262 136.256 286.678 136.288 287.073 136.352C287.467 136.416 287.803 136.496 288.081 136.592V138.048C287.782 137.931 287.451 137.84 287.089 137.776C286.737 137.712 286.406 137.68 286.097 137.68C285.542 137.68 285.121 137.728 284.833 137.824C284.555 137.92 284.417 138.112 284.417 138.4C284.417 138.699 284.561 138.912 284.849 139.04C285.147 139.157 285.622 139.323 286.273 139.536C286.87 139.717 287.345 139.909 287.697 140.112C288.049 140.315 288.299 140.56 288.449 140.848C288.609 141.125 288.689 141.488 288.689 141.936C288.689 142.683 288.417 143.243 287.873 143.616C287.329 143.979 286.539 144.16 285.505 144.16ZM296.982 144.16C296.171 144.16 295.563 143.947 295.158 143.52C294.763 143.083 294.566 142.491 294.566 141.744V137.776H293.446V136.416H294.566V134.672L296.294 134.144V136.416H298.31L298.198 137.776H296.294V141.648C296.294 142.085 296.395 142.395 296.598 142.576C296.801 142.747 297.131 142.832 297.59 142.832C297.878 142.832 298.182 142.779 298.502 142.672V143.904C298.086 144.075 297.579 144.16 296.982 144.16ZM299.836 144V136.416H301.436L301.532 137.296C301.895 137.061 302.327 136.848 302.828 136.656C303.329 136.464 303.825 136.331 304.316 136.256V137.584C304.017 137.637 303.692 137.717 303.34 137.824C302.999 137.92 302.673 138.032 302.364 138.16C302.055 138.277 301.793 138.4 301.58 138.528V144H299.836ZM306.736 146.816C306.16 146.816 305.669 146.741 305.264 146.592V145.296C305.445 145.36 305.61 145.403 305.76 145.424C305.92 145.445 306.08 145.456 306.24 145.456C306.57 145.456 306.837 145.403 307.04 145.296C307.242 145.189 307.418 145.019 307.568 144.784C307.728 144.56 307.898 144.267 308.08 143.904L304.704 136.416H306.512L308.944 142.048L311.408 136.416H313.2L310.112 143.568C309.845 144.208 309.557 144.768 309.248 145.248C308.949 145.739 308.597 146.123 308.192 146.4C307.797 146.677 307.312 146.816 306.736 146.816ZM314.82 134.832V133.392H316.724V134.832H314.82ZM314.964 144V137.744H313.812L313.972 136.416H316.708V144H314.964ZM318.742 144V136.416H320.342L320.422 137.216C320.764 136.949 321.169 136.725 321.638 136.544C322.118 136.352 322.646 136.256 323.222 136.256C324.204 136.256 324.918 136.485 325.366 136.944C325.814 137.403 326.038 138.117 326.038 139.088V144H324.31V139.168C324.31 138.581 324.188 138.171 323.942 137.936C323.708 137.701 323.26 137.584 322.598 137.584C322.204 137.584 321.814 137.664 321.43 137.824C321.057 137.984 320.742 138.192 320.486 138.448V144H318.742ZM331.064 146.816C330.499 146.816 329.934 146.779 329.368 146.704C328.803 146.64 328.323 146.539 327.928 146.4V145.056C328.355 145.195 328.846 145.301 329.4 145.376C329.955 145.451 330.483 145.488 330.984 145.488C331.752 145.488 332.312 145.445 332.664 145.36C333.016 145.275 333.192 145.083 333.192 144.784C333.192 144.56 333.107 144.4 332.936 144.304C332.766 144.219 332.44 144.176 331.96 144.176H329.912C328.536 144.176 327.848 143.691 327.848 142.72C327.848 142.411 327.939 142.123 328.12 141.856C328.302 141.589 328.59 141.387 328.984 141.248C328.547 141.035 328.222 140.741 328.008 140.368C327.806 139.995 327.704 139.547 327.704 139.024C327.704 138.053 327.992 137.349 328.568 136.912C329.155 136.475 330.03 136.256 331.192 136.256C331.438 136.256 331.694 136.277 331.96 136.32C332.227 136.352 332.435 136.384 332.584 136.416H335.368L335.32 137.552H334.04C334.243 137.723 334.392 137.936 334.488 138.192C334.584 138.448 334.632 138.725 334.632 139.024C334.632 139.835 334.387 140.475 333.896 140.944C333.406 141.403 332.664 141.632 331.672 141.632C331.502 141.632 331.342 141.627 331.192 141.616C331.054 141.595 330.899 141.573 330.728 141.552C330.408 141.584 330.12 141.669 329.864 141.808C329.608 141.947 329.48 142.133 329.48 142.368C329.48 142.528 329.544 142.645 329.672 142.72C329.8 142.784 330.014 142.816 330.312 142.816H332.44C333.198 142.816 333.779 142.981 334.184 143.312C334.6 143.632 334.808 144.101 334.808 144.72C334.808 145.467 334.483 146 333.832 146.32C333.192 146.651 332.27 146.816 331.064 146.816ZM331.192 140.528C331.886 140.528 332.366 140.411 332.632 140.176C332.91 139.941 333.048 139.541 333.048 138.976C333.048 138.411 332.91 138 332.632 137.744C332.366 137.488 331.886 137.36 331.192 137.36C330.542 137.36 330.067 137.483 329.768 137.728C329.47 137.973 329.32 138.389 329.32 138.976C329.32 139.52 329.459 139.915 329.736 140.16C330.024 140.405 330.51 140.528 331.192 140.528ZM343.435 144.16C342.625 144.16 342.017 143.947 341.611 143.52C341.217 143.083 341.019 142.491 341.019 141.744V137.776H339.899V136.416H341.019V134.672L342.747 134.144V136.416H344.763L344.651 137.776H342.747V141.648C342.747 142.085 342.849 142.395 343.051 142.576C343.254 142.747 343.585 142.832 344.043 142.832C344.331 142.832 344.635 142.779 344.955 142.672V143.904C344.539 144.075 344.033 144.16 343.435 144.16ZM349.921 144.16C348.556 144.16 347.553 143.819 346.913 143.136C346.284 142.453 345.969 141.477 345.969 140.208C345.969 138.939 346.289 137.963 346.929 137.28C347.569 136.597 348.567 136.256 349.921 136.256C351.287 136.256 352.289 136.597 352.929 137.28C353.569 137.963 353.889 138.939 353.889 140.208C353.889 141.477 353.569 142.453 352.929 143.136C352.3 143.819 351.297 144.16 349.921 144.16ZM349.921 142.688C350.721 142.688 351.287 142.496 351.617 142.112C351.959 141.717 352.129 141.083 352.129 140.208C352.129 139.333 351.959 138.704 351.617 138.32C351.287 137.936 350.721 137.744 349.921 137.744C349.132 137.744 348.567 137.936 348.225 138.32C347.895 138.704 347.729 139.333 347.729 140.208C347.729 141.083 347.895 141.717 348.225 142.112C348.567 142.496 349.132 142.688 349.921 142.688ZM359.274 144V136.416H360.874L360.97 137.296C361.332 137.061 361.764 136.848 362.266 136.656C362.767 136.464 363.263 136.331 363.754 136.256V137.584C363.455 137.637 363.13 137.717 362.778 137.824C362.436 137.92 362.111 138.032 361.802 138.16C361.492 138.277 361.231 138.4 361.018 138.528V144H359.274ZM367.76 144.16C366.853 144.16 366.154 143.909 365.664 143.408C365.184 142.907 364.944 142.171 364.944 141.2V136.416H366.688V141.2C366.688 141.765 366.826 142.181 367.104 142.448C367.381 142.715 367.808 142.848 368.384 142.848C368.81 142.848 369.205 142.768 369.568 142.608C369.93 142.448 370.245 142.235 370.512 141.968V136.416H372.24V144H370.656L370.576 143.216C370.234 143.483 369.829 143.707 369.36 143.888C368.89 144.069 368.357 144.16 367.76 144.16ZM374.274 144V136.416H375.874L375.954 137.216C376.295 136.949 376.7 136.725 377.17 136.544C377.65 136.352 378.178 136.256 378.754 136.256C379.735 136.256 380.45 136.485 380.898 136.944C381.346 137.403 381.57 138.117 381.57 139.088V144H379.842V139.168C379.842 138.581 379.719 138.171 379.474 137.936C379.239 137.701 378.791 137.584 378.13 137.584C377.735 137.584 377.346 137.664 376.962 137.824C376.588 137.984 376.274 138.192 376.018 138.448V144H374.274ZM389.579 144.16C389.099 144.16 388.651 144.075 388.235 143.904C387.83 143.733 387.504 143.477 387.259 143.136C387.014 142.784 386.891 142.352 386.891 141.84C386.891 141.115 387.136 140.533 387.627 140.096C388.128 139.648 388.896 139.424 389.931 139.424H392.363V139.088C392.363 138.725 392.304 138.437 392.187 138.224C392.08 138.011 391.878 137.856 391.579 137.76C391.291 137.664 390.864 137.616 390.299 137.616C389.403 137.616 388.566 137.749 387.787 138.016V136.72C388.128 136.581 388.544 136.469 389.035 136.384C389.526 136.299 390.054 136.256 390.619 136.256C391.728 136.256 392.571 136.48 393.147 136.928C393.734 137.376 394.027 138.107 394.027 139.12V144H392.539L392.427 143.232C392.118 143.531 391.734 143.76 391.275 143.92C390.827 144.08 390.262 144.16 389.579 144.16ZM390.043 142.912C390.566 142.912 391.019 142.827 391.403 142.656C391.798 142.475 392.118 142.235 392.363 141.936V140.608H389.963C389.451 140.608 389.078 140.709 388.843 140.912C388.619 141.104 388.507 141.403 388.507 141.808C388.507 142.203 388.64 142.485 388.907 142.656C389.174 142.827 389.552 142.912 390.043 142.912ZM396.425 144V137.776H395.321V136.416H396.425V135.488C396.425 134.731 396.633 134.123 397.049 133.664C397.476 133.195 398.105 132.96 398.937 132.96C399.246 132.96 399.529 132.987 399.785 133.04C400.041 133.083 400.276 133.147 400.489 133.232V134.48C400.158 134.363 399.822 134.304 399.481 134.304C398.98 134.304 398.633 134.395 398.441 134.576C398.249 134.757 398.153 135.067 398.153 135.504V136.416H400.137L400.057 137.776H398.153V144H396.425ZM404.138 144.16C403.328 144.16 402.72 143.947 402.314 143.52C401.92 143.083 401.722 142.491 401.722 141.744V137.776H400.602V136.416H401.722V134.672L403.45 134.144V136.416H405.466L405.354 137.776H403.45V141.648C403.45 142.085 403.552 142.395 403.754 142.576C403.957 142.747 404.288 142.832 404.746 142.832C405.034 142.832 405.338 142.779 405.658 142.672V143.904C405.242 144.075 404.736 144.16 404.138 144.16ZM410.832 144.16C409.51 144.16 408.486 143.835 407.76 143.184C407.035 142.533 406.672 141.536 406.672 140.192C406.672 138.976 406.982 138.016 407.6 137.312C408.219 136.608 409.158 136.256 410.416 136.256C411.568 136.256 412.432 136.56 413.008 137.168C413.595 137.765 413.888 138.539 413.888 139.488V140.896H408.336C408.422 141.632 408.688 142.139 409.136 142.416C409.584 142.693 410.267 142.832 411.184 142.832C411.568 142.832 411.963 142.795 412.368 142.72C412.774 142.645 413.126 142.549 413.424 142.432V143.712C413.083 143.861 412.688 143.973 412.24 144.048C411.803 144.123 411.334 144.16 410.832 144.16ZM408.336 139.76H412.352V139.232C412.352 138.709 412.208 138.304 411.92 138.016C411.632 137.717 411.147 137.568 410.464 137.568C409.654 137.568 409.094 137.744 408.784 138.096C408.486 138.448 408.336 139.003 408.336 139.76ZM415.586 144V136.416H417.186L417.282 137.296C417.645 137.061 418.077 136.848 418.578 136.656C419.079 136.464 419.575 136.331 420.066 136.256V137.584C419.767 137.637 419.442 137.717 419.09 137.824C418.749 137.92 418.423 138.032 418.114 138.16C417.805 138.277 417.543 138.4 417.33 138.528V144H415.586ZM427.92 144.16C427.109 144.16 426.501 143.947 426.096 143.52C425.701 143.083 425.504 142.491 425.504 141.744V137.776H424.384V136.416H425.504V134.672L427.232 134.144V136.416H429.248L429.136 137.776H427.232V141.648C427.232 142.085 427.333 142.395 427.536 142.576C427.738 142.747 428.069 142.832 428.528 142.832C428.816 142.832 429.12 142.779 429.44 142.672V143.904C429.024 144.075 428.517 144.16 427.92 144.16ZM430.774 144V133.216H432.518V137.152C432.848 136.885 433.243 136.672 433.702 136.512C434.16 136.341 434.678 136.256 435.254 136.256C436.214 136.256 436.923 136.485 437.382 136.944C437.84 137.403 438.07 138.117 438.07 139.088V144H436.342V139.168C436.342 138.581 436.214 138.171 435.958 137.936C435.712 137.701 435.28 137.584 434.662 137.584C434.278 137.584 433.888 137.669 433.494 137.84C433.099 138 432.774 138.213 432.518 138.48V144H430.774ZM443.707 144.16C442.385 144.16 441.361 143.835 440.635 143.184C439.91 142.533 439.547 141.536 439.547 140.192C439.547 138.976 439.857 138.016 440.475 137.312C441.094 136.608 442.033 136.256 443.291 136.256C444.443 136.256 445.307 136.56 445.883 137.168C446.47 137.765 446.763 138.539 446.763 139.488V140.896H441.211C441.297 141.632 441.563 142.139 442.011 142.416C442.459 142.693 443.142 142.832 444.059 142.832C444.443 142.832 444.838 142.795 445.243 142.72C445.649 142.645 446.001 142.549 446.299 142.432V143.712C445.958 143.861 445.563 143.973 445.115 144.048C444.678 144.123 444.209 144.16 443.707 144.16ZM441.211 139.76H445.227V139.232C445.227 138.709 445.083 138.304 444.795 138.016C444.507 137.717 444.022 137.568 443.339 137.568C442.529 137.568 441.969 137.744 441.659 138.096C441.361 138.448 441.211 139.003 441.211 139.76ZM448.925 144V137.776H447.821V136.416H448.925V135.488C448.925 134.731 449.133 134.123 449.549 133.664C449.976 133.195 450.605 132.96 451.437 132.96C451.746 132.96 452.029 132.987 452.285 133.04C452.541 133.083 452.776 133.147 452.989 133.232V134.48C452.658 134.363 452.322 134.304 451.981 134.304C451.48 134.304 451.133 134.395 450.941 134.576C450.749 134.757 450.653 135.067 450.653 135.504V136.416H452.637L452.557 137.776H450.653V144H448.925ZM456.638 144.16C455.828 144.16 455.22 143.947 454.814 143.52C454.42 143.083 454.222 142.491 454.222 141.744V137.776H453.102V136.416H454.222V134.672L455.95 134.144V136.416H457.966L457.854 137.776H455.95V141.648C455.95 142.085 456.052 142.395 456.254 142.576C456.457 142.747 456.788 142.832 457.246 142.832C457.534 142.832 457.838 142.779 458.158 142.672V143.904C457.742 144.075 457.236 144.16 456.638 144.16ZM459.172 145.92L459.652 142.896H461.172L460.436 145.92H459.172ZM266.736 168.16C265.403 168.16 264.395 167.824 263.712 167.152C263.029 166.469 262.688 165.488 262.688 164.208C262.688 162.875 263.061 161.883 263.808 161.232C264.565 160.581 265.573 160.256 266.832 160.256C267.355 160.256 267.792 160.293 268.144 160.368C268.507 160.443 268.853 160.56 269.184 160.72V162.016C268.629 161.739 267.957 161.6 267.168 161.6C266.293 161.6 265.621 161.797 265.152 162.192C264.683 162.576 264.448 163.248 264.448 164.208C264.448 165.115 264.656 165.781 265.072 166.208C265.488 166.624 266.176 166.832 267.136 166.832C267.893 166.832 268.581 166.688 269.2 166.4V167.728C268.848 167.867 268.469 167.973 268.064 168.048C267.669 168.123 267.227 168.16 266.736 168.16ZM272.954 168.16C272.474 168.16 272.026 168.075 271.61 167.904C271.205 167.733 270.879 167.477 270.634 167.136C270.389 166.784 270.266 166.352 270.266 165.84C270.266 165.115 270.511 164.533 271.002 164.096C271.503 163.648 272.271 163.424 273.306 163.424H275.738V163.088C275.738 162.725 275.679 162.437 275.562 162.224C275.455 162.011 275.253 161.856 274.954 161.76C274.666 161.664 274.239 161.616 273.674 161.616C272.778 161.616 271.941 161.749 271.162 162.016V160.72C271.503 160.581 271.919 160.469 272.41 160.384C272.901 160.299 273.429 160.256 273.994 160.256C275.103 160.256 275.946 160.48 276.522 160.928C277.109 161.376 277.402 162.107 277.402 163.12V168H275.914L275.802 167.232C275.493 167.531 275.109 167.76 274.65 167.92C274.202 168.08 273.637 168.16 272.954 168.16ZM273.418 166.912C273.941 166.912 274.394 166.827 274.778 166.656C275.173 166.475 275.493 166.235 275.738 165.936V164.608H273.338C272.826 164.608 272.453 164.709 272.218 164.912C271.994 165.104 271.882 165.403 271.882 165.808C271.882 166.203 272.015 166.485 272.282 166.656C272.549 166.827 272.927 166.912 273.418 166.912ZM282.072 168.16C281.165 168.16 280.467 167.909 279.976 167.408C279.496 166.907 279.256 166.171 279.256 165.2V160.416H281V165.2C281 165.765 281.139 166.181 281.416 166.448C281.693 166.715 282.12 166.848 282.696 166.848C283.123 166.848 283.517 166.768 283.88 166.608C284.243 166.448 284.557 166.235 284.824 165.968V160.416H286.552V168H284.968L284.888 167.216C284.547 167.483 284.141 167.707 283.672 167.888C283.203 168.069 282.669 168.16 282.072 168.16ZM291.658 170.816C291.093 170.816 290.527 170.779 289.962 170.704C289.397 170.64 288.917 170.539 288.522 170.4V169.056C288.949 169.195 289.439 169.301 289.994 169.376C290.549 169.451 291.077 169.488 291.578 169.488C292.346 169.488 292.906 169.445 293.258 169.36C293.61 169.275 293.786 169.083 293.786 168.784C293.786 168.56 293.701 168.4 293.53 168.304C293.359 168.219 293.034 168.176 292.554 168.176H290.506C289.13 168.176 288.442 167.691 288.442 166.72C288.442 166.411 288.533 166.123 288.714 165.856C288.895 165.589 289.183 165.387 289.578 165.248C289.141 165.035 288.815 164.741 288.602 164.368C288.399 163.995 288.298 163.547 288.298 163.024C288.298 162.053 288.586 161.349 289.162 160.912C289.749 160.475 290.623 160.256 291.786 160.256C292.031 160.256 292.287 160.277 292.554 160.32C292.821 160.352 293.029 160.384 293.178 160.416H295.962L295.914 161.552H294.634C294.837 161.723 294.986 161.936 295.082 162.192C295.178 162.448 295.226 162.725 295.226 163.024C295.226 163.835 294.981 164.475 294.49 164.944C293.999 165.403 293.258 165.632 292.266 165.632C292.095 165.632 291.935 165.627 291.786 165.616C291.647 165.595 291.493 165.573 291.322 165.552C291.002 165.584 290.714 165.669 290.458 165.808C290.202 165.947 290.074 166.133 290.074 166.368C290.074 166.528 290.138 166.645 290.266 166.72C290.394 166.784 290.607 166.816 290.906 166.816H293.034C293.791 166.816 294.373 166.981 294.778 167.312C295.194 167.632 295.402 168.101 295.402 168.72C295.402 169.467 295.077 170 294.426 170.32C293.786 170.651 292.863 170.816 291.658 170.816ZM291.786 164.528C292.479 164.528 292.959 164.411 293.226 164.176C293.503 163.941 293.642 163.541 293.642 162.976C293.642 162.411 293.503 162 293.226 161.744C292.959 161.488 292.479 161.36 291.786 161.36C291.135 161.36 290.661 161.483 290.362 161.728C290.063 161.973 289.914 162.389 289.914 162.976C289.914 163.52 290.053 163.915 290.33 164.16C290.618 164.405 291.103 164.528 291.786 164.528ZM297.446 168V157.216H299.19V161.152C299.52 160.885 299.915 160.672 300.374 160.512C300.832 160.341 301.35 160.256 301.926 160.256C302.886 160.256 303.595 160.485 304.054 160.944C304.512 161.403 304.742 162.117 304.742 163.088V168H303.014V163.168C303.014 162.581 302.886 162.171 302.63 161.936C302.384 161.701 301.952 161.584 301.334 161.584C300.95 161.584 300.56 161.669 300.166 161.84C299.771 162 299.446 162.213 299.19 162.48V168H297.446ZM309.592 168.16C308.781 168.16 308.173 167.947 307.768 167.52C307.373 167.083 307.176 166.491 307.176 165.744V161.776H306.056V160.416H307.176V158.672L308.904 158.144V160.416H310.92L310.808 161.776H308.904V165.648C308.904 166.085 309.005 166.395 309.208 166.576C309.41 166.747 309.741 166.832 310.2 166.832C310.488 166.832 310.792 166.779 311.112 166.672V167.904C310.696 168.075 310.189 168.16 309.592 168.16ZM316.773 158.832V157.392H318.677V158.832H316.773ZM316.917 168V161.744H315.765L315.925 160.416H318.661V168H316.917ZM320.696 168V160.416H322.296L322.376 161.216C322.717 160.949 323.122 160.725 323.592 160.544C324.072 160.352 324.6 160.256 325.176 160.256C326.157 160.256 326.872 160.485 327.32 160.944C327.768 161.403 327.992 162.117 327.992 163.088V168H326.264V163.168C326.264 162.581 326.141 162.171 325.896 161.936C325.661 161.701 325.213 161.584 324.552 161.584C324.157 161.584 323.768 161.664 323.384 161.824C323.01 161.984 322.696 162.192 322.44 162.448V168H320.696ZM336.001 168.16C335.521 168.16 335.073 168.075 334.657 167.904C334.252 167.733 333.926 167.477 333.681 167.136C333.436 166.784 333.313 166.352 333.313 165.84C333.313 165.115 333.558 164.533 334.049 164.096C334.55 163.648 335.318 163.424 336.353 163.424H338.785V163.088C338.785 162.725 338.726 162.437 338.609 162.224C338.502 162.011 338.3 161.856 338.001 161.76C337.713 161.664 337.286 161.616 336.721 161.616C335.825 161.616 334.988 161.749 334.209 162.016V160.72C334.55 160.581 334.966 160.469 335.457 160.384C335.948 160.299 336.476 160.256 337.041 160.256C338.15 160.256 338.993 160.48 339.569 160.928C340.156 161.376 340.449 162.107 340.449 163.12V168H338.961L338.849 167.232C338.54 167.531 338.156 167.76 337.697 167.92C337.249 168.08 336.684 168.16 336.001 168.16ZM336.465 166.912C336.988 166.912 337.441 166.827 337.825 166.656C338.22 166.475 338.54 166.235 338.785 165.936V164.608H336.385C335.873 164.608 335.5 164.709 335.265 164.912C335.041 165.104 334.929 165.403 334.929 165.808C334.929 166.203 335.062 166.485 335.329 166.656C335.596 166.827 335.974 166.912 336.465 166.912ZM346.111 168.16C344.778 168.16 343.77 167.824 343.087 167.152C342.404 166.469 342.063 165.488 342.063 164.208C342.063 162.875 342.436 161.883 343.183 161.232C343.94 160.581 344.948 160.256 346.207 160.256C346.73 160.256 347.167 160.293 347.519 160.368C347.882 160.443 348.228 160.56 348.559 160.72V162.016C348.004 161.739 347.332 161.6 346.543 161.6C345.668 161.6 344.996 161.797 344.527 162.192C344.058 162.576 343.823 163.248 343.823 164.208C343.823 165.115 344.031 165.781 344.447 166.208C344.863 166.624 345.551 166.832 346.511 166.832C347.268 166.832 347.956 166.688 348.575 166.4V167.728C348.223 167.867 347.844 167.973 347.439 168.048C347.044 168.123 346.602 168.16 346.111 168.16ZM352.857 168.16C352.046 168.16 351.438 167.947 351.033 167.52C350.638 167.083 350.441 166.491 350.441 165.744V161.776H349.321V160.416H350.441V158.672L352.169 158.144V160.416H354.185L354.073 161.776H352.169V165.648C352.169 166.085 352.27 166.395 352.473 166.576C352.676 166.747 353.006 166.832 353.465 166.832C353.753 166.832 354.057 166.779 354.377 166.672V167.904C353.961 168.075 353.454 168.16 352.857 168.16ZM355.391 168V166.64H356.863V168H355.391ZM358.251 160.656L359.099 157.536H360.507L359.451 160.656H358.251ZM360.603 160.656L361.435 157.536H362.843L361.786 160.656H360.603Z" fill="white"/>
<defs>
<filter id="filter0_d_163_3" x="132" y="0" width="301" height="232" filterUnits="userSpaceOnUse" color-interpolation-filters="sRGB">
<feFlood flood-opacity="0" result="BackgroundImageFix"/>
<feColorMatrix in="SourceAlpha" type="matrix" values="0 0 0 0 0 0 0 0 0 0 0 0 0 0 0 0 0 0 127 0" result="hardAlpha"/>
<feOffset dx="4" dy="4"/>
<feGaussianBlur stdDeviation="2"/>
<feComposite in2="hardAlpha" operator="out"/>
<feColorMatrix type="matrix" values="0 0 0 0 0 0 0 0 0 0 0 0 0 0 0 0 0 0 0.25 0"/>
<feBlend mode="normal" in2="BackgroundImageFix" result="effect1_dropShadow_163_3"/>
<feBlend mode="normal" in="SourceGraphic" in2="effect1_dropShadow_163_3" result="shape"/>
</filter>
<filter id="filter1_d_163_3" x="0" y="129" width="217" height="61" filterUnits="userSpaceOnUse" color-interpolation-filters="sRGB">
<feFlood flood-opacity="0" result="BackgroundImageFix"/>
<feColorMatrix in="SourceAlpha" type="matrix" values="0 0 0 0 0 0 0 0 0 0 0 0 0 0 0 0 0 0 127 0" result="hardAlpha"/>
<feOffset dx="4" dy="4"/>
<feGaussianBlur stdDeviation="2"/>
<feComposite in2="hardAlpha" operator="out"/>
<feColorMatrix type="matrix" values="0 0 0 0 0 0 0 0 0 0 0 0 0 0 0 0 0 0 0.25 0"/>
<feBlend mode="normal" in2="BackgroundImageFix" result="effect1_dropShadow_163_3"/>
<feBlend mode="normal" in="SourceGraphic" in2="effect1_dropShadow_163_3" result="shape"/>
</filter>
<filter id="filter2_d_163_3" x="248" y="66" width="254" height="128" filterUnits="userSpaceOnUse" color-interpolation-filters="sRGB">
<feFlood flood-opacity="0" result="BackgroundImageFix"/>
<feColorMatrix in="SourceAlpha" type="matrix" values="0 0 0 0 0 0 0 0 0 0 0 0 0 0 0 0 0 0 127 0" result="hardAlpha"/>
<feOffset dx="4" dy="4"/>
<feGaussianBlur stdDeviation="2"/>
<feComposite in2="hardAlpha" operator="out"/>
<feColorMatrix type="matrix" values="0 0 0 0 0 0 0 0 0 0 0 0 0 0 0 0 0 0 0.25 0"/>
<feBlend mode="normal" in2="BackgroundImageFix" result="effect1_dropShadow_163_3"/>
<feBlend mode="normal" in="SourceGraphic" in2="effect1_dropShadow_163_3" result="shape"/>
</filter>
</defs>
</svg>
