<svg width="1280" height="305" viewBox="0 0 1280 305" fill="none" xmlns="http://www.w3.org/2000/svg">
<path fill-rule="evenodd" clip-rule="evenodd" d="M0 115L21 147C43 179 85 243 128 230C171 218 213 128 256 109C299 90 341 141 384 179C427 218 469 243 512 262C555 282 597 294 640 301C683 307 725 307 768 275C811 243 853 179 896 173C939 166 981 218 1024 250C1067 282 1109 294 1152 275C1195 256 1237 205 1259 179L1280 154V0H1259C1237 0 1195 0 1152 0C1109 0 1067 0 1024 0C981 0 939 0 896 0C853 0 811 0 768 0C725 0 683 0 640 0C597 0 555 0 512 0C469 0 427 0 384 0C341 0 299 0 256 0C213 0 171 0 128 0C85 0 43 0 21 0H0V115Z" fill="#5603AD"/>
</svg>
